if (_typeface_js && _typeface_js.loadFace) _typeface_js.loadFace({"glyphs":{"ⴟ":{"x_min":81,"x_max":1101.265625,"ha":1183,"o":"m 863 443 l 920 594 l 570 533 l 681 293 l 863 443 m 846 -74 l 966 -103 l 956 -225 l 766 -183 l 634 116 l 221 -192 l 221 -306 l 99 -306 l 99 -158 l 589 218 l 452 518 l 275 490 l 265 439 l 128 439 l 161 597 l 81 597 l 81 647 l 172 647 l 180 687 l 324 687 l 294 553 l 945 659 l 961 716 l 1101 716 l 992 404 l 723 191 l 846 -74 "},"ᴴ":{"x_min":48,"x_max":715,"ha":763,"o":"m 48 453 l 48 493 l 129 493 l 129 979 l 48 979 l 48 1020 l 297 1020 l 297 979 l 216 979 l 216 783 l 546 783 l 546 979 l 466 979 l 466 1020 l 715 1020 l 715 979 l 633 979 l 633 493 l 715 493 l 715 453 l 466 453 l 466 493 l 546 493 l 546 737 l 216 737 l 216 493 l 297 493 l 297 453 l 48 453 "},"":{"x_min":105,"x_max":920.453125,"ha":956,"o":"m 105 944 q 124 1033 105 991 q 175 1107 143 1075 q 252 1158 208 1139 q 346 1177 296 1177 q 406 1169 377 1177 q 460 1146 435 1161 q 503 1107 484 1130 q 533 1053 522 1084 q 564 1109 545 1086 q 609 1148 584 1133 q 665 1170 635 1163 q 728 1177 695 1177 q 824 1158 786 1177 q 882 1105 861 1140 q 912 1021 904 1070 q 920 908 920 971 l 767 908 q 784 967 778 942 q 790 1008 790 992 q 771 1055 790 1038 q 706 1072 752 1072 q 626 1041 653 1072 q 599 941 599 1010 l 599 886 l 471 886 l 471 941 q 451 1042 471 1010 q 383 1074 432 1074 q 340 1068 362 1074 q 301 1053 318 1063 q 273 1026 284 1042 q 263 987 263 1010 l 263 652 q 306 700 278 675 q 366 744 334 724 q 433 777 399 764 q 496 790 467 790 q 634 763 568 790 q 753 686 701 737 q 835 563 804 636 q 867 397 867 490 q 839 216 867 296 q 761 83 811 137 q 642 1 711 29 q 490 -27 573 -27 q 338 -1 408 -27 q 215 70 267 23 q 134 185 163 117 q 105 340 105 253 l 105 944 m 270 394 q 288 234 270 296 q 337 137 307 172 q 409 90 368 103 q 497 78 450 78 q 584 95 548 78 q 643 150 621 112 q 676 250 666 189 q 687 398 687 311 q 673 533 687 478 q 634 622 660 588 q 571 671 608 656 q 483 686 533 686 q 404 664 442 686 q 335 603 365 642 q 288 511 306 564 q 270 394 270 457 "},"⟆":{"x_min":75,"x_max":488,"ha":542,"o":"m 75 -227 l 75 -178 q 109 -176 88 -180 q 183 -159 129 -173 q 378 80 378 -106 q 256 499 378 182 q 143 929 143 820 q 293 1068 143 1068 q 472 920 437 1068 l 390 885 q 300 1017 345 1022 q 244 926 244 1011 q 365 527 244 856 q 488 66 488 184 q 189 -219 488 -163 q 116 -227 151 -227 q 75 -227 81 -227 "},"ₑ":{"x_min":43,"x_max":472,"ha":537,"o":"m 472 195 l 135 195 l 135 191 q 169 67 135 109 q 271 26 204 26 q 356 50 323 26 q 403 122 389 74 l 465 122 q 396 22 446 55 q 263 -11 345 -11 q 103 47 164 -11 q 43 202 43 105 q 102 356 43 297 q 258 415 161 415 q 417 358 362 415 q 472 195 472 301 m 380 235 q 348 341 380 305 q 259 377 317 377 q 173 341 204 377 q 135 235 141 305 l 380 235 "},"ȋ":{"x_min":14,"x_max":432,"ha":445,"o":"m 432 896 l 370 896 q 326 973 361 949 q 223 998 290 998 q 120 973 155 998 q 76 896 84 949 l 14 896 q 68 1042 14 993 q 223 1091 122 1091 q 377 1042 323 1091 q 432 896 432 993 m 295 72 l 413 72 l 413 0 l 51 0 l 51 72 l 170 72 l 170 649 l 51 649 l 51 722 l 295 722 l 295 72 "},"‥":{"x_min":142,"x_max":785,"ha":927,"o":"m 630 6 q 605 70 605 32 q 631 134 605 108 q 695 161 657 161 q 758 134 732 161 q 785 70 785 108 q 758 6 785 32 q 695 -20 732 -20 q 630 6 656 -20 m 167 6 q 142 70 142 32 q 168 134 142 108 q 232 161 194 161 q 295 134 269 161 q 322 70 322 108 q 295 6 322 32 q 232 -20 269 -20 q 167 6 193 -20 "},"⇜":{"x_min":52,"x_max":1085,"ha":1164,"o":"m 378 394 l 211 394 l 342 165 l 334 165 l 52 445 l 52 452 l 334 732 l 342 732 l 211 504 l 340 504 l 421 644 l 545 429 l 669 644 l 794 429 l 918 644 l 999 504 l 1085 504 l 1085 394 l 960 394 l 918 468 l 794 252 l 669 468 l 545 252 l 421 468 l 378 394 "},"⣌":{"x_min":193,"x_max":824,"ha":1017,"o":"m 600 -169 q 631 -89 600 -122 q 712 -57 663 -57 q 791 -89 758 -57 q 824 -169 824 -122 q 791 -249 824 -216 q 712 -282 758 -282 q 631 -249 663 -282 q 600 -169 600 -216 m 193 -169 q 224 -89 193 -122 q 304 -57 256 -57 q 384 -89 351 -57 q 417 -169 417 -122 q 384 -249 417 -216 q 304 -282 351 -282 q 224 -249 256 -282 q 193 -169 193 -216 m 600 983 q 631 1063 600 1030 q 712 1096 663 1096 q 791 1063 758 1096 q 824 983 824 1030 q 791 903 824 936 q 712 871 758 871 q 631 903 663 871 q 600 983 600 936 m 193 215 q 224 295 193 262 q 304 328 256 328 q 384 295 351 328 q 417 215 417 262 q 384 135 417 168 q 304 103 351 103 q 224 135 256 103 q 193 215 193 168 "},"⡡":{"x_min":193,"x_max":824,"ha":1017,"o":"m 193 -169 q 224 -89 193 -122 q 304 -57 256 -57 q 384 -89 351 -57 q 417 -169 417 -122 q 384 -249 417 -216 q 304 -282 351 -282 q 224 -249 256 -282 q 193 -169 193 -216 m 600 215 q 631 295 600 262 q 712 328 663 328 q 791 295 758 328 q 824 215 824 262 q 791 135 824 168 q 712 103 758 103 q 631 135 663 103 q 600 215 600 168 m 193 983 q 224 1063 193 1030 q 304 1096 256 1096 q 384 1063 351 1096 q 417 983 417 1030 q 384 903 417 936 q 304 871 351 871 q 224 903 256 871 q 193 983 193 936 "},"Ⅲ":{"x_min":77,"x_max":1015,"ha":1092,"o":"m 886 72 l 1015 72 l 1015 0 l 77 0 l 77 72 l 206 72 l 206 940 l 77 940 l 77 1013 l 1015 1013 l 1015 940 l 886 940 l 886 72 m 748 940 l 615 940 l 615 72 l 748 72 l 748 940 m 477 940 l 344 940 l 344 72 l 477 72 l 477 940 "},"⤒":{"x_min":298.453125,"x_max":865.546875,"ha":1164,"o":"m 527 0 l 527 779 l 298 649 l 298 656 l 535 896 l 315 896 l 315 1006 l 848 1006 l 848 896 l 628 896 l 865 656 l 865 649 l 637 779 l 637 0 l 527 0 "},"Ƹ":{"x_min":69,"x_max":744,"ha":784,"o":"m 454 578 q 273 509 335 578 q 212 306 212 440 q 271 122 212 190 q 437 55 332 55 q 605 111 545 55 q 665 277 665 167 l 744 277 l 744 57 q 593 0 669 18 q 438 -20 518 -20 q 164 64 259 -20 q 69 308 69 149 q 137 520 69 438 q 331 621 206 602 l 384 626 l 135 928 l 135 1013 l 727 1013 l 727 778 l 644 778 l 644 930 l 285 930 l 519 647 l 519 578 l 454 578 "},"ˌ":{"x_min":144,"x_max":244,"ha":382,"o":"m 144 -172 l 144 152 l 244 152 l 244 -172 l 144 -172 "},"დ":{"x_min":75,"x_max":1084,"ha":1159,"o":"m 856 -306 l 760 -306 q 747 -250 760 -279 q 707 -194 734 -221 q 639 -146 680 -168 q 541 -113 598 -124 q 478 -102 506 -105 q 428 -98 451 -98 q 383 -102 403 -98 q 344 -116 362 -105 q 306 -145 325 -126 q 263 -193 286 -164 l 179 -105 q 215 -72 197 -86 q 256 -49 234 -58 q 304 -33 278 -39 q 366 -23 331 -26 q 298 18 333 -3 q 231 67 263 40 q 170 126 199 93 q 120 201 142 159 q 87 299 99 244 q 75 423 75 353 q 95 543 75 486 q 155 644 115 600 q 252 712 195 687 q 385 738 310 738 q 450 731 424 738 q 497 713 476 725 q 534 683 517 701 q 570 643 550 666 q 670 713 618 688 q 785 738 722 738 q 908 714 853 738 q 1002 647 963 691 q 1062 538 1041 602 q 1084 391 1084 474 q 1062 255 1084 316 q 1003 153 1041 195 q 911 89 965 111 q 791 67 857 67 q 664 92 723 67 q 564 160 606 117 q 499 260 522 203 q 476 379 476 317 q 478 448 476 417 q 488 507 481 480 q 508 560 495 535 q 541 609 521 585 q 508 631 523 623 q 474 645 492 640 q 434 650 456 650 q 382 650 413 650 q 306 632 336 650 q 259 582 276 615 q 236 499 242 549 q 230 386 230 450 q 248 261 230 318 q 303 158 267 205 q 390 75 339 112 q 508 8 442 38 q 593 -27 550 -11 q 674 -62 636 -44 q 746 -102 713 -81 q 803 -152 779 -123 q 842 -218 828 -180 q 856 -306 856 -256 m 923 374 l 923 436 q 918 524 923 484 q 898 592 913 563 q 856 636 883 620 q 785 652 830 652 q 706 639 737 652 q 657 597 675 627 q 632 514 639 566 q 625 385 625 463 q 632 274 625 319 q 658 201 639 229 q 707 162 676 174 q 785 150 738 150 q 856 160 830 150 q 898 196 883 171 q 918 265 913 221 q 923 374 923 308 "},"Ԓ":{"x_min":35,"x_max":1088,"ha":1159,"o":"m 959 32 q 891 -226 959 -151 q 678 -301 824 -301 q 580 -289 629 -301 q 481 -254 530 -277 l 481 -95 l 559 -95 q 588 -195 559 -162 q 678 -228 618 -228 q 791 -177 761 -228 q 821 25 821 -126 l 821 929 l 438 929 l 438 732 q 382 114 438 314 q 210 -20 345 -20 q 134 -8 184 -20 q 35 26 84 3 l 35 139 l 112 139 q 139 91 112 120 q 213 62 167 62 q 297 116 269 62 q 337 294 325 171 q 350 516 350 416 q 350 732 350 616 l 350 940 l 226 940 l 226 1013 l 1088 1013 l 1088 940 l 959 940 l 959 32 "},"ϼ":{"x_min":58,"x_max":785.8125,"ha":817,"o":"m 251 -140 l 581 -140 l 581 -213 l 251 -213 l 251 -289 l 126 -289 l 126 -213 l 58 -213 l 58 -140 l 126 -140 l 126 355 q 185 608 126 526 q 295 709 250 686 q 443 741 356 741 q 701 635 617 741 q 785 360 785 530 q 701 85 785 191 q 484 -20 617 -20 q 344 12 401 -20 q 251 112 287 44 l 251 -140 m 251 396 l 251 324 q 300 126 251 194 q 445 58 350 58 q 590 134 541 58 q 640 360 640 211 q 590 587 640 516 q 445 670 532 670 q 301 594 355 670 q 251 396 251 526 "},"ȡ":{"x_min":69,"x_max":1107,"ha":1131,"o":"m 851 -34 q 1032 37 1032 -34 q 747 120 1032 120 q 729 120 738 120 q 759 7 723 55 q 851 -34 790 -34 m 604 324 l 604 396 q 554 594 604 525 q 409 663 504 663 q 264 586 313 663 q 214 360 214 510 q 264 134 214 211 q 409 58 313 58 q 554 126 504 58 q 604 324 604 194 m 729 189 q 739 189 733 189 l 745 189 q 1107 32 1107 189 q 850 -102 1107 -102 q 671 -38 741 -102 q 611 50 627 2 q 590 -55 590 9 l 590 -98 l 523 -98 l 523 -55 q 531 26 523 -10 q 510 11 521 18 q 370 -20 454 -20 q 153 85 237 -20 q 69 360 69 191 q 153 635 69 530 q 370 741 237 741 q 510 708 453 741 q 604 608 566 676 l 604 984 l 486 984 l 486 1056 l 729 1056 l 729 189 "},"◦":{"x_min":208,"x_max":611,"ha":819,"o":"m 248 517 q 294 402 248 449 q 409 356 341 356 q 524 402 477 356 q 571 517 571 449 q 524 631 571 584 q 410 678 478 678 q 295 631 342 678 q 248 517 248 584 m 208 517 q 266 659 208 601 q 410 718 325 718 q 552 659 494 718 q 611 517 611 601 q 552 374 611 432 q 409 316 494 316 q 266 374 324 316 q 208 517 208 432 "},"ņ":{"x_min":50.640625,"x_max":857,"ha":896,"o":"m 352 -258 q 428 -192 404 -230 q 452 -99 452 -154 l 452 -85 l 556 -85 q 516 -204 556 -154 q 396 -291 476 -254 l 352 -258 m 58 0 l 58 72 l 170 72 l 170 649 l 50 649 l 50 722 l 295 722 l 295 593 q 384 703 329 666 q 513 741 440 741 q 688 672 632 741 q 745 458 745 604 l 745 72 l 857 72 l 857 0 l 512 0 l 512 72 l 620 72 l 620 419 q 587 600 620 551 q 472 650 554 650 q 340 586 385 650 q 295 401 295 523 l 295 72 l 404 72 l 404 0 l 58 0 "},"Ⅽ":{"x_min":78,"x_max":978.984375,"ha":1062,"o":"m 978 268 q 828 53 934 126 q 562 -20 723 -20 q 378 13 463 -20 q 227 113 293 47 q 114 286 151 189 q 78 505 78 383 q 214 886 78 741 q 573 1031 350 1031 q 749 1009 656 1031 q 951 943 843 987 l 951 710 l 874 710 q 773 897 849 837 q 561 958 698 958 q 316 843 399 958 q 233 505 233 728 q 316 167 233 282 q 561 53 399 53 q 748 106 675 53 q 854 268 821 160 l 978 268 "},"𝕨":{"x_min":-12,"x_max":1224,"ha":1196,"o":"m 749 721 l 913 240 l 1049 639 l 955 639 l 955 721 l 1224 721 l 1224 639 l 1139 639 l 921 0 l 755 0 l 603 451 l 448 0 l 284 0 l 66 639 l -12 639 l -12 721 l 396 721 l 396 639 l 311 639 l 444 248 l 605 721 l 749 721 m 690 639 l 664 639 l 645 583 l 815 82 l 862 82 l 872 108 l 690 639 m 153 639 l 343 82 l 389 82 l 402 117 l 224 639 l 153 639 "},"ỳ":{"x_min":-4,"x_max":781,"ha":785,"o":"m 300 -132 l 347 -12 l 78 648 l -4 648 l -4 721 l 328 721 l 328 648 l 212 648 l 415 152 l 618 648 l 510 648 l 510 721 l 781 721 l 781 648 l 700 648 l 369 -162 q 294 -277 336 -246 q 178 -309 253 -309 q 112 -303 146 -309 q 45 -287 78 -298 l 45 -150 l 108 -150 q 132 -216 112 -196 q 192 -236 151 -236 q 252 -215 229 -236 q 300 -132 275 -194 m 251 1078 l 428 824 l 348 824 l 118 1078 l 251 1078 "},"қ":{"x_min":40,"x_max":860,"ha":842,"o":"m 496 0 l 496 72 l 598 72 l 383 368 l 285 276 l 285 72 l 397 72 l 397 0 l 47 0 l 47 72 l 160 72 l 160 650 l 40 650 l 40 721 l 392 721 l 392 648 l 285 648 l 285 368 l 588 649 l 485 649 l 485 722 l 811 722 l 811 649 l 687 649 l 473 450 l 747 72 l 860 72 l 860 -192 l 789 -192 l 778 -96 q 699 0 767 0 l 496 0 "},"":{"x_min":81,"x_max":842,"ha":946,"o":"m 661 344 q 647 506 661 440 q 608 611 633 571 q 545 668 582 651 q 464 686 509 686 q 388 674 425 686 q 323 630 351 662 q 278 539 295 597 q 261 386 261 480 q 274 256 261 313 q 313 159 287 199 q 378 99 339 120 q 467 78 417 78 q 551 96 515 78 q 612 149 588 115 q 649 233 636 184 q 661 344 661 283 m 842 323 q 812 184 842 248 q 732 73 783 120 q 613 0 681 26 q 468 -27 545 -27 q 358 -10 409 -27 q 263 36 306 6 q 186 106 220 65 q 129 191 152 146 q 93 287 106 237 q 81 386 81 337 q 96 509 81 453 q 138 610 111 566 q 201 689 165 655 q 280 745 238 722 q 368 778 322 767 q 459 790 413 790 q 526 779 493 790 q 588 750 559 768 q 641 707 617 732 q 683 652 665 681 l 683 942 q 671 1007 683 982 q 637 1047 660 1033 q 578 1068 614 1062 q 495 1074 543 1074 l 495 1177 q 635 1159 572 1177 q 745 1108 699 1142 q 816 1024 791 1074 q 842 910 842 974 l 842 323 "},"⥍":{"x_min":298.453125,"x_max":865.546875,"ha":1164,"o":"m 628 1037 l 637 1037 l 637 178 l 865 309 l 865 302 l 535 -32 l 527 -32 l 527 826 l 298 695 l 298 702 l 628 1037 "},"ѕ":{"x_min":78,"x_max":642,"ha":713,"o":"m 78 39 l 78 208 l 151 208 q 199 87 151 127 q 341 47 247 47 q 469 78 425 47 q 514 170 514 110 q 481 247 514 218 q 345 309 449 276 l 255 340 q 120 415 162 370 q 79 529 79 459 q 151 684 79 628 q 352 741 224 741 q 472 726 409 741 q 603 682 535 711 l 603 525 l 530 525 q 483 634 530 595 q 357 673 437 673 q 237 645 278 673 q 197 562 197 618 q 227 489 197 516 q 349 433 258 461 l 448 402 q 596 323 551 370 q 642 199 642 275 q 563 38 642 97 q 347 -20 485 -20 q 211 -5 277 -20 q 78 39 144 9 "},"Ḏ":{"x_min":77,"x_max":1034,"ha":1114,"o":"m 344 72 l 470 72 q 772 184 667 72 q 878 507 878 297 q 772 828 878 717 q 470 940 667 940 l 344 940 l 344 72 m 77 0 l 77 72 l 206 72 l 206 940 l 77 940 l 77 1013 l 479 1013 q 887 879 741 1013 q 1034 507 1034 745 q 887 134 1034 268 q 479 0 741 0 l 77 0 m 301 -105 l 707 -105 l 707 -205 l 301 -205 l 301 -105 "},"ℂ":{"x_min":58,"x_max":1034.3125,"ha":1105,"o":"m 1034 289 q 890 56 994 132 q 611 -20 786 -20 q 206 121 355 -20 q 58 505 58 262 q 206 889 58 748 q 611 1031 355 1031 q 799 1009 702 1031 q 1006 943 897 987 l 1006 695 l 920 695 q 824 885 893 822 q 639 949 754 949 q 419 840 491 949 q 348 505 348 731 q 419 170 348 279 q 640 62 491 62 q 806 118 742 62 q 899 289 870 174 l 1034 289 m 359 897 q 263 830 306 870 q 140 505 140 712 q 263 180 140 298 q 359 114 305 140 l 351 125 q 266 505 266 254 q 351 885 266 755 l 359 897 "},"ŭ":{"x_min":37.421875,"x_max":843,"ha":895,"o":"m 187 1091 l 248 1091 q 292 1013 257 1037 q 395 989 328 989 q 499 1013 463 989 q 543 1091 534 1037 l 605 1091 q 550 944 605 993 q 396 896 496 896 q 241 944 295 896 q 187 1091 187 993 m 491 721 l 725 721 l 725 72 l 843 72 l 843 0 l 600 0 l 600 127 q 510 17 565 55 q 383 -20 455 -20 q 206 48 263 -20 q 150 262 150 116 l 150 648 l 37 648 l 37 721 l 275 721 l 275 301 q 307 120 275 169 q 422 72 339 72 q 554 135 509 72 q 600 320 600 199 l 600 648 l 491 648 l 491 721 "},"╲":{"x_min":-73.921875,"x_max":910.109375,"ha":836,"o":"m 910 -419 l 789 -419 l -73 1352 l 46 1352 l 910 -419 "},"◴":{"x_min":76,"x_max":1136,"ha":1212,"o":"m 146 94 q 76 359 76 217 q 146 624 76 501 q 340 819 217 748 q 606 890 463 890 q 871 819 748 890 q 1065 624 994 748 q 1136 359 1136 501 q 1065 94 1136 217 q 871 -99 994 -28 q 606 -171 748 -171 q 340 -99 463 -171 q 146 94 217 -28 m 567 814 q 377 751 472 805 q 164 400 164 630 l 567 400 l 567 814 m 164 323 q 374 -28 164 92 q 601 -94 488 -94 q 828 -28 715 -94 q 1057 361 1057 102 q 830 751 1057 620 q 644 814 737 805 l 644 323 l 164 323 "},"𝟟":{"x_min":110,"x_max":851.34375,"ha":967,"o":"m 851 840 l 433 0 l 295 0 l 702 821 l 203 821 l 203 683 l 110 683 l 110 1013 l 851 1013 l 851 840 m 192 890 l 742 890 l 769 944 l 192 944 l 192 890 "},"┗":{"x_min":309,"x_max":849.484375,"ha":836,"o":"m 309 278 l 309 1351 l 526 1351 l 526 511 l 849 511 l 849 278 l 309 278 "},"ɭ":{"x_min":39.640625,"x_max":587,"ha":504,"o":"m 159 984 l 39 984 l 39 1056 l 284 1056 l 284 -71 q 312 -199 284 -159 q 405 -241 343 -241 q 491 -211 461 -241 q 520 -116 520 -180 l 587 -116 l 587 -264 q 500 -297 545 -286 q 407 -309 456 -309 q 224 -245 291 -309 q 159 -71 159 -182 q 159 984 159 456 "},"⁍":{"x_min":146,"x_max":548,"ha":695,"o":"m 265 305 l 146 305 l 146 707 l 265 707 l 265 305 m 345 707 q 489 648 430 707 q 548 506 548 590 q 489 363 548 421 q 346 305 431 305 l 345 305 l 345 707 "},"ἣ":{"x_min":50.640625,"x_max":745,"ha":832,"o":"m 170 0 l 170 649 l 50 649 l 50 722 l 295 722 l 295 593 q 384 703 329 666 q 513 741 439 741 q 688 672 632 741 q 745 458 745 603 l 745 -289 l 620 -289 l 620 419 q 587 600 620 551 q 472 650 554 650 q 340 586 385 650 q 295 402 295 523 l 295 0 l 170 0 m 511 1110 l 687 855 l 608 855 l 377 1110 l 511 1110 m 256 1153 q 309 1135 286 1153 q 347 1061 347 1108 q 321 998 347 1023 q 265 973 298 973 q 325 863 271 915 l 275 842 q 270 846 273 844 q 163 1050 163 940 l 163 1061 q 183 1114 163 1091 q 256 1153 210 1153 "},"╋":{"x_min":-13,"x_max":850,"ha":837,"o":"m 310 -419 l 310 279 l -13 279 l -13 512 l 310 512 l 310 1352 l 527 1352 l 527 512 l 850 512 l 850 279 l 527 279 l 527 -419 l 310 -419 "},"⊓":{"x_min":146,"x_max":1017,"ha":1163,"o":"m 146 882 l 1017 882 l 1017 0 l 908 0 l 908 772 l 255 772 l 255 0 l 146 0 l 146 882 "},"Ɲ":{"x_min":-139,"x_max":1154,"ha":1215,"o":"m -139 -242 l -139 -83 l -62 -83 q -30 -182 -62 -150 q 59 -216 0 -216 q 172 -165 140 -216 q 204 33 204 -114 l 204 940 l 67 940 l 67 1013 l 327 1013 l 935 213 l 935 940 l 799 940 l 799 1013 l 1154 1013 l 1154 940 l 1018 940 l 1018 -19 l 936 -19 l 288 832 l 288 27 q 220 -214 288 -139 q 23 -289 153 -289 q -39 -277 10 -289 q -139 -242 -89 -265 "},"𝔽":{"x_min":65,"x_max":968,"ha":986,"o":"m 65 0 l 65 82 l 195 82 l 195 931 l 65 931 l 65 1013 l 968 1013 l 968 774 l 875 774 l 875 920 l 457 920 l 457 595 l 714 595 l 714 724 l 807 724 l 807 374 l 714 374 l 714 503 l 457 503 l 457 82 l 616 82 l 616 0 l 65 0 m 277 931 l 277 82 l 375 82 l 375 931 l 277 931 "},"⇱":{"x_min":113,"x_max":1064.640625,"ha":1164,"o":"m 1010 132 l 932 54 l 314 673 l 245 418 l 239 424 l 239 822 l 243 826 l 641 826 l 646 819 l 392 750 l 1010 132 m 113 0 l 113 958 l 1064 958 l 1064 890 l 181 890 l 181 0 l 113 0 "},"⁸":{"x_min":36,"x_max":520,"ha":557,"o":"m 382 514 q 420 608 420 547 q 382 703 420 669 q 277 737 345 737 q 173 703 210 737 q 136 608 136 669 q 173 514 136 547 q 277 480 210 480 q 382 514 345 480 m 401 884 q 368 964 401 936 q 278 994 336 994 q 187 964 219 994 q 155 884 155 936 q 187 804 155 832 q 278 775 219 775 q 368 804 336 775 q 401 884 401 832 m 350 756 q 475 707 429 747 q 520 608 520 668 q 456 485 520 528 q 277 443 394 443 q 99 485 161 443 q 36 608 36 528 q 80 707 36 667 q 206 756 126 747 q 97 800 135 766 q 59 884 59 833 q 117 991 59 952 q 278 1031 175 1031 q 438 991 379 1031 q 497 884 497 952 q 458 800 497 833 q 350 756 420 766 "},"k":{"x_min":39.96875,"x_max":851,"ha":842,"o":"m 398 0 l 48 0 l 48 72 l 160 72 l 160 984 l 39 984 l 39 1056 l 285 1056 l 285 368 l 589 649 l 486 649 l 486 722 l 812 722 l 812 649 l 688 649 l 474 450 l 748 72 l 851 72 l 851 0 l 496 0 l 496 72 l 599 72 l 383 368 l 285 277 l 285 72 l 398 72 l 398 0 "},"ȇ":{"x_min":69,"x_max":750,"ha":821,"o":"m 620 896 l 557 896 q 513 973 548 949 q 410 998 478 998 q 307 973 342 998 q 263 896 272 949 l 202 896 q 256 1042 202 993 q 411 1091 310 1091 q 565 1042 511 1091 q 620 896 620 993 m 750 347 l 214 347 l 214 341 q 269 121 214 195 q 431 47 324 47 q 566 90 514 47 q 640 218 619 133 l 739 218 q 629 39 710 99 q 418 -20 549 -20 q 164 84 260 -20 q 69 360 69 188 q 163 636 69 531 q 411 741 257 741 q 662 640 574 741 q 750 347 750 539 m 603 419 q 553 609 603 545 q 411 673 504 673 q 275 609 325 673 q 214 419 225 544 l 603 419 "},"⠽":{"x_min":193,"x_max":824,"ha":1017,"o":"m 600 215 q 631 295 600 262 q 712 328 663 328 q 791 295 758 328 q 824 215 824 262 q 791 135 824 168 q 712 103 758 103 q 631 135 663 103 q 600 215 600 168 m 600 599 q 631 679 600 646 q 712 712 663 712 q 791 679 758 712 q 824 599 824 646 q 791 519 824 552 q 712 487 758 487 q 631 519 663 487 q 600 599 600 552 m 600 984 q 631 1064 600 1031 q 712 1097 663 1097 q 791 1064 758 1097 q 824 984 824 1031 q 791 904 824 937 q 712 872 758 872 q 631 904 663 872 q 600 984 600 937 m 193 215 q 224 295 193 262 q 304 328 256 328 q 384 295 351 328 q 417 215 417 262 q 384 135 417 168 q 304 103 351 103 q 224 135 256 103 q 193 215 193 168 m 193 984 q 224 1064 193 1031 q 304 1097 256 1097 q 384 1064 351 1097 q 417 984 417 1031 q 384 904 417 937 q 304 872 351 872 q 224 904 256 872 q 193 984 193 937 "},"ί":{"x_min":50.328125,"x_max":466.25,"ha":544,"o":"m 169 197 l 169 649 l 50 649 l 50 722 l 294 722 l 294 197 q 344 79 294 102 q 466 112 382 62 l 466 30 q 231 34 328 -48 q 169 197 169 88 m 316 1112 l 451 1112 l 221 857 l 141 857 l 316 1112 "},"Ù":{"x_min":65,"x_max":1108,"ha":1170,"o":"m 195 940 l 65 940 l 65 1013 l 461 1013 l 461 940 l 332 940 l 332 416 q 395 145 332 222 q 614 69 458 69 q 832 145 769 69 q 896 416 896 222 l 896 940 l 766 940 l 766 1013 l 1108 1013 l 1108 940 l 979 940 l 979 402 q 890 75 979 171 q 588 -20 801 -20 q 285 76 375 -20 q 195 402 195 172 l 195 940 m 564 1288 l 688 1109 l 609 1109 l 431 1288 l 564 1288 "},"╾":{"x_min":-13,"x_max":850.4375,"ha":837,"o":"m -13 278 l -13 511 l 432 511 l 432 453 l 850 453 l 850 336 l 432 336 l 432 278 l -13 278 "},"ᵗ":{"x_min":25,"x_max":343,"ha":343,"o":"m 94 816 l 25 816 l 25 857 l 94 857 l 94 981 l 173 981 l 173 857 l 321 857 l 321 816 l 173 816 l 173 559 q 184 493 173 508 q 225 479 195 479 q 270 495 256 479 q 285 548 285 511 l 343 548 q 312 467 343 492 q 219 442 282 442 q 122 468 150 442 q 94 559 94 495 l 94 816 "},"ὓ":{"x_min":50.328125,"x_max":775,"ha":844,"o":"m 499 721 l 574 721 q 730 588 689 667 q 775 345 775 500 q 746 205 775 270 q 662 88 716 137 q 550 20 613 43 q 413 -3 486 -3 q 231 62 303 -3 q 169 237 169 119 l 169 648 l 50 648 l 50 721 l 294 721 l 294 237 q 322 108 294 148 q 413 66 351 66 q 574 155 498 66 q 636 356 636 227 q 610 579 636 539 q 499 680 565 648 l 499 721 m 495 1109 l 671 855 l 592 855 l 362 1109 l 495 1109 m 241 1152 q 294 1134 271 1152 q 332 1060 332 1108 q 306 997 332 1022 q 250 972 283 972 q 310 863 256 914 l 260 842 q 255 846 258 844 q 148 1049 148 940 l 148 1060 q 169 1114 148 1090 q 241 1152 195 1152 "},"Ҷ":{"x_min":-38,"x_max":949,"ha":1041,"o":"m 556 0 l 556 72 l 682 72 l 682 443 l 470 443 q 179 520 268 443 q 91 728 91 597 l 91 940 l -38 940 l -38 1013 l 352 1013 l 352 940 l 227 940 l 227 728 q 279 570 227 625 q 503 516 332 516 l 683 516 l 683 940 l 555 940 l 555 1013 l 949 1013 l 949 940 l 820 940 l 820 72 l 949 72 l 949 -218 l 877 -218 q 864 -107 877 -215 q 784 0 852 0 l 556 0 "},"Ⴣ":{"x_min":75,"x_max":945,"ha":1020,"o":"m 605 69 l 691 69 l 691 479 l 458 479 q 324 488 380 479 q 232 522 268 498 q 179 586 196 546 q 163 686 163 625 l 163 886 l 75 886 l 75 957 l 412 957 l 412 886 l 328 886 l 328 707 q 458 552 328 552 l 692 552 l 692 1107 l 605 1107 l 605 1178 l 945 1178 l 945 1107 l 856 1107 l 856 69 l 945 69 l 945 0 l 605 0 l 605 69 "},"┢":{"x_min":309,"x_max":849.484375,"ha":836,"o":"m 309 -419 l 309 512 l 363 512 l 363 1352 l 472 1352 l 472 512 l 849 512 l 849 279 l 526 279 l 526 -419 l 309 -419 "},"⤤":{"x_min":263,"x_max":957,"ha":1163,"o":"m 394 185 q 374 132 374 163 q 395 80 374 102 q 447 59 416 59 q 499 80 478 59 l 577 2 q 447 -52 522 -52 q 317 2 371 -52 q 263 132 263 56 q 317 263 263 208 l 804 750 l 550 818 l 556 825 l 953 825 l 957 821 l 957 423 l 950 418 l 882 672 l 394 185 "},"ჳ":{"x_min":75,"x_max":719.515625,"ha":794,"o":"m 396 344 q 486 369 442 344 q 565 433 530 394 q 620 522 599 473 q 641 618 641 570 l 611 618 q 578 590 598 603 q 534 565 558 577 q 484 544 511 554 q 433 528 458 534 q 385 517 408 521 q 345 514 362 514 q 242 521 291 514 q 156 546 193 528 q 97 597 119 565 q 75 681 75 630 q 78 726 75 706 q 87 760 81 745 q 102 788 93 775 q 122 813 111 800 l 264 769 q 228 720 239 743 q 217 668 217 697 q 221 639 217 655 q 238 610 225 624 q 276 587 251 596 q 341 578 301 578 q 434 588 392 578 q 512 618 477 598 q 576 668 547 638 q 631 737 605 697 l 719 737 q 710 604 719 661 q 684 504 700 547 q 645 432 668 462 q 598 381 623 402 q 545 345 573 360 q 491 317 518 330 q 661 211 604 280 q 719 44 719 142 l 719 -22 q 694 -143 719 -89 q 627 -234 670 -197 q 526 -292 584 -272 q 399 -313 467 -313 q 272 -288 331 -313 q 169 -224 213 -264 q 100 -132 125 -184 q 75 -27 75 -81 q 127 123 75 67 q 278 196 180 178 l 295 153 q 270 124 282 144 q 249 78 259 104 q 235 24 240 52 q 230 -27 230 -3 q 237 -108 230 -71 q 264 -172 245 -145 q 314 -214 283 -199 q 393 -229 346 -229 q 456 -221 426 -229 q 510 -194 487 -213 q 548 -144 533 -176 q 563 -66 563 -113 l 563 75 q 554 155 563 119 q 527 218 546 192 q 478 258 508 244 q 404 273 447 273 l 340 273 l 340 344 l 396 344 "},"∝":{"x_min":150,"x_max":790,"ha":940,"o":"m 538 451 q 459 541 504 511 q 357 571 414 571 q 245 525 288 571 q 202 409 202 480 q 241 295 202 340 q 342 250 281 250 q 441 294 397 250 q 538 451 485 339 m 790 153 q 690 192 739 153 q 586 328 640 231 q 485 192 538 235 q 368 150 432 150 q 213 225 276 150 q 150 413 150 301 q 206 605 150 532 q 354 679 263 679 q 469 637 418 679 q 571 499 520 595 q 670 638 617 593 q 790 683 724 683 l 790 581 q 717 535 761 581 q 620 379 672 490 q 699 289 654 319 q 790 259 744 259 l 790 153 "},"Ẹ":{"x_min":76.40625,"x_max":902,"ha":1013,"o":"m 76 0 l 76 72 l 205 72 l 205 940 l 76 940 l 76 1013 l 891 1013 l 891 787 l 808 787 l 808 929 l 343 929 l 343 590 l 675 590 l 675 717 l 758 717 l 758 380 l 675 380 l 675 507 l 343 507 l 343 83 l 819 83 l 819 225 l 902 225 l 902 0 l 76 0 m 506 -107 q 562 -130 539 -107 q 586 -186 586 -153 q 563 -243 586 -221 q 506 -266 541 -266 q 449 -243 471 -266 q 427 -186 427 -221 q 450 -130 427 -153 q 506 -107 473 -107 "},"⬇":{"x_min":298,"x_max":865,"ha":1163,"o":"m 402 1005 l 761 1005 l 761 296 l 865 296 l 865 254 l 584 -28 l 578 -28 l 298 254 l 298 296 l 402 296 l 402 1005 "},"▎":{"x_min":-13,"x_max":260,"ha":1068,"o":"m -13 -347 l -13 1070 l 260 1070 l 260 -347 l -13 -347 "},"≠":{"x_min":147,"x_max":1016,"ha":1163,"o":"m 147 629 l 670 629 l 843 845 l 928 776 l 810 629 l 1016 629 l 1016 520 l 717 520 l 585 352 l 1016 352 l 1016 243 l 491 243 l 316 26 l 231 95 l 349 243 l 147 243 l 147 352 l 443 352 l 576 520 l 147 520 l 147 629 "},"ƀ":{"x_min":40,"x_max":819.8125,"ha":890,"o":"m 160 72 l 160 821 l 41 821 l 41 904 l 160 904 l 160 984 l 41 984 l 41 1056 l 285 1056 l 285 904 l 499 904 l 499 821 l 285 821 l 285 608 q 378 708 321 676 q 518 741 434 741 q 735 635 651 741 q 819 360 819 530 q 735 85 819 191 q 518 -20 651 -20 q 378 12 434 -20 q 285 112 321 44 l 285 0 l 40 0 l 40 72 l 160 72 m 285 324 q 334 126 285 194 q 479 58 384 58 q 624 134 575 58 q 674 360 674 211 q 624 586 674 510 q 479 663 575 663 q 334 594 384 663 q 285 396 285 525 l 285 324 "},"ɼ":{"x_min":50.640625,"x_max":665,"ha":665,"o":"m 665 722 l 665 542 l 591 542 q 564 622 591 595 q 486 649 537 649 q 344 585 393 649 q 295 401 295 521 l 295 -216 l 440 -216 l 440 -288 l 58 -288 l 58 -216 l 170 -216 l 170 650 l 50 650 l 50 721 l 295 721 l 295 593 q 389 704 331 668 q 529 741 447 741 q 593 736 560 741 q 665 722 627 731 "},"╤":{"x_min":-13,"x_max":850,"ha":837,"o":"m 364 -419 l 364 220 l -13 220 l -13 337 l 850 337 l 850 220 l 473 220 l 473 -419 l 364 -419 m -13 453 l -13 570 l 850 570 l 850 453 l -13 453 "},"ᵸ":{"x_min":48,"x_max":715,"ha":763,"o":"m 48 453 l 48 493 l 129 493 l 129 979 l 48 979 l 48 1020 l 297 1020 l 297 979 l 216 979 l 216 783 l 546 783 l 546 979 l 466 979 l 466 1020 l 715 1020 l 715 979 l 633 979 l 633 493 l 715 493 l 715 453 l 466 453 l 466 493 l 546 493 l 546 737 l 216 737 l 216 493 l 297 493 l 297 453 l 48 453 "},"ϴ":{"x_min":78,"x_max":1061,"ha":1138,"o":"m 906 507 l 233 507 q 317 167 233 281 q 569 53 402 53 q 821 167 736 53 q 906 507 906 281 m 902 590 q 821 843 888 752 q 569 958 736 958 q 317 843 402 958 q 236 590 250 752 l 902 590 m 569 -20 q 380 13 466 -20 q 227 113 293 47 q 114 286 151 189 q 78 505 78 382 q 114 724 78 627 q 227 897 151 821 q 379 997 294 963 q 569 1031 465 1031 q 925 886 789 1031 q 1061 505 1061 741 q 1023 286 1061 383 q 910 113 986 188 q 758 13 844 47 q 569 -20 673 -20 "},"ʔ":{"x_min":159,"x_max":602,"ha":744,"o":"m 278 72 l 278 565 l 356 565 q 447 606 417 565 q 476 778 476 647 q 447 948 476 907 q 355 990 417 990 q 270 959 299 990 q 241 865 241 929 l 174 865 l 174 1011 q 260 1046 215 1035 q 354 1057 305 1057 q 535 993 469 1057 q 602 777 602 930 q 535 558 602 622 q 403 506 480 506 l 403 72 l 521 72 l 521 0 l 403 0 l 278 0 l 159 0 l 159 72 l 278 72 "},"ᾞ":{"x_min":10,"x_max":1448,"ha":1525,"o":"m 1038 -277 l 989 -288 q 868 -171 868 -315 l 868 -83 l 969 -83 l 969 -180 q 1003 -234 969 -243 l 1038 -225 l 1038 -277 m 390 0 l 390 72 l 518 72 l 518 940 l 390 940 l 390 1013 l 785 1013 l 785 940 l 656 940 l 656 590 l 1181 590 l 1181 940 l 1053 940 l 1053 1013 l 1448 1013 l 1448 940 l 1319 940 l 1319 72 l 1448 72 l 1448 0 l 1053 0 l 1053 72 l 1181 72 l 1181 507 l 656 507 l 656 72 l 785 72 l 785 0 l 390 0 m 230 1231 l 192 1268 q 162 1289 174 1284 q 138 1295 151 1295 q 92 1268 109 1295 q 76 1190 76 1241 l 10 1190 q 44 1331 10 1281 q 141 1381 79 1381 q 189 1371 167 1381 q 236 1339 210 1362 l 274 1302 q 301 1281 290 1286 q 327 1276 313 1276 q 373 1303 357 1276 q 390 1381 390 1330 l 456 1381 q 421 1240 456 1289 q 325 1190 386 1190 q 277 1199 299 1190 q 230 1231 255 1209 m 238 1152 q 310 1114 284 1152 q 331 1061 331 1090 l 331 1050 q 223 846 331 940 q 219 842 220 843 l 169 862 q 229 972 222 914 q 173 997 196 972 q 148 1061 148 1023 q 184 1135 148 1108 q 238 1152 207 1152 "},"∸":{"x_min":147,"x_max":1016,"ha":1163,"o":"m 492 687 q 518 751 492 725 q 582 778 544 778 q 645 751 619 778 q 672 687 672 724 q 645 623 672 649 q 582 597 619 597 q 517 622 543 597 q 492 687 492 648 m 147 491 l 1016 491 l 1016 381 l 147 381 l 147 491 "},"⇶":{"x_min":79,"x_max":1112,"ha":1164,"o":"m 79 945 l 952 945 l 869 1092 l 876 1092 l 1112 893 l 1112 886 l 876 687 l 869 687 l 952 835 l 79 835 l 79 945 m 79 63 l 952 63 l 869 210 l 876 210 l 1112 11 l 1112 4 l 876 -194 l 869 -194 l 952 -47 l 79 -47 l 79 63 m 79 504 l 952 504 l 869 651 l 876 651 l 1112 452 l 1112 445 l 876 246 l 869 246 l 952 394 l 79 394 l 79 504 "},"∕":{"x_min":0,"x_max":467.9375,"ha":468,"o":"m 359 1013 l 467 1013 l 108 -129 l 0 -129 l 359 1013 "},"Ᾰ":{"x_min":-8,"x_max":1017,"ha":1004,"o":"m 278 367 l 650 367 l 463 848 l 278 367 m -8 0 l -8 72 l 80 72 l 441 1013 l 555 1013 l 917 72 l 1017 72 l 1017 0 l 649 0 l 649 72 l 760 72 l 676 294 l 250 294 l 165 72 l 277 72 l 277 0 l -8 0 m 298 1287 l 359 1287 q 404 1209 368 1233 q 507 1185 439 1185 q 610 1209 575 1185 q 655 1287 646 1233 l 716 1287 q 661 1140 716 1189 q 507 1092 607 1092 q 352 1140 406 1092 q 298 1287 298 1189 "},"∺":{"x_min":147,"x_max":1016,"ha":1163,"o":"m 147 686 q 173 750 147 724 q 237 777 199 777 q 300 750 274 777 q 327 686 327 723 q 300 622 327 648 q 237 596 274 596 q 172 621 198 596 q 147 686 147 647 m 172 120 q 147 184 147 146 q 173 248 147 222 q 237 275 199 275 q 300 248 274 275 q 327 184 327 222 q 300 120 327 146 q 237 94 274 94 q 172 120 198 94 m 836 686 q 862 750 836 724 q 926 777 888 777 q 989 750 963 777 q 1016 686 1016 723 q 989 622 1016 648 q 926 596 963 596 q 861 621 887 596 q 836 686 836 647 m 861 120 q 836 184 836 146 q 862 248 836 222 q 926 275 888 275 q 989 248 963 275 q 1016 184 1016 222 q 989 120 1016 146 q 926 94 963 94 q 861 120 887 94 m 147 490 l 1016 490 l 1016 380 l 147 380 l 147 490 "},"⇿":{"x_min":51.515625,"x_max":1112.5,"ha":1164,"o":"m 788 505 l 788 733 l 829 733 l 1112 453 l 1112 446 l 829 166 l 788 166 l 788 395 l 376 395 l 376 166 l 334 166 l 51 446 l 51 453 l 334 733 l 376 733 l 376 505 l 788 505 m 856 608 l 856 291 l 1016 450 l 856 608 m 308 291 l 308 608 l 147 450 l 308 291 "},"Ϋ":{"x_min":-16,"x_max":929,"ha":917,"o":"m 262 0 l 262 72 l 392 72 l 392 436 l 78 940 l -16 940 l -16 1013 l 360 1013 l 360 940 l 242 940 l 495 530 l 748 940 l 635 940 l 635 1013 l 929 1013 l 929 940 l 833 940 l 529 449 l 529 72 l 658 72 l 658 0 l 262 0 m 364 1278 q 420 1254 397 1278 q 444 1199 444 1230 q 421 1142 444 1165 q 364 1120 398 1120 q 308 1142 331 1120 q 286 1199 286 1165 q 309 1254 286 1230 q 364 1278 332 1278 m 629 1278 q 684 1254 661 1278 q 708 1199 708 1230 q 685 1142 708 1165 q 629 1120 662 1120 q 572 1142 595 1120 q 550 1199 550 1165 q 573 1254 550 1230 q 629 1278 596 1278 "},"ː":{"x_min":146.484375,"x_max":321.453125,"ha":468,"o":"m 321 0 l 146 0 l 213 182 l 254 182 l 321 0 m 146 603 l 321 603 l 254 421 l 212 421 l 146 603 "},"ö":{"x_min":69,"x_max":766,"ha":836,"o":"m 417 47 q 569 126 517 47 q 620 360 620 206 q 569 594 620 515 q 417 673 517 673 q 265 594 317 673 q 214 360 214 515 q 266 126 214 206 q 417 47 317 47 m 417 -20 q 164 84 260 -20 q 69 360 69 188 q 164 637 69 533 q 417 741 259 741 q 670 637 575 741 q 766 360 766 533 q 670 84 766 188 q 417 -20 575 -20 m 285 1064 q 341 1040 318 1064 q 365 984 365 1017 q 342 927 365 949 q 285 905 320 905 q 229 927 251 905 q 207 984 207 949 q 230 1040 207 1017 q 285 1064 253 1064 m 549 1064 q 604 1040 581 1064 q 628 984 628 1017 q 605 927 628 949 q 549 905 583 905 q 492 927 514 905 q 470 984 470 949 q 493 1040 470 1017 q 549 1064 516 1064 "},"↲":{"x_min":322.703125,"x_max":824,"ha":1164,"o":"m 482 201 l 612 -27 l 605 -27 l 322 252 l 322 259 l 605 539 l 612 539 l 482 311 l 714 311 l 714 1005 l 824 1005 l 824 201 l 482 201 "},"▥":{"x_min":126,"x_max":1185,"ha":1311,"o":"m 126 -171 l 126 893 l 1185 893 l 1185 -171 l 126 -171 m 990 -92 l 1111 -92 l 1111 814 l 990 814 l 990 -92 m 793 -92 l 912 -92 l 912 814 l 793 814 l 793 -92 m 596 -92 l 716 -92 l 716 814 l 596 814 l 596 -92 m 398 -92 l 519 -92 l 519 814 l 398 814 l 398 -92 m 202 -92 l 321 -92 l 321 814 l 202 814 l 202 -92 "},"╧":{"x_min":-13,"x_max":850,"ha":837,"o":"m -13 220 l -13 337 l 850 337 l 850 220 l -13 220 m -13 453 l -13 570 l 364 570 l 364 1351 l 473 1351 l 473 570 l 850 570 l 850 453 l -13 453 "},"ẉ":{"x_min":22,"x_max":1170,"ha":1188,"o":"m 666 722 l 850 158 l 1013 649 l 909 649 l 909 722 l 1170 722 l 1170 649 l 1090 649 l 875 0 l 771 0 l 594 539 l 415 0 l 316 0 l 102 649 l 22 649 l 22 722 l 348 722 l 348 649 l 231 649 l 392 158 l 578 722 l 666 722 m 595 -107 q 651 -130 628 -107 q 675 -186 675 -153 q 652 -243 675 -221 q 595 -266 630 -266 q 538 -243 560 -266 q 516 -186 516 -221 q 539 -130 516 -153 q 595 -107 562 -107 "},"Ȧ":{"x_min":-8,"x_max":1017,"ha":1004,"o":"m 501 1280 q 557 1256 533 1280 q 581 1201 581 1232 q 558 1144 581 1167 q 501 1122 535 1122 q 444 1144 467 1122 q 422 1201 422 1167 q 445 1256 422 1232 q 501 1280 469 1280 m 278 367 l 650 367 l 464 848 l 278 367 m -8 0 l -8 72 l 80 72 l 441 1013 l 555 1013 l 917 72 l 1017 72 l 1017 0 l 649 0 l 649 72 l 761 72 l 676 294 l 250 294 l 165 72 l 277 72 l 277 0 l -8 0 "},"Ḽ":{"x_min":76.96875,"x_max":889,"ha":922,"o":"m 458 -79 l 572 -79 l 732 -333 l 653 -333 l 515 -157 l 378 -333 l 299 -333 l 458 -79 m 76 0 l 76 72 l 206 72 l 206 940 l 77 940 l 77 1013 l 472 1013 l 472 940 l 344 940 l 344 83 l 806 83 l 806 253 l 889 253 l 889 0 l 76 0 "},"8":{"x_min":93,"x_max":790,"ha":884,"o":"m 647 276 q 593 444 647 384 q 441 505 539 505 q 289 444 343 505 q 236 276 236 384 q 289 107 236 167 q 441 47 343 47 q 593 107 539 47 q 647 276 647 167 m 619 768 q 572 912 619 860 q 441 964 525 964 q 311 912 358 964 q 264 768 264 860 q 311 623 264 675 q 441 572 358 572 q 572 623 525 572 q 619 768 619 675 m 545 538 q 725 453 661 523 q 790 276 790 384 q 699 56 790 133 q 441 -20 609 -20 q 183 56 274 -20 q 93 276 93 133 q 157 453 93 384 q 337 538 221 523 q 180 616 235 557 q 126 768 126 676 q 210 960 126 890 q 441 1031 294 1031 q 672 960 588 1031 q 757 768 757 890 q 702 616 757 676 q 545 538 647 557 "},"⁆":{"x_min":107.1875,"x_max":423,"ha":542,"o":"m 134 412 l 134 462 l 293 462 l 293 984 l 107 984 l 107 1056 l 423 1056 l 423 -183 l 107 -183 l 107 -111 l 293 -111 l 293 412 l 134 412 "},"ↂ":{"x_min":77,"x_max":1595,"ha":1675,"o":"m 905 187 q 1062 496 1062 221 q 905 804 1062 770 l 905 187 m 905 118 l 905 72 l 1031 72 q 1333 184 1228 72 q 1439 507 1439 297 q 1333 828 1439 717 q 1031 940 1228 940 l 905 940 l 905 874 q 1112 773 1031 860 q 1208 496 1208 669 q 1112 219 1208 324 q 905 118 1031 131 m 767 804 q 610 496 610 770 q 767 187 610 221 l 767 804 m 767 874 l 767 939 l 638 939 q 337 828 442 939 q 233 507 233 717 q 338 184 233 296 q 638 72 443 72 l 767 72 l 767 118 q 559 219 641 131 q 464 496 464 324 q 559 773 464 669 q 767 874 641 860 m 1041 0 l 630 0 q 223 134 369 0 q 77 507 77 268 q 223 879 77 745 q 630 1013 369 1013 l 1041 1013 q 1448 879 1302 1013 q 1595 507 1595 745 q 1448 134 1595 268 q 1041 0 1302 0 "},"ħ":{"x_min":50,"x_max":856,"ha":895,"o":"m 57 0 l 57 72 l 169 72 l 169 821 l 50 821 l 50 904 l 169 904 l 169 984 l 50 984 l 50 1056 l 294 1056 l 294 904 l 508 904 l 508 821 l 294 821 l 294 593 q 383 703 328 666 q 512 741 439 741 q 687 672 631 741 q 744 458 744 604 l 744 72 l 856 72 l 856 0 l 511 0 l 511 72 l 619 72 l 619 419 q 586 600 619 551 q 471 649 554 649 q 339 585 384 649 q 294 401 294 522 l 294 72 l 403 72 l 403 0 l 57 0 "},"◉":{"x_min":76,"x_max":1136,"ha":1212,"o":"m 434 63 q 262 361 262 162 q 434 658 262 559 q 605 709 519 709 q 777 658 692 709 q 950 361 950 559 q 777 63 950 162 q 605 13 692 13 q 434 63 519 13 m 381 751 q 155 361 155 621 q 381 -28 155 101 q 605 -94 493 -94 q 830 -28 718 -94 q 1057 361 1057 101 q 830 751 1057 620 q 605 817 718 817 q 381 751 493 817 m 341 -97 q 76 361 76 56 q 341 820 76 666 q 605 897 473 897 q 870 820 738 897 q 1136 361 1136 666 q 870 -97 1136 56 q 605 -174 738 -174 q 341 -97 473 -174 "},"ᶜ":{"x_min":43,"x_max":448.984375,"ha":480,"o":"m 448 574 q 385 475 432 509 q 262 442 337 442 q 103 500 163 442 q 43 655 43 558 q 103 810 43 752 q 262 868 163 868 q 348 858 305 868 q 434 831 391 849 l 434 728 l 388 728 q 349 805 379 781 q 263 830 319 830 q 167 786 199 830 q 135 654 135 742 q 167 523 135 567 q 263 479 199 479 q 344 502 314 479 q 385 574 375 526 l 448 574 "},"ἵ":{"x_min":14,"x_max":527.28125,"ha":544,"o":"m 169 197 l 169 649 l 50 649 l 50 722 l 294 722 l 294 197 q 344 79 294 102 q 466 112 382 62 l 466 30 q 231 34 328 -48 q 169 197 169 88 m 392 1112 l 527 1112 l 296 857 l 217 857 l 392 1112 m 107 1153 q 160 1135 137 1153 q 198 1061 198 1109 q 172 998 198 1023 q 116 973 149 973 q 176 863 122 915 l 126 843 q 121 847 124 844 q 14 1050 14 941 l 14 1061 q 34 1115 14 1091 q 107 1153 61 1153 "},"⥖":{"x_min":79,"x_max":1084.1875,"ha":1164,"o":"m 189 505 l 1084 505 l 1084 395 l 304 395 l 435 166 l 428 166 l 189 403 l 189 183 l 79 183 l 79 716 l 189 716 l 189 505 "},"˙":{"x_min":268,"x_max":427,"ha":695,"o":"m 347 1065 q 403 1041 380 1065 q 427 985 427 1018 q 404 928 427 950 q 347 906 382 906 q 290 928 312 906 q 268 985 268 950 q 291 1041 268 1018 q 347 1065 314 1065 "},"„":{"x_min":60.5625,"x_max":583,"ha":719,"o":"m 60 -135 q 154 -24 125 -88 q 184 128 184 38 l 184 154 l 315 154 q 265 -45 315 37 q 114 -189 215 -128 l 60 -135 m 328 -135 q 423 -24 393 -88 q 453 128 453 38 l 453 154 l 583 154 q 533 -45 583 37 q 382 -189 483 -128 l 328 -135 "},"ӷ":{"x_min":39.90625,"x_max":667,"ha":727,"o":"m 47 0 l 47 72 l 159 72 l 159 650 l 39 650 l 39 721 l 667 721 l 667 540 l 596 540 l 596 637 l 284 637 l 284 72 l 397 72 l 397 -192 l 326 -192 l 315 -96 q 236 0 304 0 l 47 0 "},"δ":{"x_min":69,"x_max":766,"ha":836,"o":"m 248 703 q 180 753 201 720 q 155 883 155 791 q 221 1017 155 971 q 421 1063 288 1063 q 528 1052 457 1063 q 674 1019 598 1040 l 674 885 l 601 869 q 544 960 593 929 q 431 991 495 991 q 321 957 368 991 q 274 877 274 922 q 297 791 274 813 q 417 741 351 741 q 670 637 575 741 q 766 360 766 533 q 670 84 766 188 q 417 -20 575 -20 q 164 84 260 -20 q 69 360 69 188 q 163 637 69 533 q 248 703 206 682 m 417 47 q 569 126 517 47 q 620 360 620 206 q 569 594 620 515 q 417 673 517 673 q 265 594 317 673 q 214 360 214 515 q 266 126 214 206 q 417 47 317 47 "},"ᶪ":{"x_min":-16,"x_max":253,"ha":242,"o":"m 179 493 l 253 493 l 253 413 q 211 315 253 351 q 97 280 169 280 q 38 286 65 280 q -16 305 10 292 l -16 389 l 26 389 q 44 335 26 352 q 97 318 62 318 q 155 341 136 318 q 174 413 174 364 l 174 453 l 24 453 l 24 493 l 100 493 l 100 1004 l 24 1004 l 24 1044 l 179 1044 l 179 493 "},"˞":{"x_min":1,"x_max":581.0625,"ha":580,"o":"m 1 588 l 204 706 l 282 706 l 282 664 q 326 535 282 575 q 428 493 372 493 q 530 523 500 493 l 581 470 q 526 437 549 443 q 431 426 490 426 q 288 488 353 426 q 224 633 232 544 l 1 505 l 1 588 "},"ǥ":{"x_min":69,"x_max":848,"ha":889,"o":"m 604 325 l 440 325 l 440 398 l 604 398 q 554 594 604 526 q 409 663 504 663 q 263 586 313 663 q 214 360 214 510 q 264 134 214 211 q 409 58 313 58 q 554 126 504 58 q 604 325 604 194 m 729 325 l 729 15 q 643 -224 729 -139 q 400 -309 558 -309 q 263 -296 328 -309 q 139 -257 198 -283 l 139 -106 l 203 -106 q 261 -209 216 -176 q 391 -241 307 -241 q 553 -179 501 -241 q 604 15 604 -117 l 604 112 q 510 12 567 44 q 370 -20 454 -20 q 153 85 237 -20 q 69 360 69 191 q 153 635 69 530 q 370 741 237 741 q 510 708 454 741 q 604 608 567 676 l 604 721 l 848 721 l 848 648 l 729 648 l 729 398 l 848 398 l 848 325 l 729 325 "},"‷":{"x_min":27.125,"x_max":689.015625,"ha":722,"o":"m 485 760 l 426 760 l 230 1013 l 368 1013 l 485 760 m 689 760 l 630 760 l 434 1013 l 571 1013 l 689 760 m 282 760 l 223 760 l 27 1013 l 164 1013 l 282 760 "},"შ":{"x_min":14,"x_max":730,"ha":825,"o":"m 730 314 q 706 194 730 251 q 641 93 683 137 q 538 25 599 50 q 402 0 478 0 q 308 15 351 0 q 229 57 265 30 q 167 120 194 84 q 122 199 140 156 q 95 287 104 241 q 86 380 86 334 q 110 513 86 451 q 178 621 135 575 q 278 692 220 666 q 403 719 336 719 q 463 705 433 719 q 519 670 493 691 q 564 624 545 649 q 592 577 583 599 l 592 988 q 582 1028 592 1012 q 556 1052 572 1043 q 520 1063 540 1060 q 477 1067 499 1067 q 439 1057 453 1067 q 419 1030 425 1048 q 413 985 413 1012 q 413 922 413 958 l 413 841 l 309 841 l 309 922 q 304 985 309 958 q 289 1031 300 1013 q 260 1058 278 1049 q 216 1067 242 1067 q 183 1062 200 1067 q 151 1049 165 1058 q 127 1027 137 1040 q 118 994 118 1013 q 120 942 118 962 q 128 909 123 922 q 141 890 133 897 q 160 879 149 883 l 139 827 q 80 859 104 840 q 41 899 56 878 q 20 944 26 921 q 14 987 14 967 q 28 1066 14 1034 q 66 1117 43 1098 q 120 1144 90 1136 q 182 1153 151 1153 q 295 1112 249 1153 q 357 1001 341 1072 q 382 1061 365 1033 q 423 1110 400 1089 q 473 1141 446 1130 q 526 1153 500 1153 q 610 1142 572 1153 q 674 1102 648 1131 q 715 1023 700 1073 q 730 894 730 973 l 730 314 m 587 377 q 573 487 587 439 q 534 567 559 535 q 475 616 510 599 q 401 633 441 633 q 322 614 353 633 q 274 563 291 596 q 249 484 256 530 q 243 381 243 437 q 250 262 243 316 q 278 169 258 208 q 331 109 297 130 q 414 88 364 88 q 491 96 458 88 q 545 135 523 105 q 577 223 566 165 q 587 377 587 280 "},"⇓":{"x_min":298.125,"x_max":864.859375,"ha":1163,"o":"m 864 262 l 864 254 l 584 -28 l 578 -28 l 298 254 l 298 262 l 408 201 l 408 1005 l 518 1005 l 518 141 l 581 106 l 645 141 l 645 1005 l 755 1005 l 755 201 l 864 262 "},"⤞":{"x_min":79,"x_max":1112,"ha":1164,"o":"m 482 165 l 613 394 l 79 394 l 79 404 l 79 493 l 79 504 l 613 504 l 482 732 l 490 732 l 764 459 l 934 628 l 1112 451 l 1112 446 l 934 269 l 764 438 l 490 165 l 482 165 "},"р":{"x_min":39.96875,"x_max":819,"ha":889,"o":"m 285 396 l 285 324 q 334 126 285 194 q 479 58 384 58 q 624 134 574 58 q 673 360 673 211 q 624 586 673 510 q 479 663 574 663 q 334 594 384 663 q 285 396 285 525 m 160 649 l 39 649 l 39 722 l 285 722 l 285 608 q 378 708 321 676 q 518 741 434 741 q 734 635 650 741 q 819 360 819 530 q 734 85 819 191 q 518 -20 650 -20 q 378 12 434 -20 q 285 112 321 44 l 285 -216 l 403 -216 l 403 -289 l 40 -289 l 40 -216 l 160 -216 l 160 649 "},"Ö":{"x_min":78,"x_max":1061,"ha":1138,"o":"m 569 53 q 820 167 735 53 q 905 505 905 281 q 820 843 905 729 q 569 958 735 958 q 317 843 402 958 q 233 505 233 729 q 317 167 233 281 q 569 53 402 53 m 569 -20 q 380 13 466 -20 q 227 113 293 47 q 114 286 151 189 q 78 505 78 382 q 114 724 78 627 q 227 897 151 821 q 379 997 294 963 q 569 1031 465 1031 q 925 886 789 1031 q 1061 505 1061 741 q 1023 286 1061 383 q 910 113 986 188 q 758 13 844 47 q 569 -20 673 -20 m 437 1278 q 493 1254 470 1278 q 517 1199 517 1230 q 494 1142 517 1165 q 437 1120 471 1120 q 381 1142 404 1120 q 359 1199 359 1165 q 382 1254 359 1230 q 437 1278 405 1278 m 702 1278 q 757 1254 734 1278 q 781 1199 781 1230 q 758 1142 781 1165 q 702 1120 735 1120 q 645 1142 668 1120 q 623 1199 623 1165 q 646 1254 623 1230 q 702 1278 669 1278 "},"⊡":{"x_min":146,"x_max":1017,"ha":1163,"o":"m 146 0 l 146 871 l 1017 871 l 1017 0 l 146 0 m 491 435 q 517 499 491 473 q 581 526 543 526 q 645 499 619 526 q 672 435 672 472 q 645 371 672 397 q 581 345 619 345 q 517 370 543 345 q 491 435 491 396 m 907 110 l 907 761 l 256 761 l 256 110 l 907 110 "},"Θ":{"x_min":78,"x_max":1061,"ha":1138,"o":"m 569 53 q 820 167 735 53 q 905 505 905 281 q 820 843 905 729 q 569 958 735 958 q 317 843 402 958 q 233 505 233 729 q 317 167 233 281 q 569 53 402 53 m 569 -20 q 380 13 466 -20 q 227 113 293 47 q 114 286 151 189 q 78 505 78 382 q 114 724 78 627 q 227 897 151 821 q 379 997 294 963 q 569 1031 465 1031 q 925 886 789 1031 q 1061 505 1061 741 q 1023 286 1061 383 q 910 113 986 188 q 758 13 844 47 q 569 -20 673 -20 m 401 507 l 401 380 l 318 380 l 318 717 l 401 717 l 401 590 l 738 590 l 738 717 l 821 717 l 821 380 l 738 380 l 738 507 l 401 507 "},"Ř":{"x_min":77,"x_max":1079.71875,"ha":1047,"o":"m 666 503 q 747 459 713 490 q 808 372 781 428 l 956 72 l 1079 72 l 1079 0 l 840 0 l 682 322 q 599 443 637 416 q 495 471 561 471 l 344 471 l 344 72 l 487 72 l 487 0 l 77 0 l 77 72 l 206 72 l 206 940 l 77 940 l 77 1013 l 590 1013 q 818 942 738 1013 q 899 742 899 871 q 840 578 899 638 q 666 503 781 517 m 344 544 l 544 544 q 695 592 646 544 q 744 742 744 640 q 695 892 744 844 q 544 940 646 940 l 344 940 l 344 544 m 436 1109 l 280 1288 l 358 1288 l 496 1178 l 634 1288 l 712 1288 l 556 1109 l 436 1109 "},"⡅":{"x_min":193,"x_max":417,"ha":1017,"o":"m 193 -169 q 224 -89 193 -122 q 304 -57 256 -57 q 384 -89 351 -57 q 417 -169 417 -122 q 384 -249 417 -216 q 304 -282 351 -282 q 224 -249 256 -282 q 193 -169 193 -216 m 193 215 q 224 295 193 262 q 304 328 256 328 q 384 295 351 328 q 417 215 417 262 q 384 135 417 168 q 304 103 351 103 q 224 135 256 103 q 193 215 193 168 m 193 983 q 224 1063 193 1030 q 304 1096 256 1096 q 384 1063 351 1096 q 417 983 417 1030 q 384 903 417 936 q 304 871 351 871 q 224 903 256 871 q 193 983 193 936 "},"ϙ":{"x_min":69,"x_max":766,"ha":836,"o":"m 417 48 q 569 127 517 48 q 620 361 620 206 q 569 594 620 515 q 417 673 517 673 q 265 594 317 673 q 214 361 214 515 q 266 127 214 206 q 417 48 317 48 m 480 -15 l 480 -289 l 355 -289 l 355 -15 q 164 84 242 1 q 69 361 69 189 q 164 637 69 533 q 417 741 259 741 q 670 637 575 741 q 766 361 766 533 q 671 84 766 189 q 480 -15 593 0 "},"⬐":{"x_min":51.46875,"x_max":1084.4375,"ha":1164,"o":"m 280 349 l 280 692 l 1084 692 l 1084 582 l 390 582 l 390 349 l 618 480 l 618 473 l 338 190 l 331 190 l 51 473 l 51 480 l 280 349 "},"ᾝ":{"x_min":6,"x_max":1566,"ha":1643,"o":"m 1156 -277 l 1107 -288 q 986 -171 986 -315 l 986 -83 l 1087 -83 l 1087 -180 q 1121 -234 1087 -243 l 1156 -225 l 1156 -277 m 508 0 l 508 72 l 637 72 l 637 940 l 508 940 l 508 1013 l 903 1013 l 903 940 l 775 940 l 775 590 l 1299 590 l 1299 940 l 1171 940 l 1171 1013 l 1566 1013 l 1566 940 l 1437 940 l 1437 72 l 1566 72 l 1566 0 l 1171 0 l 1171 72 l 1299 72 l 1299 507 l 775 507 l 775 72 l 903 72 l 903 0 l 508 0 m 384 1111 l 519 1111 l 289 856 l 209 856 l 384 1111 m 99 1152 q 152 1135 129 1152 q 190 1061 190 1108 q 164 997 190 1023 q 107 972 141 972 q 168 862 114 914 l 118 842 q 113 846 116 843 q 6 1050 6 940 l 6 1061 q 26 1114 6 1091 q 99 1152 52 1152 "},"ṅ":{"x_min":50.640625,"x_max":857,"ha":896,"o":"m 454 1065 q 510 1041 487 1065 q 534 985 534 1018 q 511 928 534 950 q 454 906 489 906 q 397 928 419 906 q 375 985 375 950 q 398 1041 375 1018 q 454 1065 421 1065 m 58 0 l 58 72 l 170 72 l 170 649 l 50 649 l 50 722 l 295 722 l 295 593 q 385 703 329 666 q 513 741 440 741 q 688 672 632 741 q 745 458 745 604 l 745 72 l 857 72 l 857 0 l 512 0 l 512 72 l 620 72 l 620 419 q 587 600 620 551 q 472 650 554 650 q 340 586 385 650 q 295 401 295 523 l 295 72 l 404 72 l 404 0 l 58 0 "},"ᶼ":{"x_min":35.328125,"x_max":619.5625,"ha":459,"o":"m 35 453 l 35 485 l 319 816 l 94 816 l 94 746 l 49 746 l 49 857 l 420 857 l 420 824 l 136 493 l 429 493 l 429 413 q 446 341 429 363 q 504 318 465 318 q 557 335 539 318 q 578 389 575 352 l 619 389 l 619 305 q 564 286 592 292 q 506 280 536 280 q 391 315 433 280 q 350 413 350 350 l 350 453 l 35 453 "},"и":{"x_min":47,"x_max":852,"ha":925,"o":"m 47 0 l 47 72 l 159 72 l 159 649 l 47 649 l 47 721 l 397 721 l 397 649 l 284 649 l 284 235 l 615 584 l 615 649 l 502 649 l 502 721 l 852 721 l 852 649 l 740 649 l 740 72 l 852 72 l 852 0 l 502 0 l 502 72 l 615 72 l 615 474 l 284 125 l 284 72 l 397 72 l 397 0 l 47 0 "},"³":{"x_min":68,"x_max":487,"ha":558,"o":"m 84 995 q 179 1022 134 1013 q 265 1031 225 1031 q 409 994 358 1031 q 460 890 460 957 q 424 807 460 841 q 323 762 388 773 q 445 711 404 751 q 487 603 487 670 q 427 484 487 525 q 257 443 368 443 q 161 452 208 443 q 68 480 114 461 l 68 596 l 117 596 q 150 519 117 545 q 246 493 184 493 q 346 522 311 493 q 381 608 381 552 q 346 703 381 671 q 242 736 311 736 l 207 736 l 207 786 l 225 786 q 324 811 290 786 q 358 886 358 836 q 330 956 358 932 q 251 981 303 981 q 166 959 196 981 q 132 894 137 937 l 84 894 l 84 995 "},"⇀":{"x_min":79,"x_max":1116,"ha":1163,"o":"m 1116 402 l 1116 394 l 79 394 l 79 504 l 905 504 l 774 732 l 781 732 l 1116 402 "},"♬":{"x_min":127.453125,"x_max":1117,"ha":1245,"o":"m 1114 1013 l 1117 1010 l 1117 147 q 939 2 1117 2 q 769 106 781 2 q 927 205 769 205 q 1054 169 1001 205 l 1057 169 l 1057 618 l 472 618 l 472 157 q 305 -7 472 17 l 302 -7 q 127 116 127 -7 q 287 203 127 203 q 415 164 355 203 l 415 1013 l 1114 1013 m 474 873 l 474 767 l 1057 767 l 1057 873 l 474 873 "},"͘":{"x_min":-153,"x_max":6,"ha":0,"o":"m -73 1065 q -17 1041 -40 1065 q 6 985 6 1018 q -16 928 6 950 q -73 906 -38 906 q -130 928 -108 906 q -153 985 -153 950 q -129 1041 -153 1018 q -73 1065 -106 1065 "},"⥸":{"x_min":79,"x_max":1112,"ha":1164,"o":"m 147 963 l 147 1079 l 1016 763 l 1016 651 l 147 335 l 147 450 l 850 706 l 147 963 m 79 233 l 952 233 l 821 461 l 828 461 l 1112 181 l 1112 174 l 828 -105 l 821 -105 l 952 123 l 79 123 l 79 233 "},"ᶣ":{"x_min":23.46875,"x_max":531,"ha":554,"o":"m 304 332 l 378 332 l 378 525 q 321 464 356 485 q 241 443 286 443 q 129 481 165 443 q 94 600 94 519 l 94 816 l 23 816 l 23 857 l 173 857 l 173 622 q 193 521 173 548 q 265 494 213 494 q 349 529 320 494 q 378 633 378 565 l 378 816 l 309 816 l 309 857 l 456 857 l 456 332 l 531 332 l 531 292 l 378 292 l 304 292 l 304 332 "},"⢂":{"x_min":193,"x_max":824,"ha":1017,"o":"m 600 -169 q 631 -89 600 -122 q 712 -57 663 -57 q 791 -89 758 -57 q 824 -169 824 -122 q 791 -249 824 -216 q 712 -282 758 -282 q 631 -249 663 -282 q 600 -169 600 -216 m 193 599 q 224 679 193 646 q 304 712 256 712 q 384 679 351 712 q 417 599 417 646 q 384 519 417 552 q 304 487 351 487 q 224 519 256 487 q 193 599 193 552 "},"▱":{"x_min":4.0625,"x_max":1064.046875,"ha":1068,"o":"m 760 182 l 945 541 l 307 541 l 122 182 l 760 182 m 797 105 l 4 105 l 271 618 l 1064 618 l 797 105 "},"˨":{"x_min":144.859375,"x_max":540,"ha":684,"o":"m 448 0 l 448 209 l 144 209 l 144 301 l 448 301 l 448 928 l 540 928 l 540 0 l 448 0 "},"︍":{"x_min":0,"x_max":0,"ha":0},"⤶":{"x_min":221,"x_max":932,"ha":1164,"o":"m 932 585 q 856 401 932 477 q 672 326 781 326 l 379 326 l 511 96 l 503 96 l 221 377 l 221 384 l 503 663 l 511 663 l 379 436 l 672 436 q 778 479 735 436 q 822 585 822 523 l 822 874 l 932 874 l 932 585 "},"⣟":{"x_min":193,"x_max":824,"ha":1017,"o":"m 600 -169 q 631 -89 600 -122 q 712 -57 663 -57 q 791 -89 758 -57 q 824 -169 824 -122 q 791 -249 824 -216 q 712 -282 758 -282 q 631 -249 663 -282 q 600 -169 600 -216 m 193 -169 q 224 -89 193 -122 q 304 -57 256 -57 q 384 -89 351 -57 q 417 -169 417 -122 q 384 -249 417 -216 q 304 -282 351 -282 q 224 -249 256 -282 q 193 -169 193 -216 m 600 599 q 631 679 600 646 q 712 712 663 712 q 791 679 758 712 q 824 599 824 646 q 791 519 824 552 q 712 487 758 487 q 631 519 663 487 q 600 599 600 552 m 600 983 q 631 1063 600 1030 q 712 1096 663 1096 q 791 1063 758 1096 q 824 983 824 1030 q 791 903 824 936 q 712 871 758 871 q 631 903 663 871 q 600 983 600 936 m 193 215 q 224 295 193 262 q 304 328 256 328 q 384 295 351 328 q 417 215 417 262 q 384 135 417 168 q 304 103 351 103 q 224 135 256 103 q 193 215 193 168 m 193 599 q 224 679 193 646 q 304 712 256 712 q 384 679 351 712 q 417 599 417 646 q 384 519 417 552 q 304 487 351 487 q 224 519 256 487 q 193 599 193 552 m 193 983 q 224 1063 193 1030 q 304 1096 256 1096 q 384 1063 351 1096 q 417 983 417 1030 q 384 903 417 936 q 304 871 351 871 q 224 903 256 871 q 193 983 193 936 "},"⥄":{"x_min":52,"x_max":1112,"ha":1164,"o":"m 582 742 l 953 742 l 822 970 l 829 970 l 1112 690 l 1112 683 l 829 403 l 822 403 l 953 632 l 582 632 l 582 742 m 1085 267 l 1085 157 l 211 157 l 342 -71 l 334 -71 l 52 208 l 52 215 l 334 495 l 342 495 l 211 267 l 1085 267 "},"ḥ":{"x_min":50.640625,"x_max":857,"ha":896,"o":"m 457 -107 q 513 -130 490 -107 q 537 -186 537 -153 q 514 -243 537 -221 q 457 -266 492 -266 q 400 -243 422 -266 q 378 -186 378 -221 q 401 -130 378 -153 q 457 -107 424 -107 m 58 0 l 58 72 l 170 72 l 170 984 l 50 984 l 50 1056 l 295 1056 l 295 593 q 384 703 329 666 q 513 741 440 741 q 688 672 632 741 q 745 458 745 604 l 745 72 l 857 72 l 857 0 l 512 0 l 512 72 l 620 72 l 620 419 q 587 600 620 551 q 472 649 555 649 q 340 585 385 649 q 295 401 295 522 l 295 72 l 404 72 l 404 0 l 58 0 "},"Ἅ":{"x_min":6,"x_max":1073,"ha":1060,"o":"m 335 367 l 706 367 l 520 848 l 335 367 m 49 0 l 49 72 l 137 72 l 498 1013 l 612 1013 l 973 72 l 1073 72 l 1073 0 l 705 0 l 705 72 l 817 72 l 732 294 l 307 294 l 222 72 l 334 72 l 334 0 l 49 0 m 384 1111 l 519 1111 l 289 856 l 209 856 l 384 1111 m 99 1152 q 152 1135 129 1152 q 190 1061 190 1108 q 164 997 190 1023 q 107 972 141 972 q 168 862 114 914 l 118 842 q 113 846 116 843 q 6 1050 6 940 l 6 1061 q 26 1114 6 1091 q 99 1152 52 1152 "},"Ρ":{"x_min":77,"x_max":885,"ha":935,"o":"m 344 516 l 522 516 q 676 570 623 516 q 729 728 729 625 q 676 885 729 831 q 522 940 623 940 l 344 940 l 344 516 m 77 0 l 77 72 l 206 72 l 206 940 l 77 940 l 77 1013 l 555 1013 q 796 935 707 1013 q 885 728 885 858 q 796 520 885 597 q 555 443 707 443 l 344 443 l 344 72 l 500 72 l 500 0 l 77 0 "},"ῌ":{"x_min":77,"x_max":1135,"ha":1212,"o":"m 725 -277 l 676 -288 q 555 -171 555 -315 l 555 -83 l 656 -83 l 656 -180 q 690 -234 656 -243 l 725 -225 l 725 -277 m 77 0 l 77 72 l 206 72 l 206 940 l 77 940 l 77 1013 l 472 1013 l 472 940 l 344 940 l 344 590 l 868 590 l 868 940 l 740 940 l 740 1013 l 1135 1013 l 1135 940 l 1006 940 l 1006 72 l 1135 72 l 1135 0 l 740 0 l 740 72 l 868 72 l 868 507 l 344 507 l 344 72 l 472 72 l 472 0 l 77 0 "},"⡽":{"x_min":193,"x_max":824,"ha":1017,"o":"m 193 -169 q 224 -89 193 -122 q 304 -57 256 -57 q 384 -89 351 -57 q 417 -169 417 -122 q 384 -249 417 -216 q 304 -282 351 -282 q 224 -249 256 -282 q 193 -169 193 -216 m 600 215 q 631 295 600 262 q 712 328 663 328 q 791 295 758 328 q 824 215 824 262 q 791 135 824 168 q 712 103 758 103 q 631 135 663 103 q 600 215 600 168 m 600 599 q 631 679 600 646 q 712 712 663 712 q 791 679 758 712 q 824 599 824 646 q 791 519 824 552 q 712 487 758 487 q 631 519 663 487 q 600 599 600 552 m 600 983 q 631 1063 600 1030 q 712 1096 663 1096 q 791 1063 758 1096 q 824 983 824 1030 q 791 903 824 936 q 712 871 758 871 q 631 903 663 871 q 600 983 600 936 m 193 215 q 224 295 193 262 q 304 328 256 328 q 384 295 351 328 q 417 215 417 262 q 384 135 417 168 q 304 103 351 103 q 224 135 256 103 q 193 215 193 168 m 193 983 q 224 1063 193 1030 q 304 1096 256 1096 q 384 1063 351 1096 q 417 983 417 1030 q 384 903 417 936 q 304 871 351 871 q 224 903 256 871 q 193 983 193 936 "},"⣥":{"x_min":193,"x_max":824,"ha":1017,"o":"m 600 -169 q 631 -89 600 -122 q 712 -57 663 -57 q 791 -89 758 -57 q 824 -169 824 -122 q 791 -249 824 -216 q 712 -282 758 -282 q 631 -249 663 -282 q 600 -169 600 -216 m 193 -169 q 224 -89 193 -122 q 304 -57 256 -57 q 384 -89 351 -57 q 417 -169 417 -122 q 384 -249 417 -216 q 304 -282 351 -282 q 224 -249 256 -282 q 193 -169 193 -216 m 600 215 q 631 295 600 262 q 712 328 663 328 q 791 295 758 328 q 824 215 824 262 q 791 135 824 168 q 712 103 758 103 q 631 135 663 103 q 600 215 600 168 m 193 215 q 224 295 193 262 q 304 328 256 328 q 384 295 351 328 q 417 215 417 262 q 384 135 417 168 q 304 103 351 103 q 224 135 256 103 q 193 215 193 168 m 193 983 q 224 1063 193 1030 q 304 1096 256 1096 q 384 1063 351 1096 q 417 983 417 1030 q 384 903 417 936 q 304 871 351 871 q 224 903 256 871 q 193 983 193 936 "},"┷":{"x_min":-13,"x_max":850,"ha":837,"o":"m -13 278 l -13 511 l 364 511 l 364 1351 l 473 1351 l 473 511 l 850 511 l 850 278 l -13 278 "},"Ṙ":{"x_min":77,"x_max":1079.71875,"ha":1047,"o":"m 496 1280 q 552 1256 528 1280 q 576 1201 576 1232 q 553 1144 576 1167 q 496 1122 530 1122 q 439 1144 462 1122 q 417 1201 417 1167 q 440 1256 417 1232 q 496 1280 464 1280 m 666 503 q 747 459 713 490 q 808 372 781 428 l 956 72 l 1079 72 l 1079 0 l 840 0 l 683 322 q 599 443 637 416 q 495 471 561 471 l 344 471 l 344 72 l 487 72 l 487 0 l 77 0 l 77 72 l 206 72 l 206 940 l 77 940 l 77 1013 l 590 1013 q 818 942 738 1013 q 899 742 899 871 q 840 578 899 638 q 666 503 781 517 m 344 544 l 544 544 q 695 592 646 544 q 744 742 744 640 q 695 892 744 844 q 544 940 646 940 l 344 940 l 344 544 "},"ª":{"x_min":85,"x_max":623,"ha":660,"o":"m 568 827 l 568 570 l 623 570 l 623 513 l 468 513 l 468 567 q 393 516 435 532 q 291 500 350 500 q 140 544 196 500 q 85 664 85 588 q 149 785 85 741 q 328 829 213 829 l 468 829 l 468 859 q 428 948 468 916 q 318 980 389 980 q 224 956 259 980 q 180 886 189 932 l 128 886 l 128 992 q 229 1022 181 1012 q 323 1032 278 1032 q 505 979 443 1032 q 568 827 568 927 m 468 676 l 468 777 l 340 777 q 232 749 269 777 q 196 669 196 722 q 230 585 196 614 q 330 557 264 557 q 430 589 392 557 q 468 676 468 622 m 113 434 l 586 434 l 586 363 l 113 363 l 113 434 "},"Ἓ":{"x_min":4,"x_max":1384,"ha":1495,"o":"m 558 0 l 558 72 l 687 72 l 687 940 l 558 940 l 558 1013 l 1373 1013 l 1373 787 l 1290 787 l 1290 929 l 825 929 l 825 590 l 1156 590 l 1156 717 l 1239 717 l 1239 380 l 1156 380 l 1156 507 l 825 507 l 825 83 l 1301 83 l 1301 225 l 1384 225 l 1384 0 l 558 0 m 352 1110 l 528 855 l 449 855 l 218 1110 l 352 1110 m 97 1152 q 150 1135 127 1152 q 188 1061 188 1108 q 162 997 188 1023 q 105 972 139 972 q 166 863 112 914 l 116 842 q 111 846 114 844 q 4 1050 4 940 l 4 1061 q 24 1114 4 1091 q 97 1152 50 1152 "},"š":{"x_min":78,"x_max":642,"ha":713,"o":"m 78 39 l 78 208 l 151 208 q 199 87 151 127 q 341 47 247 47 q 469 78 425 47 q 514 170 514 110 q 481 247 514 218 q 345 309 449 276 l 255 340 q 120 415 162 370 q 79 529 79 459 q 151 684 79 628 q 352 741 224 741 q 472 726 409 741 q 603 682 535 711 l 603 525 l 530 525 q 483 634 530 595 q 357 673 437 673 q 237 645 278 673 q 197 562 197 618 q 227 489 197 516 q 349 433 258 461 l 448 402 q 596 323 551 370 q 642 199 642 275 q 563 38 642 97 q 347 -20 485 -20 q 211 -5 277 -20 q 78 39 144 9 m 299 856 l 140 1111 l 218 1111 l 356 934 l 494 1111 l 573 1111 l 413 856 l 299 856 "},"┭":{"x_min":-13,"x_max":850.75,"ha":837,"o":"m 364 -419 l 364 278 l -13 278 l -13 511 l 473 511 l 473 453 l 850 453 l 850 336 l 473 336 l 473 -419 l 364 -419 "},"┉":{"x_min":-13,"x_max":851,"ha":837,"o":"m -13 278 l -13 511 l 115 511 l 115 278 l -13 278 m 237 278 l 237 511 l 358 511 l 358 278 l 237 278 m 480 278 l 480 511 l 601 511 l 601 278 l 480 278 m 723 278 l 723 511 l 851 511 l 851 278 l 723 278 "},"ჟ":{"x_min":75,"x_max":719,"ha":807,"o":"m 719 26 q 694 -129 719 -64 q 628 -234 670 -193 q 526 -294 585 -275 q 398 -313 467 -313 q 274 -294 333 -313 q 171 -244 216 -276 q 101 -169 127 -212 q 75 -76 75 -126 q 87 7 75 -27 q 125 65 100 42 q 190 102 151 89 q 282 123 229 116 l 296 79 q 263 44 276 61 q 242 7 250 27 q 232 -36 235 -12 q 229 -91 229 -60 q 236 -149 229 -123 q 262 -192 243 -174 q 314 -219 281 -210 q 398 -229 347 -229 q 479 -214 446 -229 q 534 -172 513 -199 q 565 -106 556 -145 q 575 -17 575 -67 l 575 616 q 517 596 549 604 q 451 583 486 588 q 381 578 417 578 q 312 578 346 578 q 263 578 287 578 q 220 578 240 578 q 280 564 247 573 q 342 536 313 554 q 392 485 372 517 q 412 400 412 453 q 403 333 412 366 q 373 276 395 301 q 316 237 352 252 q 225 223 280 223 q 161 231 191 223 q 102 253 130 239 l 102 429 q 140 381 120 405 q 179 337 160 357 q 216 306 198 318 q 249 294 234 294 q 297 303 278 294 q 327 329 316 313 q 341 365 337 345 q 346 404 346 385 q 335 450 346 429 q 305 488 325 472 q 256 514 285 504 q 188 524 226 524 q 109 506 151 524 l 109 659 q 190 639 145 645 q 282 634 234 634 q 364 637 321 634 q 447 647 406 641 q 525 663 488 654 q 590 684 562 672 q 635 708 619 695 q 652 737 652 722 l 719 737 l 719 26 "},"⁪":{"x_min":0,"x_max":0,"ha":0},"ნ":{"x_min":95,"x_max":739,"ha":814,"o":"m 739 379 q 712 217 739 288 q 640 98 686 146 q 532 25 594 50 q 401 0 471 0 q 276 19 332 0 q 180 78 220 39 q 117 175 139 117 q 95 310 95 233 l 95 908 q 108 1020 95 974 q 150 1096 122 1067 q 218 1140 177 1126 q 313 1154 259 1154 q 380 1145 352 1154 q 431 1127 408 1136 q 473 1108 453 1117 q 512 1100 492 1100 q 556 1105 535 1100 q 596 1119 577 1110 q 634 1141 615 1128 q 673 1168 653 1154 l 689 1148 q 657 1094 675 1122 q 616 1042 638 1066 q 567 1004 594 1019 q 512 989 541 989 q 473 995 491 989 q 438 1012 455 1002 q 406 1035 421 1022 q 375 1057 390 1047 q 344 1074 359 1067 q 312 1081 329 1081 q 273 1073 289 1081 q 245 1049 256 1066 q 230 1005 235 1032 q 225 936 225 977 l 225 610 q 270 657 243 636 q 326 692 297 678 q 382 714 355 706 q 429 722 410 722 q 548 700 492 722 q 647 637 605 679 q 714 530 689 594 q 739 379 739 466 m 584 306 l 584 378 q 543 574 584 513 q 426 636 502 636 q 351 620 387 636 q 288 571 315 605 q 245 483 260 537 q 229 351 229 429 q 240 213 229 265 q 273 134 251 161 q 329 97 296 106 q 408 88 363 88 q 480 102 448 88 q 536 143 513 116 q 571 212 558 171 q 584 306 584 253 "},"Ƕ":{"x_min":77,"x_max":1541,"ha":1603,"o":"m 868 402 l 868 507 l 344 507 l 344 72 l 472 72 l 472 0 l 77 0 l 77 72 l 206 72 l 206 940 l 77 940 l 77 1013 l 472 1013 l 472 940 l 344 940 l 344 590 l 868 590 l 868 940 l 740 940 l 740 1013 l 1135 1013 l 1135 940 l 1006 940 l 1006 416 q 1069 145 1006 222 q 1220 69 1132 69 q 1365 145 1318 69 q 1416 416 1416 225 l 1416 648 l 1298 648 l 1298 721 l 1541 721 l 1541 402 q 1451 75 1541 171 q 1227 -20 1363 -20 q 958 76 1050 -20 q 868 402 868 172 "},"1":{"x_min":169.875,"x_max":687,"ha":884,"o":"m 198 0 l 198 72 l 374 72 l 374 914 l 169 782 l 169 871 l 416 1031 l 510 1031 l 510 72 l 687 72 l 687 0 l 198 0 "},"ҍ":{"x_min":24,"x_max":698,"ha":756,"o":"m 285 72 l 438 72 q 547 109 507 72 q 587 210 587 147 q 546 310 587 272 q 438 348 506 348 l 285 348 l 285 72 m 24 649 l 24 721 l 160 721 l 160 985 l 39 985 l 39 1056 l 285 1056 l 285 721 l 420 721 l 420 649 l 285 649 l 285 423 l 416 423 q 698 209 698 423 q 438 0 698 0 l 40 0 l 40 69 l 160 69 l 160 649 l 24 649 "},"⟻":{"x_min":51.65625,"x_max":1912,"ha":1991,"o":"m 1802 505 l 1802 716 l 1912 716 l 1912 183 l 1802 183 l 1802 395 l 211 395 l 341 166 l 334 166 l 51 446 l 51 453 l 334 733 l 341 733 l 211 505 l 1802 505 "},"ᵈ":{"x_min":43,"x_max":534.265625,"ha":555,"o":"m 459 493 l 534 493 l 534 453 l 380 453 l 380 516 q 321 459 357 477 q 233 442 286 442 q 96 501 149 442 q 43 655 43 560 q 95 808 43 749 q 233 868 148 868 q 321 849 286 868 q 380 793 357 831 l 380 1004 l 306 1004 l 306 1044 l 459 1044 l 459 493 m 380 634 l 380 674 q 349 785 380 747 q 258 824 317 824 q 165 781 196 824 q 135 654 135 739 q 165 528 135 571 q 258 485 196 485 q 349 523 317 485 q 380 634 380 561 "},"ɩ":{"x_min":50.328125,"x_max":415,"ha":545,"o":"m 169 238 l 169 649 l 50 649 l 50 722 l 294 722 l 294 238 q 322 108 294 149 q 415 67 352 67 l 415 0 q 232 63 298 0 q 169 238 169 124 "},"ǒ":{"x_min":69,"x_max":766,"ha":836,"o":"m 417 47 q 569 126 517 47 q 620 360 620 206 q 569 594 620 515 q 417 673 517 673 q 265 594 317 673 q 214 360 214 515 q 266 126 214 206 q 417 47 317 47 m 417 -20 q 164 84 260 -20 q 69 360 69 188 q 164 637 69 533 q 417 741 259 741 q 670 637 575 741 q 766 360 766 533 q 670 84 766 188 q 417 -20 575 -20 m 359 856 l 200 1111 l 279 1111 l 416 934 l 554 1111 l 633 1111 l 473 856 l 359 856 "},"⥯":{"x_min":162.46875,"x_max":1000.546875,"ha":1163,"o":"m 492 -32 l 162 302 l 162 310 l 391 179 l 391 1006 l 501 1006 l 501 -32 l 492 -32 m 670 1038 l 1000 703 l 1000 695 l 772 826 l 772 0 l 662 0 l 662 1038 l 670 1038 "},"⠛":{"x_min":193,"x_max":824,"ha":1017,"o":"m 600 599 q 631 679 600 646 q 712 712 663 712 q 791 679 758 712 q 824 599 824 646 q 791 519 824 552 q 712 487 758 487 q 631 519 663 487 q 600 599 600 552 m 600 984 q 631 1064 600 1031 q 712 1097 663 1097 q 791 1064 758 1097 q 824 984 824 1031 q 791 904 824 937 q 712 872 758 872 q 631 904 663 872 q 600 984 600 937 m 193 599 q 224 679 193 646 q 304 712 256 712 q 384 679 351 712 q 417 599 417 646 q 384 519 417 552 q 304 487 351 487 q 224 519 256 487 q 193 599 193 552 m 193 984 q 224 1064 193 1031 q 304 1097 256 1097 q 384 1064 351 1097 q 417 984 417 1031 q 384 904 417 937 q 304 872 351 872 q 224 904 256 872 q 193 984 193 937 "},"ӡ":{"x_min":69,"x_max":744,"ha":784,"o":"m 357 286 l 293 286 l 293 355 l 517 648 l 160 648 l 160 523 l 88 523 l 88 721 l 678 721 l 678 662 l 427 334 l 481 329 q 675 228 606 310 q 744 16 744 146 q 648 -226 744 -142 q 374 -311 553 -311 q 219 -291 294 -311 q 69 -233 143 -272 l 69 -14 l 148 -14 q 207 -179 148 -123 q 375 -236 267 -236 q 541 -168 480 -236 q 601 15 601 -101 q 539 217 601 148 q 357 286 477 286 "},"ḽ":{"x_min":6.09375,"x_max":438.953125,"ha":444,"o":"m 165 -79 l 279 -79 l 438 -333 l 360 -333 l 222 -157 l 84 -333 l 6 -333 l 165 -79 m 285 72 l 403 72 l 403 0 l 40 0 l 40 72 l 160 72 l 160 984 l 40 984 l 40 1056 l 285 1056 l 285 72 "},"𝟘":{"x_min":65,"x_max":901,"ha":966,"o":"m 372 133 q 483 59 402 59 q 594 133 564 59 q 625 505 625 207 q 594 876 625 801 q 483 952 564 952 q 372 877 402 952 q 342 505 342 803 q 372 133 342 207 m 483 -20 q 172 115 280 -20 q 65 505 65 250 q 172 895 65 759 q 483 1031 280 1031 q 793 895 685 1031 q 901 505 901 759 q 793 115 901 250 q 483 -20 685 -20 m 675 115 q 728 166 705 136 q 819 505 819 279 q 728 844 819 731 q 675 896 705 874 q 707 505 707 801 q 675 115 707 209 m 291 896 q 237 844 261 875 q 147 505 147 731 q 237 166 147 279 q 291 114 261 135 q 260 505 260 209 q 291 896 260 801 "},"ī":{"x_min":-30,"x_max":413,"ha":445,"o":"m -30 1035 l 376 1035 l 376 935 l -30 935 l -30 1035 m 295 72 l 413 72 l 413 0 l 51 0 l 51 72 l 170 72 l 170 649 l 51 649 l 51 722 l 295 722 l 295 72 "},"∐":{"x_min":36,"x_max":1068,"ha":1105,"o":"m 1068 -267 l 36 -267 l 36 -217 l 166 -217 l 166 949 l 36 949 l 36 999 l 440 999 l 440 949 l 310 949 l 310 -217 l 794 -217 l 794 949 l 664 949 l 664 999 l 1068 999 l 1068 949 l 938 949 l 938 -217 l 1068 -217 l 1068 -267 "},"̢":{"x_min":-544,"x_max":-116,"ha":1,"o":"m -544 87 l -419 87 l -419 -71 q -390 -199 -419 -159 q -297 -241 -360 -241 q -212 -211 -241 -241 q -183 -116 -183 -180 l -116 -116 l -116 -264 q -202 -297 -158 -286 q -295 -309 -246 -309 q -477 -245 -411 -309 q -544 -70 -544 -181 l -544 87 "},"⣬":{"x_min":193,"x_max":824,"ha":1017,"o":"m 600 -169 q 631 -89 600 -122 q 712 -57 663 -57 q 791 -89 758 -57 q 824 -169 824 -122 q 791 -249 824 -216 q 712 -282 758 -282 q 631 -249 663 -282 q 600 -169 600 -216 m 193 -169 q 224 -89 193 -122 q 304 -57 256 -57 q 384 -89 351 -57 q 417 -169 417 -122 q 384 -249 417 -216 q 304 -282 351 -282 q 224 -249 256 -282 q 193 -169 193 -216 m 600 215 q 631 295 600 262 q 712 328 663 328 q 791 295 758 328 q 824 215 824 262 q 791 135 824 168 q 712 103 758 103 q 631 135 663 103 q 600 215 600 168 m 600 983 q 631 1063 600 1030 q 712 1096 663 1096 q 791 1063 758 1096 q 824 983 824 1030 q 791 903 824 936 q 712 871 758 871 q 631 903 663 871 q 600 983 600 936 m 193 215 q 224 295 193 262 q 304 328 256 328 q 384 295 351 328 q 417 215 417 262 q 384 135 417 168 q 304 103 351 103 q 224 135 256 103 q 193 215 193 168 "},"ӹ":{"x_min":40.390625,"x_max":1056,"ha":1106,"o":"m 427 1065 q 483 1041 460 1065 q 507 985 507 1018 q 484 928 507 950 q 427 906 462 906 q 371 928 393 906 q 349 985 349 950 q 372 1041 349 1018 q 427 1065 395 1065 m 692 1065 q 747 1041 724 1065 q 771 985 771 1018 q 748 928 771 950 q 692 906 726 906 q 635 928 657 906 q 613 985 613 950 q 636 1041 613 1018 q 692 1065 659 1065 m 285 72 l 438 72 q 547 109 507 72 q 587 210 587 147 q 546 310 587 272 q 438 348 506 348 l 285 348 l 285 72 m 698 209 q 438 0 698 0 l 40 0 l 40 72 l 160 72 l 160 649 l 41 649 l 41 721 l 398 721 l 398 649 l 285 649 l 285 423 l 417 423 q 698 209 698 423 m 944 648 l 944 72 l 1056 72 l 1056 0 l 706 0 l 706 72 l 819 72 l 819 649 l 706 649 l 706 721 l 1056 721 l 1056 648 l 944 648 "},"ℙ":{"x_min":65,"x_max":1010,"ha":1045,"o":"m 65 0 l 65 82 l 195 82 l 195 931 l 65 931 l 65 1013 l 641 1013 q 910 932 810 1013 q 1010 717 1010 852 q 909 500 1010 581 q 641 419 809 419 l 456 419 l 456 82 l 619 82 l 619 0 l 65 0 m 456 501 l 531 501 q 672 559 619 501 q 725 717 725 618 q 672 872 725 814 q 531 931 620 931 l 456 931 l 456 501 m 374 931 l 277 931 l 277 82 l 374 82 l 374 931 m 738 922 q 807 717 807 842 q 737 509 807 591 q 857 564 809 524 q 928 717 928 620 q 858 868 928 812 q 738 922 810 907 "},"ʲ":{"x_min":31,"x_max":296,"ha":367,"o":"m 214 953 q 200 983 200 966 q 214 1014 200 1001 q 248 1027 228 1027 q 281 1014 267 1027 q 296 983 296 1001 q 282 953 296 966 q 248 941 268 941 q 214 953 228 941 m 219 817 l 145 817 l 145 858 l 296 858 l 296 414 q 255 316 296 352 q 142 281 213 281 q 84 287 112 281 q 31 306 56 293 l 31 390 l 72 390 q 89 336 72 353 q 143 319 108 319 q 200 342 181 319 q 219 414 219 365 l 219 817 "},"⤛":{"x_min":79,"x_max":1088.8125,"ha":1163,"o":"m 709 394 l 862 243 l 784 165 l 554 394 l 79 394 l 79 504 l 554 504 l 784 732 l 862 654 l 709 504 l 780 504 l 1011 732 l 1088 654 l 884 452 l 884 445 l 1088 243 l 1011 165 l 780 394 l 709 394 "},"ˣ":{"x_min":31,"x_max":518,"ha":589,"o":"m 283 700 l 380 817 l 318 817 l 318 858 l 498 858 l 498 817 l 435 817 l 310 667 l 456 494 l 518 494 l 518 453 l 302 453 l 302 494 l 361 494 l 259 614 l 157 494 l 218 494 l 218 453 l 40 453 l 40 494 l 102 494 l 231 647 l 88 817 l 31 817 l 31 858 l 241 858 l 241 817 l 184 817 l 283 700 "},"ŏ":{"x_min":69,"x_max":766,"ha":836,"o":"m 209 1090 l 270 1090 q 314 1013 279 1037 q 417 989 349 989 q 520 1013 485 989 q 564 1090 555 1037 l 627 1090 q 572 944 627 993 q 418 896 518 896 q 263 944 317 896 q 209 1090 209 993 m 417 47 q 569 126 517 47 q 620 360 620 206 q 569 594 620 515 q 417 673 517 673 q 265 594 317 673 q 214 360 214 515 q 266 126 214 206 q 417 47 317 47 m 417 -20 q 164 84 260 -20 q 69 360 69 188 q 164 637 69 533 q 417 741 259 741 q 670 637 575 741 q 766 360 766 533 q 670 84 766 188 q 417 -20 575 -20 "},"ý":{"x_min":-4,"x_max":781,"ha":785,"o":"m 300 -132 l 347 -12 l 78 648 l -4 648 l -4 721 l 328 721 l 328 648 l 212 648 l 415 152 l 618 648 l 510 648 l 510 721 l 781 721 l 781 648 l 700 648 l 369 -162 q 294 -277 336 -246 q 178 -309 253 -309 q 112 -303 146 -309 q 45 -287 78 -298 l 45 -150 l 108 -150 q 132 -216 112 -196 q 192 -236 151 -236 q 252 -215 229 -236 q 300 -132 275 -194 m 487 1111 l 622 1111 l 392 856 l 313 856 l 487 1111 "},"╝":{"x_min":-13.546875,"x_max":581,"ha":837,"o":"m -13 453 l -13 570 l 255 570 l 255 1351 l 364 1351 l 364 453 l -13 453 m -13 220 l -13 337 l 472 337 l 472 1352 l 581 1352 l 581 220 l -13 220 "},"∇":{"x_min":34.59375,"x_max":926.375,"ha":970,"o":"m 729 902 l 161 902 l 445 163 l 729 902 m 34 1013 l 926 1013 l 539 0 l 422 0 l 34 1013 "},"꜒":{"x_min":145,"x_max":540.140625,"ha":685,"o":"m 237 0 l 145 0 l 145 928 l 540 928 l 540 836 l 237 836 l 237 0 "},"ⱽ":{"x_min":-9,"x_max":645,"ha":632,"o":"m 153 980 l 341 544 l 529 980 l 458 980 l 458 1021 l 645 1021 l 645 980 l 582 980 l 355 453 l 281 453 l 54 980 l -9 980 l -9 1021 l 224 1021 l 224 980 l 153 980 "},"Ί":{"x_min":10.609375,"x_max":704,"ha":781,"o":"m 576 72 l 704 72 l 704 0 l 309 0 l 309 72 l 438 72 l 438 940 l 309 940 l 309 1013 l 704 1013 l 704 940 l 576 940 l 576 72 m 185 1111 l 320 1111 l 89 856 l 10 856 l 185 1111 "},"ӛ":{"x_min":71,"x_max":753,"ha":822,"o":"m 285 1064 q 341 1040 318 1064 q 365 984 365 1017 q 342 927 365 949 q 285 905 320 905 q 229 927 251 905 q 207 984 207 949 q 230 1040 207 1017 q 285 1064 253 1064 m 550 1064 q 605 1040 582 1064 q 629 984 629 1017 q 606 927 629 949 q 550 905 584 905 q 493 927 515 905 q 471 984 471 949 q 494 1040 471 1017 q 550 1064 517 1064 m 71 374 l 607 374 l 607 379 q 552 599 607 525 q 390 673 497 673 q 255 630 308 673 q 181 502 202 587 l 81 502 q 191 681 111 621 q 403 741 272 741 q 656 636 561 741 q 753 359 753 532 q 658 84 753 188 q 410 -20 563 -20 q 158 81 246 -20 q 71 374 71 181 m 219 302 q 268 111 219 175 q 410 47 317 47 q 546 111 496 47 q 607 302 596 176 l 219 302 "},"⤻":{"x_min":70.421875,"x_max":1087,"ha":1164,"o":"m 934 548 l 680 617 l 685 624 l 1083 624 l 1087 620 l 1087 222 l 1080 216 l 1011 471 q 877 366 950 409 q 717 299 804 323 q 541 276 631 276 q 364 299 450 276 q 204 366 277 323 q 70 471 131 409 l 147 548 q 260 461 199 497 q 393 406 321 426 q 541 386 465 386 q 688 406 617 386 q 821 461 760 426 q 934 548 882 497 "},"╄":{"x_min":-13.8125,"x_max":850,"ha":837,"o":"m 363 -419 l 363 278 l 309 278 l 309 336 l -13 336 l -13 453 l 309 453 l 309 1352 l 526 1352 l 526 511 l 850 511 l 850 278 l 472 278 l 472 -419 l 363 -419 "},"ἒ":{"x_min":68,"x_max":655.875,"ha":745,"o":"m 108 549 q 174 683 108 637 q 373 729 240 729 q 481 718 410 729 q 627 685 551 706 l 627 536 l 554 536 q 497 626 546 596 q 384 657 448 657 q 227 543 227 657 q 400 414 227 414 l 464 414 l 464 343 l 401 343 q 242 301 294 343 q 192 181 192 260 q 227 93 192 127 q 383 38 287 38 q 519 74 462 38 q 582 180 576 110 l 655 180 l 655 22 q 510 -13 584 -1 q 386 -26 440 -26 q 150 27 234 -26 q 68 183 68 81 q 139 327 68 274 q 269 381 187 363 q 177 418 213 394 q 108 549 108 463 m 209 1153 q 281 1115 255 1153 q 302 1061 302 1091 l 302 1050 q 194 846 302 940 q 189 842 191 844 l 139 863 q 200 973 193 915 q 144 998 166 973 q 119 1061 119 1023 q 155 1135 119 1109 q 209 1153 178 1153 m 459 1110 l 636 855 l 557 855 l 326 1110 l 459 1110 "}," ":{"x_min":0,"x_max":0,"ha":347},"⥿":{"x_min":162,"x_max":1002,"ha":1164,"o":"m 1002 319 q 932 150 1002 220 q 764 81 862 81 q 596 150 666 81 q 582 166 588 158 q 567 150 575 158 q 399 81 497 81 q 231 150 301 81 q 162 319 162 220 l 272 319 q 309 228 272 265 q 399 191 346 191 q 489 228 452 191 q 527 319 527 265 l 527 794 l 637 794 l 637 319 q 674 228 637 265 q 764 191 711 191 q 854 228 817 191 q 892 319 892 265 l 1002 319 "},"⢣":{"x_min":193,"x_max":824,"ha":1017,"o":"m 600 -169 q 631 -89 600 -122 q 712 -57 663 -57 q 791 -89 758 -57 q 824 -169 824 -122 q 791 -249 824 -216 q 712 -282 758 -282 q 631 -249 663 -282 q 600 -169 600 -216 m 600 215 q 631 295 600 262 q 712 328 663 328 q 791 295 758 328 q 824 215 824 262 q 791 135 824 168 q 712 103 758 103 q 631 135 663 103 q 600 215 600 168 m 193 599 q 224 679 193 646 q 304 712 256 712 q 384 679 351 712 q 417 599 417 646 q 384 519 417 552 q 304 487 351 487 q 224 519 256 487 q 193 599 193 552 m 193 983 q 224 1063 193 1030 q 304 1096 256 1096 q 384 1063 351 1096 q 417 983 417 1030 q 384 903 417 936 q 304 871 351 871 q 224 903 256 871 q 193 983 193 936 "},"‴":{"x_min":27.125,"x_max":689.015625,"ha":722,"o":"m 434 760 l 551 1013 l 689 1013 l 493 760 l 434 760 m 27 760 l 144 1013 l 282 1013 l 86 760 l 27 760 m 230 760 l 347 1013 l 485 1013 l 289 760 l 230 760 "},"ἑ":{"x_min":68,"x_max":655.875,"ha":745,"o":"m 108 549 q 174 683 108 637 q 373 729 240 729 q 481 718 410 729 q 627 685 551 706 l 627 536 l 554 536 q 497 626 546 596 q 384 657 448 657 q 227 543 227 657 q 401 414 227 414 l 464 414 l 464 343 l 401 343 q 242 301 294 343 q 192 181 192 260 q 227 93 192 127 q 383 38 287 38 q 519 74 462 38 q 582 180 576 110 l 655 180 l 655 22 q 510 -13 584 -1 q 386 -26 440 -26 q 150 27 234 -26 q 68 183 68 81 q 139 327 68 274 q 269 381 187 363 q 177 418 213 394 q 108 549 108 463 m 370 1153 q 423 1136 400 1153 q 461 1061 461 1109 q 435 998 461 1023 q 378 973 412 973 q 439 863 385 915 l 389 843 q 384 847 387 844 q 277 1051 277 941 l 277 1061 q 297 1115 277 1091 q 370 1153 323 1153 "},"ᴝ":{"x_min":157,"x_max":898,"ha":1024,"o":"m 157 426 l 157 659 l 806 659 l 806 777 l 878 777 l 878 534 l 750 534 q 860 444 822 499 q 898 317 898 389 q 829 140 898 196 q 615 84 761 84 l 230 84 l 230 -28 l 157 -28 l 157 209 l 576 209 q 757 241 708 209 q 806 356 806 274 q 742 489 806 443 q 557 534 678 534 l 230 534 l 230 426 l 157 426 "},"Ь":{"x_min":77,"x_max":887,"ha":937,"o":"m 344 72 l 523 72 q 675 124 619 72 q 732 293 732 177 q 676 460 732 407 q 523 513 620 513 l 344 513 l 344 72 m 887 295 q 522 0 887 0 l 77 0 l 77 72 l 206 72 l 206 940 l 77 940 l 77 1013 l 472 1013 l 472 940 l 344 940 l 344 596 l 492 596 q 807 508 727 596 q 887 295 887 420 "},"ƽ":{"x_min":26.921875,"x_max":745,"ha":785,"o":"m 358 356 l 482 341 q 676 240 607 322 q 745 16 745 158 q 649 -226 745 -142 q 375 -311 554 -311 q 220 -291 295 -311 q 70 -233 144 -272 l 70 -14 l 149 -14 q 208 -179 149 -123 q 376 -236 268 -236 q 542 -168 481 -236 q 602 15 602 -100 q 540 218 602 149 q 358 287 478 287 l 147 287 l 147 650 l 26 650 l 26 721 l 673 721 l 673 540 l 602 540 l 602 637 l 272 637 l 272 356 l 358 356 "},"↢":{"x_min":52,"x_max":1089.8125,"ha":1164,"o":"m 781 504 l 1012 732 l 1089 654 l 885 452 l 885 445 l 1089 243 l 1012 165 l 781 394 l 211 394 l 342 165 l 334 165 l 52 445 l 52 452 l 334 732 l 342 732 l 211 504 l 781 504 "},"̅":{"x_min":-694,"x_max":0,"ha":0,"o":"m 0 1049 l 0 995 l -694 995 l -694 1049 l 0 1049 "},"̸":{"x_min":-1068.796875,"x_max":-68.5,"ha":0,"o":"m -1015 -38 l -1068 8 l -122 1051 l -68 1003 l -1015 -38 "},"ᾯ":{"x_min":10,"x_max":1263,"ha":1346,"o":"m 891 -277 l 842 -288 q 721 -171 721 -315 l 721 -83 l 822 -83 l 822 -180 q 856 -234 822 -243 l 891 -225 l 891 -277 m 954 111 l 1183 111 l 1183 203 l 1262 203 l 1262 0 l 860 0 l 860 123 q 1045 276 982 170 q 1108 539 1108 381 q 1015 843 1108 728 q 771 959 922 959 q 527 843 620 959 q 435 539 435 728 q 497 275 435 381 q 680 123 559 170 l 680 0 l 281 0 l 281 203 l 360 203 l 360 111 l 586 111 q 362 289 445 170 q 280 554 280 409 q 318 746 280 657 q 432 904 357 835 q 586 999 499 966 q 771 1032 673 1032 q 955 999 869 1032 q 1109 904 1042 967 q 1223 745 1184 835 q 1263 554 1263 656 q 1180 289 1263 409 q 954 111 1097 170 m 230 1231 l 191 1268 q 162 1289 173 1284 q 138 1295 151 1295 q 92 1268 109 1295 q 76 1190 76 1241 l 10 1190 q 44 1331 10 1281 q 141 1381 79 1381 q 188 1371 167 1381 q 235 1339 210 1362 l 274 1302 q 301 1281 289 1286 q 327 1276 313 1276 q 373 1303 357 1276 q 390 1381 390 1330 l 456 1381 q 421 1240 456 1289 q 324 1190 386 1190 q 277 1199 299 1190 q 230 1231 255 1209 m 237 1152 q 290 1135 267 1152 q 328 1061 328 1108 q 302 997 328 1023 q 246 972 279 972 q 306 863 252 914 l 256 842 q 251 846 254 844 q 144 1050 144 940 l 144 1061 q 164 1114 144 1091 q 237 1152 190 1152 "},"⢈":{"x_min":600,"x_max":824,"ha":1017,"o":"m 600 -169 q 631 -89 600 -122 q 712 -57 663 -57 q 791 -89 758 -57 q 824 -169 824 -122 q 791 -249 824 -216 q 712 -282 758 -282 q 631 -249 663 -282 q 600 -169 600 -216 m 600 983 q 631 1063 600 1030 q 712 1096 663 1096 q 791 1063 758 1096 q 824 983 824 1030 q 791 903 824 936 q 712 871 758 871 q 631 903 663 871 q 600 983 600 936 "},"¤":{"x_min":70.59375,"x_max":816.765625,"ha":884,"o":"m 611 668 l 753 808 l 816 745 l 675 603 q 718 521 704 562 q 732 435 732 479 q 718 348 732 388 q 673 269 704 308 l 814 129 l 748 65 l 609 204 q 530 160 570 174 q 443 146 490 146 q 357 159 399 146 q 273 201 314 173 l 135 62 l 70 126 l 209 266 q 167 350 181 308 q 154 435 154 391 q 168 522 154 482 q 212 602 182 563 l 71 742 l 136 806 l 276 665 q 355 709 314 695 q 443 724 396 724 q 529 710 488 724 q 611 668 570 696 m 626 436 q 573 564 626 512 q 443 617 520 617 q 314 564 367 617 q 261 436 261 512 q 313 305 261 358 q 443 253 366 253 q 572 306 519 253 q 626 436 626 359 "},"p":{"x_min":39.96875,"x_max":819,"ha":889,"o":"m 285 396 l 285 324 q 334 126 285 194 q 479 58 384 58 q 624 134 574 58 q 673 360 673 211 q 624 586 673 510 q 479 663 574 663 q 334 594 384 663 q 285 396 285 525 m 160 649 l 39 649 l 39 722 l 285 722 l 285 608 q 378 708 321 676 q 518 741 434 741 q 734 635 650 741 q 819 360 819 530 q 734 85 819 191 q 518 -20 650 -20 q 378 12 434 -20 q 285 112 321 44 l 285 -216 l 403 -216 l 403 -289 l 40 -289 l 40 -216 l 160 -216 l 160 649 "},"Ἤ":{"x_min":9,"x_max":1533,"ha":1610,"o":"m 475 0 l 475 72 l 604 72 l 604 940 l 475 940 l 475 1013 l 870 1013 l 870 940 l 742 940 l 742 590 l 1266 590 l 1266 940 l 1138 940 l 1138 1013 l 1533 1013 l 1533 940 l 1404 940 l 1404 72 l 1533 72 l 1533 0 l 1138 0 l 1138 72 l 1266 72 l 1266 507 l 742 507 l 742 72 l 870 72 l 870 0 l 475 0 m 99 1152 q 171 1114 145 1152 q 192 1061 192 1091 l 192 1050 q 84 846 192 940 q 80 842 81 843 l 30 862 q 90 972 83 914 q 34 997 57 972 q 9 1061 9 1023 q 45 1135 9 1108 q 99 1152 68 1152 m 347 1111 l 482 1111 l 251 856 l 172 856 l 347 1111 "},"⢺":{"x_min":193,"x_max":824,"ha":1017,"o":"m 600 -169 q 631 -89 600 -122 q 712 -57 663 -57 q 791 -89 758 -57 q 824 -169 824 -122 q 791 -249 824 -216 q 712 -282 758 -282 q 631 -249 663 -282 q 600 -169 600 -216 m 600 215 q 631 295 600 262 q 712 328 663 328 q 791 295 758 328 q 824 215 824 262 q 791 135 824 168 q 712 103 758 103 q 631 135 663 103 q 600 215 600 168 m 600 599 q 631 679 600 646 q 712 712 663 712 q 791 679 758 712 q 824 599 824 646 q 791 519 824 552 q 712 487 758 487 q 631 519 663 487 q 600 599 600 552 m 600 983 q 631 1063 600 1030 q 712 1096 663 1096 q 791 1063 758 1096 q 824 983 824 1030 q 791 903 824 936 q 712 871 758 871 q 631 903 663 871 q 600 983 600 936 m 193 599 q 224 679 193 646 q 304 712 256 712 q 384 679 351 712 q 417 599 417 646 q 384 519 417 552 q 304 487 351 487 q 224 519 256 487 q 193 599 193 552 "},"►":{"x_min":4,"x_max":1063.984375,"ha":1068,"o":"m 4 14 l 4 707 l 1063 361 l 4 14 "},"Ӭ":{"x_min":78.078125,"x_max":979,"ha":1062,"o":"m 363 1278 q 419 1254 396 1278 q 443 1199 443 1230 q 420 1142 443 1165 q 363 1120 397 1120 q 307 1142 330 1120 q 285 1199 285 1165 q 308 1254 285 1230 q 363 1278 331 1278 m 628 1278 q 683 1254 660 1278 q 707 1199 707 1230 q 684 1142 707 1165 q 628 1120 661 1120 q 571 1142 594 1120 q 549 1199 549 1165 q 572 1254 549 1230 q 628 1278 595 1278 m 483 1031 q 842 886 706 1031 q 979 505 979 741 q 837 121 979 263 q 494 -20 695 -20 q 228 53 333 -20 q 78 268 122 126 l 202 268 q 495 53 267 53 q 739 163 659 53 q 820 470 820 273 l 335 470 l 335 553 l 819 553 q 739 849 819 740 q 496 958 660 958 q 283 897 359 958 q 182 710 207 837 l 105 710 l 105 943 q 483 1031 320 1031 "},"῭":{"x_min":114.96875,"x_max":558,"ha":694,"o":"m 248 1384 l 425 1129 l 345 1129 l 114 1384 l 248 1384 m 214 1065 q 270 1041 247 1065 q 294 985 294 1018 q 271 928 294 950 q 214 906 249 906 q 158 928 180 906 q 136 985 136 950 q 159 1041 136 1018 q 214 1065 182 1065 m 479 1065 q 534 1041 511 1065 q 558 985 558 1018 q 535 928 558 950 q 479 906 513 906 q 422 928 444 906 q 400 985 400 950 q 423 1041 400 1018 q 479 1065 446 1065 "},"ђ":{"x_min":29,"x_max":796,"ha":866,"o":"m 29 649 l 29 722 l 169 722 l 169 984 l 49 984 l 49 1056 l 294 1056 l 294 722 l 623 722 l 623 649 l 294 649 l 294 404 q 539 552 364 552 q 726 470 656 552 q 796 217 796 389 q 678 -94 796 33 q 429 -308 560 -223 l 389 -247 q 582 -50 512 -166 q 652 210 652 65 q 621 401 652 343 q 498 460 590 460 q 339 396 384 460 q 294 212 294 333 l 294 72 l 403 72 l 403 0 l 57 0 l 57 72 l 169 72 l 169 649 l 29 649 "},"ϕ":{"x_min":52,"x_max":892,"ha":946,"o":"m 535 50 q 694 126 654 64 q 746 360 746 206 q 695 593 746 515 q 535 670 654 657 l 535 50 m 535 -289 l 410 -289 l 410 -11 q 147 83 228 -11 q 52 360 52 188 q 147 636 52 532 q 410 731 227 731 l 410 1056 l 535 1056 l 535 731 q 797 636 716 731 q 892 360 892 532 q 796 83 892 188 q 535 -11 715 -11 l 535 -289 m 410 50 l 410 670 q 249 593 289 657 q 197 360 197 515 q 249 126 197 206 q 410 50 289 64 "},"y":{"x_min":-4,"x_max":781,"ha":785,"o":"m 300 -132 l 347 -12 l 78 648 l -4 648 l -4 721 l 328 721 l 328 648 l 212 648 l 415 152 l 618 648 l 510 648 l 510 721 l 781 721 l 781 648 l 700 648 l 369 -162 q 294 -277 336 -246 q 178 -309 253 -309 q 112 -303 146 -309 q 45 -287 78 -298 l 45 -150 l 108 -150 q 132 -216 112 -196 q 192 -236 151 -236 q 252 -215 229 -236 q 300 -132 275 -194 "},"ⱨ":{"x_min":50.640625,"x_max":857,"ha":896,"o":"m 58 0 l 58 72 l 170 72 l 170 984 l 50 984 l 50 1056 l 295 1056 l 295 593 q 384 703 329 666 q 513 741 440 741 q 688 672 632 741 q 745 458 745 604 l 745 72 l 857 72 l 857 -192 l 785 -192 l 775 -96 q 696 0 764 0 l 512 0 l 512 72 l 620 72 l 620 419 q 587 600 620 551 q 472 649 555 649 q 340 585 385 649 q 295 401 295 522 l 295 72 l 404 72 l 404 0 l 58 0 "},"‗":{"x_min":0,"x_max":694,"ha":694,"o":"m 694 -274 l 694 -328 l 0 -328 l 0 -274 l 694 -274 m 694 -111 l 694 -165 l 0 -165 l 0 -111 l 694 -111 "},"Ⴌ":{"x_min":75,"x_max":957,"ha":1032,"o":"m 642 1177 q 709 1168 679 1177 q 761 1142 739 1160 q 795 1097 783 1125 q 807 1030 807 1070 l 807 1001 l 870 1001 l 870 928 l 654 928 l 654 1035 q 631 1091 654 1075 q 572 1108 609 1108 l 327 1108 l 327 711 l 612 711 q 725 696 677 711 q 806 651 774 682 q 855 572 839 621 q 871 455 871 524 l 871 69 l 957 69 l 957 0 l 619 0 l 619 69 l 706 69 l 706 481 q 698 548 706 519 q 673 597 691 577 q 628 627 656 617 q 558 638 600 638 l 327 638 l 327 69 l 413 69 l 413 0 l 75 0 l 75 69 l 162 69 l 162 1108 l 75 1108 l 75 1177 l 642 1177 "},"ḓ":{"x_min":69,"x_max":848.359375,"ha":889,"o":"m 328 -79 l 442 -79 l 602 -333 l 523 -333 l 385 -157 l 248 -333 l 169 -333 l 328 -79 m 729 72 l 848 72 l 848 0 l 604 0 l 604 112 q 510 12 567 44 q 370 -20 454 -20 q 153 85 237 -20 q 69 360 69 191 q 153 635 69 530 q 370 741 237 741 q 510 708 454 741 q 604 608 567 676 l 604 984 l 486 984 l 486 1056 l 729 1056 l 729 72 m 604 324 l 604 396 q 554 594 604 525 q 409 663 504 663 q 264 586 313 663 q 214 360 214 510 q 264 134 214 211 q 409 58 313 58 q 554 126 504 58 q 604 324 604 194 "},"⡗":{"x_min":193,"x_max":824,"ha":1017,"o":"m 193 -169 q 224 -89 193 -122 q 304 -57 256 -57 q 384 -89 351 -57 q 417 -169 417 -122 q 384 -249 417 -216 q 304 -282 351 -282 q 224 -249 256 -282 q 193 -169 193 -216 m 600 599 q 631 679 600 646 q 712 712 663 712 q 791 679 758 712 q 824 599 824 646 q 791 519 824 552 q 712 487 758 487 q 631 519 663 487 q 600 599 600 552 m 193 215 q 224 295 193 262 q 304 328 256 328 q 384 295 351 328 q 417 215 417 262 q 384 135 417 168 q 304 103 351 103 q 224 135 256 103 q 193 215 193 168 m 193 599 q 224 679 193 646 q 304 712 256 712 q 384 679 351 712 q 417 599 417 646 q 384 519 417 552 q 304 487 351 487 q 224 519 256 487 q 193 599 193 552 m 193 983 q 224 1063 193 1030 q 304 1096 256 1096 q 384 1063 351 1096 q 417 983 417 1030 q 384 903 417 936 q 304 871 351 871 q 224 903 256 871 q 193 983 193 936 "},"ƅ":{"x_min":40,"x_max":819,"ha":889,"o":"m 285 324 q 334 126 285 194 q 479 58 384 58 q 624 134 574 58 q 673 360 673 211 q 624 586 673 510 q 479 663 574 663 q 334 594 384 663 q 285 396 285 525 l 285 324 m 285 1055 l 285 608 q 378 708 321 676 q 518 741 434 741 q 734 635 650 741 q 819 360 819 530 q 734 85 819 191 q 518 -20 650 -20 q 378 12 434 -20 q 285 112 321 44 l 285 0 l 40 0 l 40 72 l 160 72 l 160 763 l 40 763 l 40 848 l 285 1055 "},"ë":{"x_min":69,"x_max":750,"ha":821,"o":"m 750 347 l 214 347 l 214 341 q 269 121 214 195 q 431 47 324 47 q 566 90 514 47 q 640 218 619 133 l 739 218 q 629 39 710 99 q 418 -20 549 -20 q 164 84 260 -20 q 69 360 69 188 q 163 636 69 531 q 411 741 257 741 q 662 640 574 741 q 750 347 750 539 m 603 419 q 553 609 603 545 q 411 673 504 673 q 275 609 325 673 q 214 419 225 544 l 603 419 m 278 1064 q 334 1040 311 1064 q 358 984 358 1017 q 335 927 358 949 q 278 905 313 905 q 222 927 244 905 q 200 984 200 949 q 223 1040 200 1017 q 278 1064 246 1064 m 543 1064 q 598 1040 575 1064 q 622 984 622 1017 q 599 927 622 949 q 543 905 577 905 q 486 927 508 905 q 464 984 464 949 q 487 1040 464 1017 q 543 1064 510 1064 "},"б":{"x_min":68,"x_max":765,"ha":836,"o":"m 68 360 l 68 480 q 68 584 68 552 q 75 673 68 616 q 105 777 83 730 q 274 954 164 899 q 429 994 336 984 q 551 1013 523 1003 q 610 1045 579 1022 q 645 1079 640 1067 l 717 1079 q 654 950 707 1014 q 553 878 602 885 q 280 825 323 842 q 168 735 236 808 q 124 560 124 687 q 223 687 161 632 q 416 741 284 741 q 669 637 574 741 q 765 360 765 533 q 668 84 765 188 q 412 -20 571 -20 q 160 79 252 -20 q 68 360 68 178 m 416 673 q 213 360 213 673 q 265 126 213 206 q 416 47 316 47 q 619 360 619 47 q 416 673 619 673 "},"Ẏ":{"x_min":-16,"x_max":929,"ha":917,"o":"m 455 1280 q 511 1256 487 1280 q 535 1201 535 1232 q 512 1144 535 1167 q 455 1122 489 1122 q 398 1144 421 1122 q 376 1201 376 1167 q 399 1256 376 1232 q 455 1280 423 1280 m 262 0 l 262 72 l 392 72 l 392 436 l 78 940 l -16 940 l -16 1013 l 360 1013 l 360 940 l 242 940 l 495 530 l 748 940 l 635 940 l 635 1013 l 929 1013 l 929 940 l 833 940 l 529 449 l 529 72 l 658 72 l 658 0 l 262 0 "},"⇈":{"x_min":-6.546875,"x_max":1170.53125,"ha":1164,"o":"m 832 0 l 832 873 l 603 742 l 603 750 l 883 1033 l 890 1033 l 1170 750 l 1170 742 l 942 873 l 942 0 l 832 0 m 222 0 l 222 873 l -6 742 l -6 750 l 273 1033 l 280 1033 l 560 750 l 560 742 l 332 873 l 332 0 l 222 0 "},"ṝ":{"x_min":50.640625,"x_max":665,"ha":665,"o":"m 223 -107 q 279 -130 256 -107 q 303 -186 303 -153 q 280 -243 303 -221 q 223 -266 258 -266 q 166 -243 188 -266 q 144 -186 144 -221 q 167 -130 144 -153 q 223 -107 190 -107 m 665 722 l 665 542 l 591 542 q 564 622 591 595 q 486 649 537 649 q 344 585 393 649 q 295 401 295 521 l 295 72 l 440 72 l 440 0 l 58 0 l 58 72 l 170 72 l 170 650 l 50 650 l 50 721 l 295 721 l 295 593 q 389 704 332 668 q 530 741 447 741 q 594 736 560 741 q 665 722 627 731 m 181 1035 l 587 1035 l 587 935 l 181 935 l 181 1035 "},"ӌ":{"x_min":47,"x_max":852,"ha":925,"o":"m 852 0 l 662 0 q 583 -96 594 0 l 572 -192 l 502 -192 l 502 72 l 615 72 l 615 305 l 284 305 q 186 341 227 305 q 159 418 159 366 l 159 649 l 47 649 l 47 721 l 397 721 l 397 649 l 284 649 l 284 521 q 297 412 284 443 q 351 389 308 389 l 615 389 l 615 649 l 502 649 l 502 721 l 852 721 l 852 649 l 740 649 l 740 72 l 852 72 l 852 0 "},"☻":{"x_min":115,"x_max":1130,"ha":1245,"o":"m 115 506 q 263 866 115 717 q 622 1015 412 1015 q 981 866 833 1015 q 1130 506 1130 717 q 981 147 1130 295 q 622 0 833 0 q 263 147 412 0 q 115 506 115 295 m 383 502 l 337 502 q 618 212 337 212 q 908 504 908 212 l 860 504 q 622 293 795 293 q 383 502 467 293 m 915 698 q 826 795 915 795 q 728 695 728 795 q 819 602 728 602 q 915 698 915 602 m 520 700 q 430 795 520 795 q 332 695 332 795 q 424 602 332 602 q 520 700 520 602 "},"‐":{"x_min":61,"x_max":408,"ha":469,"o":"m 61 426 l 408 426 l 408 320 l 61 320 l 61 426 "},"":{"x_min":73,"x_max":834,"ha":915,"o":"m 834 320 q 805 175 834 239 q 726 66 776 111 q 609 -2 676 21 q 465 -27 541 -27 q 374 -18 421 -27 q 285 7 328 -9 q 203 49 241 24 q 135 107 164 74 q 89 179 106 139 q 73 264 73 218 q 90 352 73 311 q 136 426 107 394 q 204 482 166 459 q 284 514 242 505 l 316 449 q 282 414 295 433 q 262 372 269 395 q 255 322 255 349 q 255 263 255 295 q 271 172 255 208 q 317 116 288 137 q 384 86 346 94 q 466 78 423 78 q 545 88 510 78 q 604 128 580 99 q 641 208 628 157 q 654 338 654 258 q 635 450 654 404 q 586 525 616 496 q 518 566 556 553 q 441 579 480 579 l 416 579 l 416 681 l 447 681 q 504 691 474 681 q 562 726 535 701 q 605 793 588 750 q 623 899 623 835 q 580 1025 623 978 q 450 1073 537 1073 q 373 1069 411 1073 q 304 1051 334 1066 q 254 1004 273 1035 q 236 917 236 973 q 245 893 236 902 q 269 880 254 884 q 302 876 283 876 q 337 876 320 876 l 303 721 q 237 739 269 724 q 181 779 205 754 q 142 837 157 804 q 128 910 128 870 q 153 1027 128 977 q 223 1111 179 1077 q 327 1161 268 1144 q 453 1178 386 1178 q 533 1171 492 1178 q 612 1150 574 1164 q 684 1114 650 1136 q 742 1063 717 1093 q 782 995 767 1033 q 797 910 797 957 q 777 801 797 846 q 727 723 758 755 q 659 671 697 691 q 584 639 620 651 q 679 603 634 625 q 758 545 724 582 q 813 454 793 509 q 834 320 834 399 "},"ⅷ":{"x_min":-4,"x_max":2085,"ha":2117,"o":"m 920 945 q 942 999 920 976 q 997 1023 965 1023 q 1051 999 1028 1023 q 1074 945 1074 976 q 1051 891 1074 913 q 997 869 1029 869 q 942 891 965 869 q 920 945 920 913 m 1079 72 l 1197 72 l 1197 0 l 835 0 l 835 72 l 954 72 l 954 649 l 835 649 l 835 722 l 1079 722 l 1079 72 m 1364 945 q 1386 999 1364 976 q 1441 1023 1409 1023 q 1495 999 1472 1023 q 1518 945 1518 976 q 1495 891 1518 913 q 1441 869 1473 869 q 1386 891 1409 869 q 1364 945 1364 913 m 1523 72 l 1641 72 l 1641 0 l 1279 0 l 1279 72 l 1398 72 l 1398 649 l 1279 649 l 1279 722 l 1523 722 l 1523 72 m 1808 945 q 1830 999 1808 976 q 1885 1023 1853 1023 q 1939 999 1916 1023 q 1962 945 1962 976 q 1939 891 1962 913 q 1885 869 1917 869 q 1830 891 1853 869 q 1808 945 1808 913 m 1968 72 l 2085 72 l 2085 0 l 1723 0 l 1723 72 l 1843 72 l 1843 649 l 1723 649 l 1723 722 l 1968 722 l 1968 72 m 343 0 l 78 649 l -4 649 l -4 722 l 328 722 l 328 649 l 212 649 l 415 152 l 618 649 l 510 649 l 510 722 l 781 722 l 781 649 l 700 649 l 434 0 l 343 0 "},"⥩":{"x_min":47,"x_max":1116,"ha":1163,"o":"m 47 360 l 47 369 l 1084 369 l 1084 259 l 258 259 l 388 30 l 381 30 l 47 360 m 834 407 l 904 530 l 79 530 l 79 640 l 1116 640 l 1116 631 l 888 407 l 834 407 "},"ʋ":{"x_min":50.328125,"x_max":776,"ha":845,"o":"m 474 671 l 550 671 q 714 540 654 627 q 776 345 776 452 q 747 205 776 270 q 663 88 717 137 q 550 20 614 43 q 414 -3 487 -3 q 232 62 303 -3 q 169 237 169 119 l 169 648 l 50 648 l 50 721 l 294 721 l 294 237 q 322 108 294 148 q 414 66 351 66 q 575 155 499 66 q 637 356 637 227 q 595 530 637 460 q 474 631 554 599 l 474 671 "},"┼":{"x_min":-13,"x_max":850,"ha":837,"o":"m 473 337 l 473 -419 l 364 -419 l 364 337 l -13 337 l -13 454 l 364 454 l 364 1352 l 473 1352 l 473 454 l 850 454 l 850 337 l 473 337 "},"ц":{"x_min":50,"x_max":855,"ha":893,"o":"m 695 0 l 50 0 l 50 71 l 162 71 l 162 649 l 50 649 l 50 721 l 400 721 l 400 649 l 287 649 l 287 83 l 618 83 l 618 649 l 505 649 l 505 721 l 855 721 l 855 649 l 743 649 l 743 71 l 855 71 l 855 -192 l 784 -192 l 774 -96 q 695 0 763 0 "},"ⴒ":{"x_min":81,"x_max":795.640625,"ha":896,"o":"m 632 544 q 588 642 652 642 l 351 616 l 232 58 l 470 87 q 557 194 543 100 l 632 544 m 700 190 q 552 36 663 48 l 215 0 l 215 -103 q 348 -217 215 -217 l 510 -217 l 510 -305 l 356 -305 q 81 -110 81 -305 l 81 17 l 209 621 l 129 621 l 129 673 l 219 673 l 227 710 l 370 710 l 361 673 l 660 710 q 790 619 821 727 l 700 190 "},"⡐":{"x_min":193,"x_max":824,"ha":1017,"o":"m 193 -169 q 224 -89 193 -122 q 304 -57 256 -57 q 384 -89 351 -57 q 417 -169 417 -122 q 384 -249 417 -216 q 304 -282 351 -282 q 224 -249 256 -282 q 193 -169 193 -216 m 600 599 q 631 679 600 646 q 712 712 663 712 q 791 679 758 712 q 824 599 824 646 q 791 519 824 552 q 712 487 758 487 q 631 519 663 487 q 600 599 600 552 "},"w":{"x_min":22,"x_max":1170,"ha":1188,"o":"m 666 722 l 850 158 l 1013 649 l 909 649 l 909 722 l 1170 722 l 1170 649 l 1090 649 l 875 0 l 771 0 l 594 539 l 415 0 l 316 0 l 102 649 l 22 649 l 22 722 l 348 722 l 348 649 l 231 649 l 392 158 l 578 722 l 666 722 "},"о":{"x_min":69,"x_max":766,"ha":836,"o":"m 417 47 q 569 126 517 47 q 620 360 620 206 q 569 594 620 515 q 417 673 517 673 q 265 594 317 673 q 214 360 214 515 q 266 126 214 206 q 417 47 317 47 m 417 -20 q 164 84 260 -20 q 69 360 69 188 q 164 637 69 533 q 417 741 259 741 q 670 637 575 741 q 766 360 766 533 q 670 84 766 188 q 417 -20 575 -20 "},"⊥":{"x_min":147,"x_max":1159,"ha":1306,"o":"m 147 0 l 147 110 l 598 110 l 598 956 l 708 956 l 708 110 l 1159 110 l 1159 0 l 147 0 "},"Д":{"x_min":69,"x_max":1058,"ha":1129,"o":"m 381 929 l 381 732 q 350 202 381 310 q 320 87 320 95 q 324 77 320 82 q 351 72 329 72 l 764 72 l 764 929 l 381 929 m 292 940 l 169 940 l 169 1013 l 1031 1013 l 1031 940 l 902 940 l 902 72 l 1058 72 l 1058 -218 l 987 -218 q 978 -112 987 -216 q 894 0 969 -8 l 233 0 q 153 -108 165 0 q 141 -217 141 -216 l 69 -217 l 69 72 l 135 72 q 265 216 239 72 q 292 509 292 360 q 292 732 292 659 l 292 940 "},"⊄":{"x_min":147,"x_max":1016,"ha":1163,"o":"m 582 109 l 1016 109 l 1016 0 l 582 0 q 516 4 548 0 l 447 -183 l 344 -145 l 410 35 q 364 58 386 45 q 205 217 263 116 q 147 435 147 317 q 205 654 147 553 q 364 812 263 754 q 582 871 464 871 l 713 871 l 780 1054 l 883 1016 l 831 871 l 1016 871 l 1016 762 l 791 762 l 554 110 q 582 109 568 109 m 447 138 l 674 762 l 582 762 q 419 717 494 762 q 300 598 344 673 q 256 435 256 523 q 300 272 256 347 q 419 153 344 195 q 447 138 433 144 "},"↙":{"x_min":205,"x_max":976.078125,"ha":1164,"o":"m 898 844 l 976 766 l 358 149 l 612 79 l 607 73 l 209 73 l 205 77 l 205 475 l 211 480 l 280 226 l 898 844 "},"⠦":{"x_min":193,"x_max":824,"ha":1017,"o":"m 600 215 q 631 295 600 262 q 712 328 663 328 q 791 295 758 328 q 824 215 824 262 q 791 135 824 168 q 712 103 758 103 q 631 135 663 103 q 600 215 600 168 m 193 215 q 224 295 193 262 q 304 328 256 328 q 384 295 351 328 q 417 215 417 262 q 384 135 417 168 q 304 103 351 103 q 224 135 256 103 q 193 215 193 168 m 193 599 q 224 679 193 646 q 304 712 256 712 q 384 679 351 712 q 417 599 417 646 q 384 519 417 552 q 304 487 351 487 q 224 519 256 487 q 193 599 193 552 "},"Ӂ":{"x_min":16,"x_max":1544,"ha":1560,"o":"m 582 1289 l 645 1289 q 694 1234 658 1252 q 792 1216 730 1216 q 891 1234 855 1216 q 939 1289 927 1252 l 1003 1289 q 935 1168 990 1210 q 792 1126 881 1126 q 649 1167 703 1126 q 582 1289 595 1209 m 582 1013 l 977 1013 l 977 940 l 849 940 l 849 510 l 1264 940 l 1155 940 l 1155 1013 l 1491 1013 l 1491 940 l 1377 940 l 1052 609 l 1430 72 l 1544 72 l 1544 0 l 1149 0 l 1149 72 l 1261 72 l 957 511 l 849 400 l 849 72 l 977 72 l 977 0 l 582 0 l 582 72 l 711 72 l 711 400 l 601 511 l 298 72 l 411 72 l 411 0 l 16 0 l 16 72 l 129 72 l 506 609 l 182 940 l 69 940 l 69 1013 l 405 1013 l 405 940 l 295 940 l 711 510 l 711 940 l 582 940 l 582 1013 "},"Ḁ":{"x_min":-8,"x_max":1017,"ha":1004,"o":"m 278 368 l 650 368 l 464 849 l 278 368 m -8 0 l -8 72 l 80 72 l 441 1014 l 555 1014 l 917 72 l 1017 72 l 1017 0 l 649 0 l 649 72 l 761 72 l 676 295 l 250 295 l 165 72 l 277 72 l 277 0 l -8 0 m 563 -188 q 544 -144 563 -162 q 500 -126 526 -126 q 454 -144 472 -126 q 437 -188 437 -162 q 454 -233 437 -215 q 500 -252 472 -252 q 544 -233 526 -252 q 563 -188 563 -215 m 645 -189 q 602 -292 645 -250 q 500 -335 560 -335 q 397 -292 439 -335 q 355 -189 355 -250 q 397 -87 355 -129 q 500 -45 439 -45 q 602 -87 560 -45 q 645 -189 645 -129 "},"◜":{"x_min":4,"x_max":534,"ha":538,"o":"m 4 361 q 269 819 4 666 q 534 896 401 896 l 534 816 q 309 750 421 816 q 83 361 83 620 l 4 361 "},"◎":{"x_min":76,"x_max":1136,"ha":1212,"o":"m 528 495 q 451 361 451 450 q 528 227 451 272 q 605 205 567 205 q 683 227 645 205 q 761 361 761 272 q 683 495 761 450 q 605 518 645 518 q 528 495 567 518 m 487 155 q 368 361 368 223 q 487 567 368 499 q 605 602 546 602 q 724 567 665 602 q 844 361 844 499 q 724 155 844 223 q 605 121 665 121 q 487 155 546 121 m 381 751 q 155 361 155 621 q 381 -28 155 101 q 605 -94 493 -94 q 830 -28 718 -94 q 1057 361 1057 101 q 830 751 1057 621 q 605 817 718 817 q 381 751 493 817 m 341 -97 q 76 361 76 56 q 341 820 76 666 q 605 897 473 897 q 870 820 738 897 q 1136 361 1136 666 q 870 -97 1136 56 q 605 -174 738 -174 q 341 -97 473 -174 "},"Ĵ":{"x_min":-117,"x_max":497.0625,"ha":557,"o":"m 220 1288 l 340 1288 l 497 1110 l 418 1110 l 280 1218 l 142 1110 l 64 1110 l 220 1288 m -117 -242 l -117 -83 l -39 -83 q -9 -183 -39 -150 q 80 -216 20 -216 q 193 -165 161 -216 q 226 33 226 -114 l 226 940 l 69 940 l 69 1013 l 493 1013 l 493 940 l 364 940 l 364 28 q 296 -214 364 -139 q 80 -289 229 -289 q -17 -277 32 -289 q -117 -242 -67 -265 "},"Ҕ":{"x_min":77,"x_max":935,"ha":1012,"o":"m 344 306 l 344 72 l 506 72 l 506 0 l 77 0 l 77 72 l 206 72 l 206 940 l 77 940 l 77 1013 l 906 1013 l 906 787 l 823 787 l 823 929 l 344 929 l 344 484 q 556 604 382 579 q 860 521 752 634 q 935 313 935 444 l 935 15 q 867 -226 935 -151 q 653 -301 800 -301 q 555 -289 605 -301 q 456 -254 505 -277 l 456 -95 l 534 -95 q 563 -195 534 -162 q 653 -228 593 -228 q 766 -177 734 -228 q 799 21 799 -126 l 799 314 q 746 472 799 436 q 538 511 664 527 q 401 439 462 501 q 344 306 344 381 "},"⥥":{"x_min":162.46875,"x_max":1000.546875,"ha":1163,"o":"m 670 -32 l 662 -32 l 662 1006 l 772 1006 l 772 179 l 1000 310 l 1000 302 l 670 -32 m 492 -32 l 162 302 l 162 310 l 391 179 l 391 1006 l 501 1006 l 501 -32 l 492 -32 "},"г":{"x_min":39.578125,"x_max":667,"ha":727,"o":"m 667 721 l 667 524 l 595 524 l 595 637 l 284 637 l 284 72 l 381 72 l 381 0 l 47 0 l 47 72 l 159 72 l 159 649 l 39 649 l 39 721 l 667 721 "},"⡦":{"x_min":193,"x_max":824,"ha":1017,"o":"m 193 -169 q 224 -89 193 -122 q 304 -57 256 -57 q 384 -89 351 -57 q 417 -169 417 -122 q 384 -249 417 -216 q 304 -282 351 -282 q 224 -249 256 -282 q 193 -169 193 -216 m 600 215 q 631 295 600 262 q 712 328 663 328 q 791 295 758 328 q 824 215 824 262 q 791 135 824 168 q 712 103 758 103 q 631 135 663 103 q 600 215 600 168 m 193 215 q 224 295 193 262 q 304 328 256 328 q 384 295 351 328 q 417 215 417 262 q 384 135 417 168 q 304 103 351 103 q 224 135 256 103 q 193 215 193 168 m 193 599 q 224 679 193 646 q 304 712 256 712 q 384 679 351 712 q 417 599 417 646 q 384 519 417 552 q 304 487 351 487 q 224 519 256 487 q 193 599 193 552 "},"Ŀ":{"x_min":76.96875,"x_max":889,"ha":922,"o":"m 677 573 q 703 637 677 611 q 767 664 729 664 q 831 637 805 664 q 858 573 858 610 q 831 509 858 535 q 767 483 805 483 q 703 508 729 483 q 677 573 677 534 m 76 0 l 76 72 l 206 72 l 206 940 l 77 940 l 77 1013 l 472 1013 l 472 940 l 344 940 l 344 83 l 806 83 l 806 253 l 889 253 l 889 0 l 76 0 "},"ᾙ":{"x_min":6,"x_max":1301,"ha":1378,"o":"m 891 -277 l 842 -288 q 721 -171 721 -315 l 721 -83 l 822 -83 l 822 -180 q 856 -234 822 -243 l 891 -225 l 891 -277 m 244 0 l 244 72 l 372 72 l 372 940 l 244 940 l 244 1013 l 639 1013 l 639 940 l 510 940 l 510 590 l 1035 590 l 1035 940 l 906 940 l 906 1013 l 1301 1013 l 1301 940 l 1173 940 l 1173 72 l 1301 72 l 1301 0 l 906 0 l 906 72 l 1035 72 l 1035 507 l 510 507 l 510 72 l 639 72 l 639 0 l 244 0 m 99 1152 q 152 1135 129 1152 q 190 1061 190 1108 q 164 997 190 1023 q 107 972 141 972 q 168 862 114 914 l 118 842 q 113 846 116 843 q 6 1050 6 940 l 6 1061 q 26 1114 6 1090 q 99 1152 52 1152 "},"⡳":{"x_min":193,"x_max":824,"ha":1017,"o":"m 193 -169 q 224 -89 193 -122 q 304 -57 256 -57 q 384 -89 351 -57 q 417 -169 417 -122 q 384 -249 417 -216 q 304 -282 351 -282 q 224 -249 256 -282 q 193 -169 193 -216 m 600 215 q 631 295 600 262 q 712 328 663 328 q 791 295 758 328 q 824 215 824 262 q 791 135 824 168 q 712 103 758 103 q 631 135 663 103 q 600 215 600 168 m 600 599 q 631 679 600 646 q 712 712 663 712 q 791 679 758 712 q 824 599 824 646 q 791 519 824 552 q 712 487 758 487 q 631 519 663 487 q 600 599 600 552 m 193 599 q 224 679 193 646 q 304 712 256 712 q 384 679 351 712 q 417 599 417 646 q 384 519 417 552 q 304 487 351 487 q 224 519 256 487 q 193 599 193 552 m 193 983 q 224 1063 193 1030 q 304 1096 256 1096 q 384 1063 351 1096 q 417 983 417 1030 q 384 903 417 936 q 304 871 351 871 q 224 903 256 871 q 193 983 193 936 "},"∦":{"x_min":120.515625,"x_max":760.484375,"ha":881,"o":"m 267 411 l 267 1149 l 377 1149 l 377 521 l 504 648 l 504 1149 l 614 1149 l 614 758 l 682 827 l 760 749 l 614 602 l 614 -136 l 504 -136 l 504 492 l 377 364 l 377 -136 l 267 -136 l 267 255 l 198 186 l 120 264 l 267 411 "},"ʟ":{"x_min":57,"x_max":719,"ha":897,"o":"m 57 0 l 57 72 l 186 72 l 186 649 l 57 649 l 57 722 l 452 722 l 452 649 l 324 649 l 324 83 l 636 83 l 636 253 l 719 253 l 719 0 l 57 0 "},"Ǟ":{"x_min":-8,"x_max":1017,"ha":1004,"o":"m 298 1503 l 704 1503 l 704 1403 l 298 1403 l 298 1503 m 278 367 l 650 367 l 463 848 l 278 367 m -8 0 l -8 72 l 80 72 l 441 1013 l 555 1013 l 917 72 l 1017 72 l 1017 0 l 649 0 l 649 72 l 760 72 l 676 294 l 250 294 l 165 72 l 277 72 l 277 0 l -8 0 m 368 1278 q 424 1254 401 1278 q 448 1199 448 1230 q 425 1142 448 1165 q 368 1120 402 1120 q 312 1142 335 1120 q 290 1199 290 1165 q 313 1254 290 1230 q 368 1278 336 1278 m 633 1278 q 688 1254 665 1278 q 712 1199 712 1230 q 689 1142 712 1165 q 633 1120 666 1120 q 576 1142 599 1120 q 554 1199 554 1165 q 577 1254 554 1230 q 633 1278 600 1278 "},"Җ":{"x_min":16,"x_max":1544,"ha":1560,"o":"m 16 0 l 16 72 l 129 72 l 506 609 l 182 940 l 69 940 l 69 1013 l 405 1013 l 405 940 l 295 940 l 711 510 l 711 940 l 582 940 l 582 1013 l 977 1013 l 977 940 l 849 940 l 849 510 l 1264 940 l 1155 940 l 1155 1013 l 1491 1013 l 1491 940 l 1377 940 l 1052 609 l 1430 72 l 1544 72 l 1544 -218 l 1472 -218 q 1459 -107 1472 -215 q 1379 0 1447 0 l 1149 0 l 1149 72 l 1261 72 l 957 511 l 849 400 l 849 72 l 977 72 l 977 0 l 582 0 l 582 72 l 711 72 l 711 400 l 601 511 l 298 72 l 411 72 l 411 0 l 16 0 "},"€":{"x_min":-5.703125,"x_max":770.953125,"ha":884,"o":"m 770 268 q 663 54 741 128 q 467 -20 585 -20 q 247 83 339 -20 q 123 365 154 186 l -5 365 l 24 436 l 115 436 q 115 462 115 446 q 115 504 115 495 q 115 544 115 527 q 116 576 115 560 l -5 576 l 24 647 l 123 647 q 246 928 154 826 q 467 1031 338 1031 q 602 1010 534 1031 q 754 942 669 989 l 754 710 l 682 710 q 616 898 668 832 q 481 964 564 964 q 333 883 389 964 q 263 647 277 802 l 605 647 l 573 576 l 258 576 q 258 550 258 566 q 258 505 258 516 q 258 475 258 498 q 258 436 258 452 l 512 436 l 480 365 l 263 365 q 334 128 279 209 q 481 47 390 47 q 611 103 560 47 q 680 268 663 160 l 770 268 "},"⤍":{"x_min":79,"x_max":1112,"ha":1164,"o":"m 79 394 l 79 504 l 504 504 l 504 394 l 79 394 m 592 394 l 592 504 l 952 504 l 821 732 l 829 732 l 1112 452 l 1112 445 l 829 165 l 821 165 l 952 394 l 592 394 "},"Ἀ":{"x_min":-8,"x_max":1017,"ha":1004,"o":"m 278 367 l 650 367 l 464 848 l 278 367 m -8 0 l -8 72 l 81 72 l 442 1013 l 556 1013 l 917 72 l 1017 72 l 1017 0 l 649 0 l 649 72 l 761 72 l 676 294 l 250 294 l 166 72 l 277 72 l 277 0 l -8 0 m 267 1152 q 339 1114 313 1152 q 360 1061 360 1090 l 360 1050 q 252 846 360 940 q 247 842 249 843 l 197 862 q 258 972 251 914 q 202 997 224 972 q 177 1061 177 1023 q 213 1135 177 1108 q 267 1152 236 1152 "},"С":{"x_min":78,"x_max":978.984375,"ha":1062,"o":"m 978 268 q 828 53 934 126 q 562 -20 723 -20 q 378 13 463 -20 q 227 113 293 47 q 114 286 151 189 q 78 505 78 383 q 214 886 78 741 q 573 1031 350 1031 q 749 1009 656 1031 q 951 943 843 987 l 951 710 l 874 710 q 773 897 849 837 q 561 958 698 958 q 316 843 399 958 q 233 505 233 728 q 316 167 233 282 q 561 53 399 53 q 748 106 675 53 q 854 268 821 160 l 978 268 "},"⨍":{"x_min":32,"x_max":690,"ha":723,"o":"m 211 -178 q 288 288 288 -178 l 288 377 l 119 377 l 119 492 l 304 492 q 360 901 304 770 q 565 1052 426 1052 q 655 1023 620 1052 q 690 950 690 994 q 668 892 690 914 q 609 871 646 871 q 561 884 580 871 q 534 920 542 897 q 527 955 530 931 q 513 980 524 980 q 436 559 436 980 l 436 492 l 609 492 l 609 377 l 421 377 q 421 353 421 364 q 356 -111 421 28 q 155 -252 290 -252 q 66 -223 101 -252 q 32 -151 32 -195 q 54 -92 32 -113 q 119 -70 77 -70 q 157 -80 141 -70 q 184 -109 173 -90 q 194 -149 190 -121 q 211 -178 198 -178 "},"𝟜":{"x_min":56.5,"x_max":908.609375,"ha":966,"o":"m 885 0 l 328 0 l 328 82 l 479 82 l 479 266 l 56 266 l 56 344 l 480 1031 l 735 1031 l 735 354 l 908 354 l 908 266 l 735 266 l 735 82 l 885 82 l 885 0 m 479 354 l 479 845 l 177 354 l 479 354 m 561 82 l 653 82 l 653 949 l 561 949 l 561 82 "},"└":{"x_min":363,"x_max":849.75,"ha":836,"o":"m 363 337 l 363 1352 l 472 1352 l 472 454 l 849 454 l 849 337 l 363 337 "},"◓":{"x_min":76,"x_max":1136,"ha":1212,"o":"m 146 94 q 76 359 76 217 q 146 624 76 501 q 340 818 217 747 q 606 890 463 890 q 871 818 748 890 q 1065 624 994 747 q 1136 359 1136 501 q 1065 94 1136 217 q 871 -99 994 -28 q 606 -171 748 -171 q 340 -99 463 -171 q 146 94 217 -28 m 1057 361 q 830 750 1057 620 q 605 816 719 816 q 381 750 493 816 q 155 361 155 620 l 1057 361 "},"Ӓ":{"x_min":16,"x_max":1041,"ha":1052,"o":"m 302 367 l 674 367 l 488 848 l 302 367 m 16 0 l 16 72 l 104 72 l 465 1013 l 579 1013 l 941 72 l 1041 72 l 1041 0 l 673 0 l 673 72 l 784 72 l 700 294 l 274 294 l 189 72 l 301 72 l 301 0 l 16 0 m 409 1278 q 465 1254 442 1278 q 489 1199 489 1230 q 466 1142 489 1165 q 409 1120 443 1120 q 353 1142 376 1120 q 331 1199 331 1165 q 354 1254 331 1230 q 409 1278 377 1278 m 673 1278 q 728 1254 705 1278 q 752 1199 752 1230 q 729 1142 752 1165 q 673 1120 706 1120 q 616 1142 639 1120 q 594 1199 594 1165 q 617 1254 594 1230 q 673 1278 640 1278 "},"◭":{"x_min":4.34375,"x_max":1064.328125,"ha":1068,"o":"m 534 -94 l 948 -94 l 534 737 l 534 -94 m 4 -171 l 534 892 l 1064 -171 l 4 -171 "},"ᵄ":{"x_min":43,"x_max":496,"ha":535,"o":"m 192 729 l 192 644 l 293 644 q 380 666 351 644 q 409 735 409 688 q 379 802 409 777 q 301 827 350 827 q 221 799 251 827 q 192 729 192 772 m 113 603 l 113 817 l 43 817 l 43 857 l 192 857 l 192 813 q 251 854 217 840 q 331 868 286 868 q 451 831 407 868 q 496 735 496 795 q 445 637 496 672 q 301 603 394 603 l 192 603 l 192 575 q 223 504 192 530 q 311 479 254 479 q 385 498 358 479 q 420 555 413 517 l 461 555 l 461 472 q 381 450 420 457 q 305 442 343 442 q 162 483 211 442 q 113 603 113 524 "},"⣶":{"x_min":193,"x_max":824,"ha":1017,"o":"m 600 -169 q 631 -89 600 -122 q 712 -57 663 -57 q 791 -89 758 -57 q 824 -169 824 -122 q 791 -249 824 -216 q 712 -282 758 -282 q 631 -249 663 -282 q 600 -169 600 -216 m 193 -169 q 224 -89 193 -122 q 304 -57 256 -57 q 384 -89 351 -57 q 417 -169 417 -122 q 384 -249 417 -216 q 304 -282 351 -282 q 224 -249 256 -282 q 193 -169 193 -216 m 600 215 q 631 295 600 262 q 712 328 663 328 q 791 295 758 328 q 824 215 824 262 q 791 135 824 168 q 712 103 758 103 q 631 135 663 103 q 600 215 600 168 m 600 599 q 631 679 600 646 q 712 712 663 712 q 791 679 758 712 q 824 599 824 646 q 791 519 824 552 q 712 487 758 487 q 631 519 663 487 q 600 599 600 552 m 193 215 q 224 295 193 262 q 304 328 256 328 q 384 295 351 328 q 417 215 417 262 q 384 135 417 168 q 304 103 351 103 q 224 135 256 103 q 193 215 193 168 m 193 599 q 224 679 193 646 q 304 712 256 712 q 384 679 351 712 q 417 599 417 646 q 384 519 417 552 q 304 487 351 487 q 224 519 256 487 q 193 599 193 552 "},"Ὕ":{"x_min":6,"x_max":1462,"ha":1450,"o":"m 795 0 l 795 72 l 925 72 l 925 436 l 612 940 l 518 940 l 518 1013 l 894 1013 l 894 940 l 775 940 l 1028 530 l 1281 940 l 1168 940 l 1168 1013 l 1462 1013 l 1462 940 l 1366 940 l 1062 449 l 1062 72 l 1191 72 l 1191 0 l 795 0 m 384 1112 l 520 1112 l 289 856 l 209 856 l 384 1112 m 99 1152 q 152 1135 129 1152 q 190 1061 190 1109 q 164 997 190 1023 q 107 972 141 972 q 168 862 114 914 l 118 842 q 113 846 116 843 q 6 1050 6 940 l 6 1061 q 26 1115 6 1091 q 99 1152 52 1152 "},"ẳ":{"x_min":69,"x_max":789,"ha":828,"o":"m 552 226 l 552 379 l 391 379 q 253 339 298 379 q 208 216 208 299 q 254 97 208 141 q 378 53 300 53 q 504 101 456 53 q 552 226 552 149 m 677 450 l 677 72 l 789 72 l 789 0 l 553 0 l 553 78 q 457 3 511 27 q 330 -20 403 -20 q 139 43 210 -20 q 69 216 69 107 q 149 390 69 328 q 377 452 230 452 l 553 452 l 553 501 q 503 628 553 583 q 362 673 453 673 q 244 639 288 673 q 189 539 199 605 l 124 539 l 124 685 q 250 727 189 713 q 370 741 312 741 q 598 666 520 741 q 677 450 677 592 m 177 1091 l 238 1091 q 283 1013 247 1037 q 386 989 318 989 q 489 1013 453 989 q 533 1091 524 1037 l 595 1091 q 540 944 595 993 q 386 896 486 896 q 231 944 285 896 q 177 1091 177 993 m 376 1470 q 530 1397 501 1470 q 538 1357 538 1379 q 516 1286 538 1324 q 436 1199 483 1226 l 436 1146 l 336 1146 l 336 1222 q 428 1279 408 1258 q 446 1324 446 1298 q 409 1382 446 1365 q 362 1391 390 1391 q 257 1367 312 1391 l 257 1456 q 353 1470 287 1470 q 376 1470 365 1470 "},"♣":{"x_min":155,"x_max":1089.65625,"ha":1245,"o":"m 623 1012 q 837 857 768 1012 q 847 784 847 822 q 766 596 847 705 l 725 556 l 728 556 q 835 575 778 575 l 848 575 q 1074 438 1009 575 q 1089 352 1089 393 q 948 143 1089 213 q 873 131 921 135 q 640 317 708 131 l 638 317 l 638 310 q 694 4 638 78 l 694 0 l 552 0 l 548 4 q 606 316 606 90 l 606 319 l 603 319 q 370 131 536 131 q 171 267 241 131 q 155 352 155 313 q 321 566 155 510 q 400 575 366 575 l 407 575 q 517 556 465 575 l 520 556 l 520 558 q 443 653 463 606 q 403 782 403 727 l 403 792 q 548 999 403 928 q 623 1012 596 1012 "},"ᴹ":{"x_min":43,"x_max":851,"ha":895,"o":"m 48 453 l 48 493 l 129 493 l 129 979 l 43 979 l 43 1020 l 228 1020 l 452 616 l 676 1020 l 851 1020 l 851 979 l 766 979 l 766 493 l 848 493 l 848 453 l 598 453 l 598 493 l 679 493 l 679 931 l 460 536 l 400 536 l 181 931 l 181 493 l 263 493 l 263 453 l 48 453 "},"¶":{"x_min":106.828125,"x_max":794,"ha":884,"o":"m 429 1014 l 794 1014 l 794 941 l 714 941 l 714 -133 l 641 -133 l 641 941 l 485 941 l 485 -133 l 412 -133 l 412 446 q 186 522 266 446 q 106 724 106 598 q 195 934 106 854 q 429 1014 283 1014 "},"Ụ":{"x_min":65,"x_max":1108,"ha":1170,"o":"m 612 -107 q 668 -130 645 -107 q 692 -186 692 -153 q 669 -243 692 -221 q 612 -266 647 -266 q 555 -243 577 -266 q 533 -186 533 -221 q 556 -130 533 -153 q 612 -107 579 -107 m 195 940 l 65 940 l 65 1013 l 461 1013 l 461 940 l 332 940 l 332 416 q 395 145 332 222 q 614 69 458 69 q 832 145 769 69 q 896 416 896 222 l 896 940 l 766 940 l 766 1013 l 1108 1013 l 1108 940 l 979 940 l 979 402 q 890 75 979 171 q 588 -20 801 -20 q 285 76 375 -20 q 195 402 195 172 l 195 940 "},"𝕆":{"x_min":58,"x_max":1150,"ha":1210,"o":"m 604 62 q 796 171 733 62 q 860 505 860 280 q 796 839 860 730 q 604 949 733 949 q 411 838 474 949 q 348 505 348 728 q 411 172 348 282 q 604 62 474 62 m 604 -20 q 203 119 348 -20 q 58 505 58 259 q 203 890 58 750 q 604 1031 348 1031 q 1004 891 859 1031 q 1150 505 1150 751 q 1004 119 1150 259 q 604 -20 859 -20 m 858 895 l 858 895 m 350 896 l 350 896 m 350 114 q 266 504 266 244 q 350 895 266 765 q 276 846 309 874 q 221 790 243 819 q 184 728 200 762 q 159 666 168 694 q 146 605 151 637 q 141 550 141 572 q 141 504 141 528 q 141 458 141 481 q 146 404 141 436 q 159 343 151 372 q 184 280 168 314 q 222 218 200 247 q 276 162 244 190 q 350 114 309 135 m 859 115 q 932 164 899 136 q 986 220 965 192 q 1024 282 1008 248 q 1048 344 1040 315 q 1061 405 1056 373 q 1067 459 1067 437 q 1067 504 1067 481 q 1067 550 1067 528 q 1061 604 1067 572 q 1048 666 1056 637 q 1024 728 1040 694 q 986 790 1008 762 q 932 846 965 819 q 858 895 899 874 q 869 878 859 895 q 890 834 878 861 q 913 765 901 807 q 934 654 926 723 q 942 504 942 586 q 859 115 942 244 m 351 114 l 351 114 m 859 116 l 859 116 "},"­":{"x_min":61,"x_max":408,"ha":469,"o":"m 61 426 l 408 426 l 408 320 l 61 320 l 61 426 "},"ḳ":{"x_min":39.96875,"x_max":851,"ha":842,"o":"m 398 0 l 48 0 l 48 72 l 160 72 l 160 984 l 39 984 l 39 1056 l 285 1056 l 285 368 l 589 649 l 486 649 l 486 722 l 812 722 l 812 649 l 688 649 l 474 450 l 748 72 l 851 72 l 851 0 l 496 0 l 496 72 l 599 72 l 383 368 l 285 277 l 285 72 l 398 72 l 398 0 m 446 -107 q 502 -130 479 -107 q 526 -186 526 -153 q 503 -243 526 -221 q 446 -266 481 -266 q 389 -243 411 -266 q 367 -186 367 -221 q 390 -130 367 -153 q 446 -107 413 -107 "},"ѫ":{"x_min":17,"x_max":1261,"ha":1278,"o":"m 478 649 l 675 461 l 873 649 l 478 649 m 17 0 l 17 72 l 120 72 l 320 350 q 408 421 361 408 q 522 434 454 434 l 281 663 l 281 722 l 997 722 l 997 663 l 755 434 q 869 421 823 434 q 957 350 916 408 l 1157 72 l 1261 72 l 1261 0 l 906 0 l 906 72 l 1008 72 l 828 326 q 790 350 811 350 l 701 350 l 701 72 l 814 72 l 814 0 l 464 0 l 464 72 l 576 72 l 576 350 l 487 350 q 449 326 466 350 l 269 72 l 372 72 l 372 0 l 17 0 "},"Ѝ":{"x_min":77,"x_max":1135,"ha":1212,"o":"m 552 1288 l 677 1109 l 597 1109 l 420 1288 l 552 1288 m 77 0 l 77 72 l 206 72 l 206 940 l 77 940 l 77 1013 l 472 1013 l 472 940 l 344 940 l 344 314 l 868 825 l 868 940 l 740 940 l 740 1013 l 1135 1013 l 1135 940 l 1006 940 l 1006 72 l 1135 72 l 1135 0 l 740 0 l 740 72 l 868 72 l 868 697 l 344 186 l 344 72 l 472 72 l 472 0 l 77 0 "},"̯":{"x_min":-556,"x_max":-138,"ha":0,"o":"m -138 -301 l -199 -301 q -243 -223 -208 -247 q -347 -199 -279 -199 q -450 -223 -414 -199 q -494 -301 -485 -247 l -556 -301 q -501 -154 -556 -203 q -347 -106 -447 -106 q -192 -154 -246 -106 q -138 -301 -138 -203 "},"⬌":{"x_min":52,"x_max":1113,"ha":1165,"o":"m 376 630 l 788 630 l 788 733 l 829 733 l 1113 453 l 1113 446 l 829 166 l 788 166 l 788 270 l 376 270 l 376 166 l 334 166 l 52 446 l 52 453 l 334 733 l 376 733 l 376 630 "},"ᶹ":{"x_min":31.40625,"x_max":488,"ha":522,"o":"m 298 829 l 346 829 q 449 756 411 805 q 488 647 488 707 q 469 568 488 604 q 417 503 451 530 q 346 465 386 478 q 260 452 306 452 q 145 488 190 452 q 106 587 106 520 l 106 816 l 31 816 l 31 857 l 185 857 l 185 587 q 203 514 185 537 q 260 491 221 491 q 361 540 314 491 q 401 653 401 581 q 374 750 401 711 q 298 806 348 789 l 298 829 "},"ǲ":{"x_min":76.765625,"x_max":1795,"ha":1846,"o":"m 1169 0 l 1169 58 l 1621 649 l 1264 649 l 1264 524 l 1192 524 l 1192 722 l 1782 722 l 1782 663 l 1330 72 l 1722 72 l 1722 202 l 1795 202 l 1795 0 l 1169 0 m 344 72 l 470 72 q 772 184 667 72 q 878 507 878 297 q 772 828 878 717 q 470 940 667 940 l 344 940 l 344 72 m 76 0 l 76 72 l 206 72 l 206 940 l 77 940 l 77 1013 l 479 1013 q 887 879 741 1013 q 1034 507 1034 745 q 887 134 1034 268 q 479 0 740 0 l 76 0 "},"⤆":{"x_min":52.015625,"x_max":1085,"ha":1164,"o":"m 975 716 l 1085 716 l 1085 183 l 975 183 l 975 276 l 281 276 l 342 166 l 334 166 l 52 446 l 52 452 l 334 732 l 342 732 l 281 623 l 975 623 l 975 716 m 975 386 l 975 513 l 221 513 l 186 449 l 221 386 l 975 386 "},"Ƨ":{"x_min":117,"x_max":850,"ha":952,"o":"m 838 48 q 662 -2 748 14 q 492 -20 575 -20 q 211 54 305 -20 q 117 276 117 129 q 175 448 117 384 q 372 554 234 512 l 497 591 q 675 673 633 632 q 718 787 718 714 q 662 913 718 870 q 499 958 606 958 q 316 910 376 958 q 244 756 256 862 l 168 756 l 168 970 q 347 1015 263 1000 q 501 1031 431 1031 q 758 959 667 1031 q 850 759 850 888 q 791 579 850 645 q 586 469 731 513 l 452 429 q 290 352 329 391 q 253 239 253 313 q 316 100 253 148 q 501 53 380 53 q 694 108 630 53 q 758 279 758 163 l 838 279 l 838 48 "},"У":{"x_min":16,"x_max":987,"ha":1003,"o":"m 307 -20 q 230 -8 279 -20 q 131 26 181 3 l 131 139 l 208 139 q 239 86 208 120 q 308 53 270 53 q 398 103 365 53 l 446 187 l 124 940 l 16 940 l 16 1013 l 417 1013 l 417 940 l 297 940 l 536 384 l 785 940 l 655 940 l 655 1013 l 987 1013 l 987 940 l 873 940 l 512 137 q 447 43 498 106 q 307 -20 396 -20 "},"ᾢ":{"x_min":61,"x_max":1065,"ha":1133,"o":"m 683 -277 l 634 -288 q 513 -171 513 -315 l 513 -83 l 614 -83 l 614 -180 q 648 -234 614 -243 l 683 -225 l 683 -277 m 562 131 q 371 -3 478 -3 q 248 20 307 -3 q 152 88 204 38 q 77 205 108 131 q 61 345 61 245 q 105 589 61 500 q 261 720 146 667 l 337 720 l 337 680 q 225 579 270 648 q 200 357 200 541 q 237 156 200 228 q 371 66 283 66 q 448 108 417 66 q 500 253 500 177 l 500 498 l 625 498 l 625 253 q 677 108 625 177 q 754 66 708 66 q 888 156 842 66 q 926 357 926 228 q 900 579 926 541 q 789 680 855 648 l 789 720 l 864 720 q 1020 589 979 667 q 1065 345 1065 500 q 1048 205 1065 245 q 973 88 1017 131 q 877 20 921 38 q 754 -3 817 -3 q 562 131 648 -3 m 382 1152 q 454 1114 428 1152 q 475 1061 475 1090 l 475 1050 q 367 846 475 940 q 362 842 364 844 l 312 863 q 373 972 366 914 q 317 997 339 972 q 292 1061 292 1022 q 328 1135 292 1108 q 382 1152 351 1152 m 632 1110 l 809 855 l 729 855 l 498 1110 l 632 1110 "},"ү":{"x_min":-4,"x_max":781,"ha":785,"o":"m -4 649 l -4 722 l 328 722 l 328 649 l 212 649 l 416 148 l 618 649 l 510 649 l 510 722 l 781 722 l 781 649 l 700 649 l 453 34 l 453 -217 l 566 -217 l 566 -289 l 216 -289 l 216 -217 l 328 -217 l 328 34 l 78 649 l -4 649 "},"Ί":{"x_min":10.609375,"x_max":704,"ha":781,"o":"m 576 72 l 704 72 l 704 0 l 309 0 l 309 72 l 438 72 l 438 940 l 309 940 l 309 1013 l 704 1013 l 704 940 l 576 940 l 576 72 m 185 1111 l 320 1111 l 89 856 l 10 856 l 185 1111 "},"⇑":{"x_min":298.125,"x_max":864.859375,"ha":1163,"o":"m 298 742 l 298 750 l 578 1033 l 584 1033 l 864 750 l 864 742 l 755 803 l 755 0 l 645 0 l 645 863 l 581 898 l 518 863 l 518 0 l 408 0 l 408 803 l 298 742 "},"┅":{"x_min":-13,"x_max":850,"ha":837,"o":"m 641 278 l 641 511 l 850 511 l 850 278 l 641 278 m 318 278 l 318 511 l 519 511 l 519 278 l 318 278 m -13 278 l -13 511 l 196 511 l 196 278 l -13 278 "},"︄":{"x_min":0,"x_max":0,"ha":0},"⅓":{"x_min":99.6875,"x_max":1276,"ha":1347,"o":"m 873 542 q 968 569 923 560 q 1054 578 1014 578 q 1198 541 1147 578 q 1249 437 1249 504 q 1213 354 1249 388 q 1112 309 1177 320 q 1234 258 1193 298 q 1276 150 1276 217 q 1216 31 1276 72 q 1046 -10 1157 -10 q 950 0 997 -10 q 857 27 903 8 l 857 143 l 906 143 q 939 66 906 92 q 1035 40 973 40 q 1135 69 1100 40 q 1170 155 1170 99 q 1135 250 1170 218 q 1031 283 1100 283 l 996 283 l 996 333 l 1014 333 q 1113 358 1079 333 q 1147 433 1147 383 q 1119 503 1147 479 q 1040 528 1092 528 q 955 506 985 528 q 921 441 926 484 l 873 441 l 873 542 m 941 1031 l 1043 1031 l 404 -19 l 302 -19 l 941 1031 m 120 453 l 120 510 l 236 510 l 236 940 l 99 868 l 99 932 l 262 1019 l 332 1019 l 332 510 l 450 510 l 450 453 l 120 453 "},"Ģ":{"x_min":78,"x_max":1000,"ha":1109,"o":"m 478 -278 q 554 -212 530 -250 q 578 -119 578 -174 l 578 -105 l 682 -105 q 642 -224 682 -174 q 522 -311 602 -274 l 478 -278 m 888 710 q 789 897 864 836 q 580 958 714 958 q 319 845 405 958 q 233 505 233 732 q 321 167 233 282 q 582 53 410 53 q 729 71 659 53 q 862 128 798 90 l 862 390 l 671 390 l 671 463 l 1000 463 l 1000 84 q 805 6 909 32 q 583 -20 701 -20 q 215 123 353 -20 q 78 505 78 267 q 216 888 78 745 q 588 1031 354 1031 q 767 1010 675 1031 q 964 949 860 990 l 964 710 l 888 710 "},"ᾇ":{"x_min":69,"x_max":900,"ha":937,"o":"m 500 -277 l 451 -288 q 330 -171 330 -315 l 330 -83 l 431 -83 l 431 -180 q 465 -234 431 -243 l 500 -225 l 500 -277 m 599 177 l 572 102 q 486 6 551 44 q 370 -17 444 -17 q 153 86 236 -17 q 69 362 69 192 q 153 637 69 528 q 400 740 232 740 q 573 694 515 740 q 644 566 625 654 l 650 541 l 676 616 q 770 724 701 688 l 839 724 l 839 683 q 751 599 774 662 l 680 406 l 728 199 q 778 81 752 93 q 900 115 815 64 l 900 33 q 665 36 762 -45 q 609 129 621 74 l 599 177 m 570 310 l 527 510 q 401 669 493 669 q 263 586 323 669 q 214 362 214 517 q 264 140 214 215 q 408 58 317 58 q 543 228 486 58 l 570 310 m 441 1231 l 403 1268 q 374 1289 385 1284 q 349 1295 362 1295 q 303 1268 320 1295 q 287 1190 287 1241 l 221 1190 q 255 1331 221 1281 q 352 1381 290 1381 q 400 1371 378 1381 q 447 1339 422 1362 l 485 1302 q 513 1281 501 1286 q 539 1276 524 1276 q 585 1303 568 1276 q 602 1382 602 1330 l 668 1382 q 633 1240 668 1290 q 536 1190 598 1190 q 488 1199 510 1190 q 441 1231 467 1209 m 449 1152 q 502 1135 479 1152 q 540 1060 540 1108 q 513 997 540 1022 q 457 972 490 972 q 518 862 464 914 l 467 842 q 462 846 466 843 q 356 1050 356 940 l 356 1060 q 376 1114 356 1090 q 449 1152 402 1152 "},"⣂":{"x_min":193,"x_max":824,"ha":1017,"o":"m 600 -169 q 631 -89 600 -122 q 712 -57 663 -57 q 791 -89 758 -57 q 824 -169 824 -122 q 791 -249 824 -216 q 712 -282 758 -282 q 631 -249 663 -282 q 600 -169 600 -216 m 193 -169 q 224 -89 193 -122 q 304 -57 256 -57 q 384 -89 351 -57 q 417 -169 417 -122 q 384 -249 417 -216 q 304 -282 351 -282 q 224 -249 256 -282 q 193 -169 193 -216 m 193 599 q 224 679 193 646 q 304 712 256 712 q 384 679 351 712 q 417 599 417 646 q 384 519 417 552 q 304 487 351 487 q 224 519 256 487 q 193 599 193 552 "},"⡞":{"x_min":193,"x_max":824,"ha":1017,"o":"m 193 -169 q 224 -89 193 -122 q 304 -57 256 -57 q 384 -89 351 -57 q 417 -169 417 -122 q 384 -249 417 -216 q 304 -282 351 -282 q 224 -249 256 -282 q 193 -169 193 -216 m 600 599 q 631 679 600 646 q 712 712 663 712 q 791 679 758 712 q 824 599 824 646 q 791 519 824 552 q 712 487 758 487 q 631 519 663 487 q 600 599 600 552 m 600 983 q 631 1063 600 1030 q 712 1096 663 1096 q 791 1063 758 1096 q 824 983 824 1030 q 791 903 824 936 q 712 871 758 871 q 631 903 663 871 q 600 983 600 936 m 193 215 q 224 295 193 262 q 304 328 256 328 q 384 295 351 328 q 417 215 417 262 q 384 135 417 168 q 304 103 351 103 q 224 135 256 103 q 193 215 193 168 m 193 599 q 224 679 193 646 q 304 712 256 712 q 384 679 351 712 q 417 599 417 646 q 384 519 417 552 q 304 487 351 487 q 224 519 256 487 q 193 599 193 552 "},"ǌ":{"x_min":50.640625,"x_max":1190,"ha":1326,"o":"m 1035 944 q 1057 998 1035 975 q 1112 1022 1080 1022 q 1166 998 1143 1022 q 1189 944 1189 975 q 1166 890 1189 912 q 1112 868 1144 868 q 1057 890 1080 868 q 1035 944 1035 912 m 1065 648 l 947 648 l 947 721 l 1190 721 l 1190 -70 q 1123 -245 1190 -182 q 941 -309 1057 -309 q 848 -297 892 -309 q 762 -264 804 -286 l 762 -116 l 828 -116 q 857 -211 828 -180 q 942 -241 886 -241 q 1035 -200 1005 -241 q 1065 -70 1065 -158 l 1065 648 m 58 0 l 58 72 l 170 72 l 170 648 l 50 648 l 50 721 l 295 721 l 295 592 q 384 703 329 666 q 513 741 440 741 q 688 672 632 741 q 745 458 745 603 l 745 72 l 857 72 l 857 0 l 512 0 l 512 72 l 620 72 l 620 419 q 587 600 620 551 q 472 650 554 650 q 340 586 385 650 q 295 401 295 523 l 295 72 l 404 72 l 404 0 l 58 0 "},"⁵":{"x_min":46,"x_max":503,"ha":557,"o":"m 449 1020 l 449 958 l 127 958 l 127 796 q 183 816 151 809 q 257 823 217 823 q 437 772 370 823 q 503 633 503 721 q 435 493 503 543 q 249 443 369 443 q 149 452 200 443 q 46 480 98 461 l 46 591 l 101 591 q 139 508 101 537 q 248 480 178 480 q 362 519 322 480 q 403 633 403 558 q 363 746 403 707 q 249 786 323 786 q 175 773 206 786 q 117 736 142 761 l 77 736 l 77 1020 l 449 1020 "},"ჶ":{"x_min":75,"x_max":1156,"ha":1231,"o":"m 999 373 q 993 484 999 438 q 976 561 987 530 q 950 610 965 592 q 914 637 934 628 q 872 649 895 646 q 823 652 849 652 q 772 648 798 652 q 722 632 745 645 q 686 592 700 619 q 672 516 672 564 l 672 222 q 687 157 672 183 q 729 116 703 131 q 786 94 754 100 q 849 88 817 88 q 912 98 885 88 q 959 140 940 109 q 988 226 978 171 q 999 373 999 282 m 382 0 q 257 18 314 0 q 160 81 201 37 q 97 195 120 124 q 75 369 75 265 q 98 539 75 469 q 163 653 121 609 q 260 717 204 697 q 382 738 317 738 q 414 734 395 738 q 455 724 433 731 q 502 707 477 717 q 549 686 526 698 l 561 686 q 567 801 561 756 q 588 873 573 846 q 632 914 604 900 q 705 933 660 927 l 716 904 q 689 886 699 896 q 674 862 679 875 q 666 835 668 850 q 665 804 665 820 l 665 692 l 684 692 q 720 711 700 702 q 761 725 740 719 q 805 734 783 731 q 849 738 827 738 q 972 717 916 738 q 1069 654 1028 697 q 1132 543 1109 611 q 1156 377 1156 474 q 1134 198 1156 270 q 1074 82 1113 126 q 978 18 1034 37 q 850 0 921 0 q 762 9 807 0 q 683 39 718 19 l 672 39 l 672 -86 q 609 -256 672 -199 q 408 -313 546 -313 l 408 -244 l 465 -244 q 499 -228 484 -244 q 525 -185 515 -212 q 541 -126 536 -159 q 547 -58 547 -93 l 547 514 q 538 569 547 546 q 517 607 530 592 q 487 631 504 622 q 451 645 469 640 q 416 650 433 650 q 384 650 398 650 q 322 639 350 650 q 274 598 294 629 q 243 512 254 567 q 232 368 232 457 q 242 221 232 277 q 272 135 253 166 q 320 93 292 103 q 382 83 348 83 l 382 0 "},"á":{"x_min":69,"x_max":789,"ha":828,"o":"m 552 226 l 552 379 l 391 379 q 253 339 298 379 q 208 216 208 299 q 254 97 208 141 q 378 53 300 53 q 504 101 456 53 q 552 226 552 149 m 677 450 l 677 72 l 789 72 l 789 0 l 553 0 l 553 78 q 456 3 510 27 q 329 -20 402 -20 q 139 43 209 -20 q 69 216 69 107 q 149 390 69 328 q 377 452 230 452 l 553 452 l 553 501 q 503 628 553 583 q 362 673 453 673 q 243 639 288 673 q 188 539 199 605 l 124 539 l 124 685 q 250 727 189 713 q 370 741 312 741 q 598 666 520 741 q 677 450 677 592 m 479 1111 l 615 1111 l 384 856 l 304 856 l 479 1111 "},"⠂":{"x_min":193,"x_max":417,"ha":1017,"o":"m 193 599 q 224 679 193 646 q 304 712 256 712 q 384 679 351 712 q 417 599 417 646 q 384 519 417 552 q 304 487 351 487 q 224 519 256 487 q 193 599 193 552 "},"⇥":{"x_min":79.8125,"x_max":1085,"ha":1164,"o":"m 79 505 l 859 505 l 728 733 l 735 733 l 975 496 l 975 716 l 1085 716 l 1085 183 l 975 183 l 975 403 l 735 166 l 728 166 l 859 395 l 79 395 l 79 505 "},"K":{"x_min":77,"x_max":1058.625,"ha":1038,"o":"m 77 0 l 77 72 l 206 72 l 206 940 l 77 940 l 77 1013 l 472 1013 l 472 940 l 344 940 l 344 556 l 779 940 l 670 940 l 670 1013 l 1006 1013 l 1006 940 l 892 940 l 457 558 l 943 72 l 1058 72 l 1058 0 l 823 0 l 344 480 l 344 72 l 472 72 l 472 0 l 77 0 "},"Y":{"x_min":-16,"x_max":929,"ha":917,"o":"m 262 0 l 262 72 l 392 72 l 392 436 l 78 940 l -16 940 l -16 1013 l 360 1013 l 360 940 l 242 940 l 495 530 l 748 940 l 635 940 l 635 1013 l 929 1013 l 929 940 l 833 940 l 529 449 l 529 72 l 658 72 l 658 0 l 262 0 "},"E":{"x_min":76.40625,"x_max":902,"ha":1013,"o":"m 76 0 l 76 72 l 205 72 l 205 940 l 76 940 l 76 1013 l 891 1013 l 891 787 l 808 787 l 808 929 l 343 929 l 343 590 l 675 590 l 675 717 l 758 717 l 758 380 l 675 380 l 675 507 l 343 507 l 343 83 l 819 83 l 819 225 l 902 225 l 902 0 l 76 0 "},"Ƥ":{"x_min":-130,"x_max":885,"ha":935,"o":"m 205 1013 l 555 1013 q 796 936 707 1013 q 885 728 885 858 q 796 520 885 597 q 555 443 707 443 l 344 443 l 344 72 l 500 72 l 500 0 l 77 0 l 77 72 l 206 72 l 206 940 q 5 880 51 940 q -43 692 -43 818 l -130 692 l -130 925 q 61 1001 -63 975 q 205 1013 139 1013 m 344 516 l 522 516 q 676 570 623 516 q 729 728 729 625 q 676 886 729 832 q 522 940 623 940 l 344 940 l 344 516 "},"Ï":{"x_min":64,"x_max":486,"ha":548,"o":"m 343 72 l 471 72 l 471 0 l 76 0 l 76 72 l 205 72 l 205 940 l 76 940 l 76 1013 l 471 1013 l 471 940 l 343 940 l 343 72 m 142 1278 q 198 1254 175 1278 q 222 1199 222 1230 q 199 1142 222 1165 q 142 1120 176 1120 q 86 1142 109 1120 q 64 1199 64 1165 q 87 1254 64 1230 q 142 1278 110 1278 m 407 1278 q 462 1254 439 1278 q 486 1199 486 1230 q 463 1142 486 1165 q 407 1120 440 1120 q 350 1142 373 1120 q 328 1199 328 1165 q 351 1254 328 1230 q 407 1278 374 1278 "},"ῶ":{"x_min":61,"x_max":1065,"ha":1133,"o":"m 559 865 l 521 902 q 492 923 503 918 q 467 929 480 929 q 422 902 438 929 q 406 824 406 875 l 340 824 q 374 965 340 915 q 470 1015 409 1015 q 518 1005 496 1015 q 565 973 540 996 l 603 936 q 631 915 619 920 q 657 910 642 910 q 703 937 686 910 q 720 1015 720 964 l 786 1015 q 751 873 786 923 q 654 824 716 824 q 606 833 628 824 q 559 865 585 842 m 562 131 q 370 -3 477 -3 q 248 20 307 -3 q 152 88 204 38 q 77 205 108 131 q 61 345 61 245 q 105 589 61 500 q 261 720 146 667 l 337 720 l 337 680 q 225 579 270 648 q 200 357 200 541 q 237 156 200 228 q 370 66 283 66 q 448 108 417 66 q 500 253 500 177 l 500 498 l 625 498 l 625 253 q 677 108 625 177 q 754 66 708 66 q 888 156 842 66 q 926 357 926 228 q 900 579 926 541 q 789 680 855 648 l 789 720 l 864 720 q 1020 589 979 667 q 1065 345 1065 500 q 1048 205 1065 245 q 973 88 1017 131 q 877 20 921 38 q 754 -3 817 -3 q 562 131 648 -3 "},"ȴ":{"x_min":39.96875,"x_max":672,"ha":696,"o":"m 349 111 q 489 47 395 47 q 597 119 597 47 q 521 203 597 203 q 349 111 399 203 m 285 361 q 309 181 285 253 q 533 277 404 277 q 672 115 672 277 q 487 -20 672 -20 q 311 28 383 -20 q 305 -51 305 6 l 305 -148 l 230 -148 l 230 -50 q 247 71 230 17 l 234 84 q 160 361 160 200 l 160 984 l 39 984 l 39 1056 l 285 1056 l 285 361 "},"Ɖ":{"x_min":77,"x_max":1041,"ha":1122,"o":"m 349 72 l 476 72 q 780 184 674 72 q 886 507 886 297 q 780 828 886 717 q 476 940 674 940 l 349 940 l 349 573 l 577 573 l 577 488 l 349 488 l 349 72 m 84 0 l 84 72 l 213 72 l 213 488 l 77 488 l 77 573 l 213 573 l 213 940 l 84 940 l 84 1013 l 486 1013 q 894 879 748 1013 q 1041 507 1041 745 q 894 134 1041 268 q 486 0 748 0 l 84 0 "},"⢯":{"x_min":193,"x_max":824,"ha":1017,"o":"m 600 -169 q 631 -89 600 -122 q 712 -57 663 -57 q 791 -89 758 -57 q 824 -169 824 -122 q 791 -249 824 -216 q 712 -282 758 -282 q 631 -249 663 -282 q 600 -169 600 -216 m 600 215 q 631 295 600 262 q 712 328 663 328 q 791 295 758 328 q 824 215 824 262 q 791 135 824 168 q 712 103 758 103 q 631 135 663 103 q 600 215 600 168 m 600 983 q 631 1063 600 1030 q 712 1096 663 1096 q 791 1063 758 1096 q 824 983 824 1030 q 791 903 824 936 q 712 871 758 871 q 631 903 663 871 q 600 983 600 936 m 193 215 q 224 295 193 262 q 304 328 256 328 q 384 295 351 328 q 417 215 417 262 q 384 135 417 168 q 304 103 351 103 q 224 135 256 103 q 193 215 193 168 m 193 599 q 224 679 193 646 q 304 712 256 712 q 384 679 351 712 q 417 599 417 646 q 384 519 417 552 q 304 487 351 487 q 224 519 256 487 q 193 599 193 552 m 193 983 q 224 1063 193 1030 q 304 1096 256 1096 q 384 1063 351 1096 q 417 983 417 1030 q 384 903 417 936 q 304 871 351 871 q 224 903 256 871 q 193 983 193 936 "},"K":{"x_min":77,"x_max":1058.625,"ha":1038,"o":"m 77 0 l 77 72 l 206 72 l 206 940 l 77 940 l 77 1013 l 472 1013 l 472 940 l 344 940 l 344 556 l 779 940 l 670 940 l 670 1013 l 1006 1013 l 1006 940 l 892 940 l 457 558 l 943 72 l 1058 72 l 1058 0 l 823 0 l 344 480 l 344 72 l 472 72 l 472 0 l 77 0 "},"┞":{"x_min":309,"x_max":849.484375,"ha":836,"o":"m 363 -418 l 363 337 l 309 337 l 309 1352 l 526 1352 l 526 454 l 849 454 l 849 337 l 472 337 l 472 -418 l 363 -418 "},"ϋ":{"x_min":50.328125,"x_max":776,"ha":845,"o":"m 500 721 l 575 721 q 731 588 690 667 q 776 345 776 500 q 747 205 776 270 q 663 88 717 137 q 550 20 614 43 q 414 -3 487 -3 q 232 62 303 -3 q 169 237 169 119 l 169 648 l 50 648 l 50 721 l 294 721 l 294 237 q 322 108 294 148 q 414 66 351 66 q 575 155 499 66 q 637 356 637 227 q 611 579 637 539 q 500 680 566 648 l 500 721 m 263 1064 q 319 1040 296 1064 q 343 984 343 1017 q 320 927 343 949 q 263 905 298 905 q 207 927 229 905 q 185 984 185 949 q 208 1040 185 1017 q 263 1064 231 1064 m 528 1064 q 583 1040 560 1064 q 607 984 607 1017 q 584 927 607 949 q 528 905 562 905 q 471 927 493 905 q 449 984 449 949 q 472 1040 449 1017 q 528 1064 495 1064 "},"⥗":{"x_min":79.8125,"x_max":1085,"ha":1164,"o":"m 975 505 l 975 716 l 1085 716 l 1085 183 l 975 183 l 975 403 l 735 166 l 728 166 l 859 395 l 79 395 l 79 505 l 975 505 "},"ἶ":{"x_min":2,"x_max":466.25,"ha":544,"o":"m 169 197 l 169 649 l 50 649 l 50 722 l 294 722 l 294 197 q 344 79 294 102 q 466 112 382 62 l 466 30 q 231 34 328 -48 q 169 197 169 88 m 222 1232 l 183 1269 q 154 1290 166 1285 q 130 1296 143 1296 q 84 1269 101 1296 q 68 1191 68 1242 l 2 1191 q 36 1332 2 1282 q 133 1382 71 1382 q 180 1372 159 1382 q 227 1340 202 1363 l 266 1303 q 293 1282 281 1287 q 319 1277 305 1277 q 365 1304 349 1277 q 382 1382 382 1331 l 448 1382 q 413 1240 448 1290 q 316 1191 378 1191 q 269 1200 291 1191 q 222 1232 247 1209 m 229 1153 q 302 1115 275 1153 q 323 1061 323 1091 l 323 1051 q 215 847 323 941 q 210 843 212 844 l 160 863 q 221 973 214 915 q 165 998 187 973 q 140 1061 140 1023 q 176 1136 140 1109 q 229 1153 199 1153 "},"ⅰ":{"x_min":50,"x_max":412,"ha":444,"o":"m 135 945 q 157 999 135 976 q 212 1023 180 1023 q 266 999 243 1023 q 289 945 289 976 q 266 891 289 913 q 212 869 244 869 q 157 891 180 869 q 135 945 135 913 m 294 72 l 412 72 l 412 0 l 50 0 l 50 72 l 169 72 l 169 649 l 50 649 l 50 722 l 294 722 l 294 72 "},"b":{"x_min":39.96875,"x_max":819,"ha":889,"o":"m 160 72 l 160 984 l 39 984 l 39 1056 l 285 1056 l 285 608 q 378 708 321 676 q 518 741 434 741 q 734 635 650 741 q 819 360 819 530 q 734 85 819 191 q 518 -20 650 -20 q 378 12 434 -20 q 285 112 321 44 l 285 0 l 40 0 l 40 72 l 160 72 m 285 324 q 334 126 285 194 q 479 58 384 58 q 624 134 574 58 q 673 360 673 211 q 624 586 673 510 q 479 663 574 663 q 334 594 384 663 q 285 396 285 525 l 285 324 "},"⢨":{"x_min":600,"x_max":824,"ha":1017,"o":"m 600 -169 q 631 -89 600 -122 q 712 -57 663 -57 q 791 -89 758 -57 q 824 -169 824 -122 q 791 -249 824 -216 q 712 -282 758 -282 q 631 -249 663 -282 q 600 -169 600 -216 m 600 215 q 631 295 600 262 q 712 328 663 328 q 791 295 758 328 q 824 215 824 262 q 791 135 824 168 q 712 103 758 103 q 631 135 663 103 q 600 215 600 168 m 600 983 q 631 1063 600 1030 q 712 1096 663 1096 q 791 1063 758 1096 q 824 983 824 1030 q 791 903 824 936 q 712 871 758 871 q 631 903 663 871 q 600 983 600 936 "},"≕":{"x_min":147,"x_max":1288,"ha":1435,"o":"m 1107 574 q 1133 638 1107 612 q 1197 665 1159 665 q 1261 638 1235 665 q 1288 574 1288 611 q 1261 510 1288 536 q 1197 484 1235 484 q 1133 509 1159 484 q 1107 574 1107 535 m 1107 297 q 1133 361 1107 335 q 1197 388 1159 388 q 1261 361 1235 388 q 1288 297 1288 334 q 1261 233 1288 259 q 1197 207 1235 207 q 1133 232 1159 207 q 1107 297 1107 258 m 147 629 l 1016 629 l 1016 520 l 147 520 l 147 629 m 147 352 l 1016 352 l 1016 243 l 147 243 l 147 352 "},"ﬂ":{"x_min":50,"x_max":885,"ha":926,"o":"m 496 1056 l 766 1056 l 766 72 l 885 72 l 885 0 l 522 0 l 522 72 l 641 72 l 641 984 l 495 984 q 339 940 384 984 q 294 789 294 896 l 294 722 l 494 722 l 494 649 l 294 649 l 294 72 l 412 72 l 412 0 l 50 0 l 50 72 l 169 72 l 169 649 l 50 649 l 50 722 l 169 722 l 169 787 q 250 989 169 923 q 496 1056 331 1056 "},"ɢ":{"x_min":69,"x_max":715,"ha":756,"o":"m 419 -22 l 419 -22 m 426 38 l 426 38 m 617 492 q 555 630 597 598 q 419 674 500 674 q 269 591 330 674 q 209 347 209 511 q 271 104 209 183 q 485 37 324 37 q 575 57 526 37 q 619 77 610 72 l 619 272 l 484 272 l 484 324 l 715 324 l 715 51 q 578 -5 651 13 q 423 -25 506 -25 q 165 78 262 -25 q 69 355 69 182 q 166 631 69 528 q 426 735 263 735 q 552 720 483 735 q 690 676 617 705 l 690 492 l 617 492 "},"Ʈ":{"x_min":14,"x_max":913,"ha":927,"o":"m 875 -242 q 775 -277 825 -265 q 677 -289 725 -289 q 461 -214 528 -289 q 394 28 394 -139 l 394 932 l 97 932 l 97 773 l 14 773 l 14 1013 l 913 1013 l 913 773 l 830 773 l 830 932 l 532 932 l 532 33 q 563 -165 532 -112 q 676 -216 594 -216 q 766 -182 736 -216 q 796 -83 796 -150 l 875 -83 l 875 -242 "},"Ὢ":{"x_min":7,"x_max":1487,"ha":1570,"o":"m 1178 111 l 1407 111 l 1407 203 l 1486 203 l 1486 0 l 1084 0 l 1084 123 q 1269 276 1206 170 q 1332 539 1332 381 q 1239 843 1332 728 q 995 959 1146 959 q 751 843 844 959 q 659 539 659 728 q 721 275 659 381 q 905 123 784 170 l 905 0 l 506 0 l 506 203 l 585 203 l 585 111 l 811 111 q 586 289 669 170 q 504 554 504 409 q 542 746 504 657 q 656 904 581 835 q 810 999 723 966 q 995 1032 897 1032 q 1179 999 1093 1032 q 1333 904 1266 967 q 1447 745 1408 835 q 1487 554 1487 656 q 1404 289 1487 409 q 1178 111 1321 170 m 97 1152 q 169 1114 143 1152 q 190 1061 190 1091 l 190 1050 q 82 846 190 940 q 78 842 79 844 l 28 863 q 88 972 81 914 q 32 997 55 972 q 7 1061 7 1023 q 43 1135 7 1108 q 97 1152 66 1152 m 348 1110 l 524 855 l 445 855 l 214 1110 l 348 1110 "},"↽":{"x_min":47,"x_max":1084,"ha":1163,"o":"m 47 495 l 47 504 l 1084 504 l 1084 394 l 257 394 l 388 165 l 381 165 l 47 495 "},"Ḡ":{"x_min":78,"x_max":1000,"ha":1109,"o":"m 888 710 q 789 897 864 836 q 580 958 714 958 q 319 845 405 958 q 233 505 233 732 q 321 167 233 282 q 582 53 410 53 q 729 71 659 53 q 862 128 798 90 l 862 390 l 671 390 l 671 463 l 1000 463 l 1000 84 q 805 6 909 32 q 583 -20 701 -20 q 215 123 353 -20 q 78 505 78 267 q 216 888 78 745 q 588 1031 354 1031 q 767 1010 675 1031 q 964 949 860 990 l 964 710 l 888 710 m 378 1288 l 784 1288 l 784 1188 l 378 1188 l 378 1288 "},"⤕":{"x_min":74.1875,"x_max":1112,"ha":1164,"o":"m 611 716 l 721 716 l 721 505 l 952 505 l 821 733 l 828 733 l 1112 453 l 1112 446 l 828 166 l 821 166 l 952 395 l 721 395 l 721 183 l 611 183 l 611 395 l 552 395 l 552 183 l 442 183 l 442 395 l 382 395 l 151 166 l 74 244 l 279 446 l 279 453 l 74 655 l 151 733 l 382 505 l 442 505 l 442 716 l 552 716 l 552 505 l 611 505 l 611 716 "},"‬":{"x_min":0,"x_max":0,"ha":0},"ȭ":{"x_min":69,"x_max":766,"ha":836,"o":"m 209 1249 l 615 1249 l 615 1149 l 209 1149 l 209 1249 m 417 47 q 569 126 517 47 q 620 360 620 206 q 569 594 620 515 q 417 673 517 673 q 265 594 317 673 q 214 360 214 515 q 266 126 214 206 q 417 47 317 47 m 417 -20 q 164 84 260 -20 q 69 360 69 188 q 164 637 69 533 q 417 741 259 741 q 670 637 575 741 q 766 360 766 533 q 670 84 766 188 q 417 -20 575 -20 m 414 929 l 376 966 q 347 987 358 982 q 322 993 335 993 q 276 966 293 993 q 260 887 260 939 l 194 887 q 228 1029 194 979 q 325 1079 263 1079 q 373 1069 351 1079 q 420 1037 395 1060 l 458 1000 q 486 979 474 984 q 512 974 497 974 q 558 1001 541 974 q 575 1079 575 1028 l 641 1079 q 606 937 641 987 q 509 888 571 888 q 461 897 483 888 q 414 929 439 907 "},"Ŋ":{"x_min":65,"x_max":979,"ha":1170,"o":"m 65 0 l 65 73 l 194 73 l 194 940 l 74 940 l 74 1013 l 332 1013 l 332 876 q 461 993 382 954 q 646 1033 540 1033 q 898 934 817 1033 q 979 625 979 835 l 979 27 q 911 -214 979 -139 q 695 -289 844 -289 q 597 -277 647 -289 q 498 -242 547 -265 l 498 -83 l 574 -83 q 604 -183 574 -150 q 695 -216 635 -216 q 808 -165 774 -216 q 840 33 840 -115 l 840 598 q 789 870 840 796 q 609 944 738 944 q 402 856 473 944 q 332 602 332 769 l 332 73 l 461 73 l 461 0 l 65 0 "},"Ⅹ":{"x_min":8,"x_max":982,"ha":989,"o":"m 459 433 l 212 72 l 343 72 l 343 0 l 8 0 l 8 72 l 124 72 l 415 497 l 120 940 l 12 940 l 12 1013 l 413 1013 l 413 940 l 294 940 l 511 614 l 734 940 l 604 940 l 604 1013 l 936 1013 l 936 940 l 821 940 l 554 550 l 873 72 l 982 72 l 982 0 l 581 0 l 581 72 l 701 72 l 459 433 "},"Ẋ":{"x_min":8,"x_max":982,"ha":989,"o":"m 494 1280 q 550 1256 526 1280 q 574 1201 574 1232 q 551 1144 574 1167 q 494 1122 528 1122 q 437 1144 460 1122 q 415 1201 415 1167 q 438 1256 415 1232 q 494 1280 462 1280 m 459 433 l 212 72 l 343 72 l 343 0 l 8 0 l 8 72 l 124 72 l 416 497 l 120 940 l 12 940 l 12 1013 l 413 1013 l 413 940 l 294 940 l 511 614 l 734 940 l 604 940 l 604 1013 l 936 1013 l 936 940 l 821 940 l 554 550 l 873 72 l 982 72 l 982 0 l 581 0 l 581 72 l 701 72 l 459 433 "},"ď":{"x_min":69,"x_max":1025.359375,"ha":889,"o":"m 729 72 l 848 72 l 848 0 l 604 0 l 604 112 q 510 12 567 44 q 370 -20 454 -20 q 153 85 237 -20 q 69 360 69 191 q 153 635 69 530 q 370 741 237 741 q 510 708 454 741 q 604 608 567 676 l 604 984 l 486 984 l 486 1056 l 729 1056 l 729 72 m 604 324 l 604 396 q 554 594 604 525 q 409 663 504 663 q 264 586 313 663 q 214 360 214 510 q 264 134 214 211 q 409 58 313 58 q 554 126 504 58 q 604 324 604 194 m 890 1054 l 1025 1054 l 927 799 l 848 799 l 890 1054 "},"Ⴠ":{"x_min":60,"x_max":1315,"ha":1390,"o":"m 1315 638 l 1227 638 l 1227 195 q 1207 104 1227 141 q 1152 44 1187 67 q 1069 10 1117 21 q 964 0 1021 0 l 832 0 q 709 10 764 0 q 614 43 653 21 q 555 104 576 66 q 534 195 534 141 l 534 1107 l 313 1107 l 313 638 l 60 638 l 60 709 l 147 709 l 147 1107 l 60 1107 l 60 1178 l 784 1178 l 784 1107 l 697 1107 l 697 242 q 706 163 697 196 q 734 109 715 130 q 780 78 753 88 q 845 69 808 69 l 936 69 q 985 79 962 69 q 1025 109 1008 90 q 1052 158 1042 129 q 1062 222 1062 186 l 1062 638 l 975 638 l 975 709 l 1315 709 l 1315 638 "},"⟸":{"x_min":52,"x_max":1912,"ha":1991,"o":"m 342 166 l 334 166 l 52 446 l 52 452 l 334 732 l 342 732 l 281 623 l 1912 623 l 1912 513 l 221 513 l 186 449 l 221 386 l 1912 386 l 1912 276 l 281 276 l 342 166 "},"ṯ":{"x_min":40,"x_max":552,"ha":559,"o":"m 150 648 l 40 648 l 40 721 l 150 721 l 150 944 l 275 944 l 275 721 l 510 721 l 510 648 l 275 648 l 275 190 q 292 72 275 98 q 358 47 310 47 q 429 75 407 47 q 452 169 452 104 l 544 169 q 495 25 544 70 q 348 -20 447 -20 q 194 27 239 -20 q 150 190 150 75 l 150 648 m 146 -105 l 552 -105 l 552 -205 l 146 -205 l 146 -105 "},"ŧ":{"x_min":40,"x_max":544,"ha":558,"o":"m 150 648 l 40 648 l 40 721 l 150 721 l 150 944 l 275 944 l 275 721 l 510 721 l 510 648 l 275 648 l 275 490 l 404 490 l 404 394 l 275 394 l 275 190 q 292 72 275 98 q 358 47 310 47 q 429 75 407 47 q 452 169 452 104 l 544 169 q 495 25 544 70 q 348 -20 447 -20 q 195 28 239 -20 q 150 190 150 75 l 150 394 l 58 394 l 58 490 l 150 490 l 150 648 "},"À":{"x_min":-8,"x_max":1017,"ha":1004,"o":"m 278 367 l 650 367 l 464 848 l 278 367 m -8 0 l -8 72 l 80 72 l 441 1013 l 556 1013 l 917 72 l 1017 72 l 1017 0 l 649 0 l 649 72 l 761 72 l 676 294 l 250 294 l 165 72 l 277 72 l 277 0 l -8 0 m 454 1288 l 578 1109 l 498 1109 l 321 1288 l 454 1288 "},"Ώ":{"x_min":9.84375,"x_max":1100,"ha":1183,"o":"m 791 111 l 1020 111 l 1020 203 l 1099 203 l 1099 0 l 697 0 l 697 123 q 882 276 819 170 q 945 539 945 381 q 852 843 945 728 q 608 959 759 959 q 364 843 457 959 q 272 539 272 728 q 334 275 272 381 q 518 123 397 170 l 518 0 l 119 0 l 119 203 l 198 203 l 198 111 l 424 111 q 199 289 282 170 q 117 554 117 409 q 155 746 117 657 q 269 904 194 835 q 423 999 336 966 q 608 1032 510 1032 q 792 999 706 1032 q 946 904 878 967 q 1060 745 1021 835 q 1100 554 1100 656 q 1017 289 1100 409 q 791 111 934 170 m 185 1111 l 319 1111 l 89 856 l 9 856 l 185 1111 "},"┰":{"x_min":-13,"x_max":850,"ha":837,"o":"m 310 -418 l 310 337 l -13 337 l -13 454 l 850 454 l 850 337 l 527 337 l 527 -418 l 310 -418 "},"̟":{"x_min":-507,"x_max":-183,"ha":-1,"o":"m -395 -261 l -395 -149 l -295 -149 l -295 -261 l -183 -261 l -183 -361 l -295 -361 l -295 -473 l -395 -473 l -395 -361 l -507 -361 l -507 -261 l -395 -261 "},"'":{"x_min":136,"x_max":244,"ha":382,"o":"m 244 1014 l 244 637 l 136 637 l 136 1014 l 244 1014 "},"⢟":{"x_min":193,"x_max":824,"ha":1017,"o":"m 600 -169 q 631 -89 600 -122 q 712 -57 663 -57 q 791 -89 758 -57 q 824 -169 824 -122 q 791 -249 824 -216 q 712 -282 758 -282 q 631 -249 663 -282 q 600 -169 600 -216 m 600 599 q 631 679 600 646 q 712 712 663 712 q 791 679 758 712 q 824 599 824 646 q 791 519 824 552 q 712 487 758 487 q 631 519 663 487 q 600 599 600 552 m 600 983 q 631 1063 600 1030 q 712 1096 663 1096 q 791 1063 758 1096 q 824 983 824 1030 q 791 903 824 936 q 712 871 758 871 q 631 903 663 871 q 600 983 600 936 m 193 215 q 224 295 193 262 q 304 328 256 328 q 384 295 351 328 q 417 215 417 262 q 384 135 417 168 q 304 103 351 103 q 224 135 256 103 q 193 215 193 168 m 193 599 q 224 679 193 646 q 304 712 256 712 q 384 679 351 712 q 417 599 417 646 q 384 519 417 552 q 304 487 351 487 q 224 519 256 487 q 193 599 193 552 m 193 983 q 224 1063 193 1030 q 304 1096 256 1096 q 384 1063 351 1096 q 417 983 417 1030 q 384 903 417 936 q 304 871 351 871 q 224 903 256 871 q 193 983 193 936 "},"ჼ":{"x_min":61,"x_max":430,"ha":491,"o":"m 335 666 q 243 810 335 810 q 155 666 155 810 q 245 525 155 525 q 298 535 279 525 q 326 565 317 546 q 335 610 335 584 q 335 666 335 636 m 430 666 q 244 474 430 474 q 61 665 61 474 l 61 1019 q 74 1080 61 1052 q 113 1128 88 1108 q 174 1159 138 1148 q 255 1171 210 1171 q 274 1167 262 1171 q 298 1160 285 1164 q 323 1153 311 1156 q 346 1150 336 1150 q 379 1156 358 1150 q 430 1173 399 1162 l 430 1129 q 385 1097 406 1109 q 345 1086 364 1086 q 301 1088 318 1086 q 273 1095 284 1091 q 256 1101 262 1098 q 245 1104 249 1104 q 211 1096 227 1104 q 182 1077 194 1089 q 162 1050 169 1066 q 155 1019 155 1035 l 155 846 l 163 846 q 245 859 208 859 q 385 812 341 859 q 430 666 430 766 "},"Ⴃ":{"x_min":89,"x_max":1104,"ha":1193,"o":"m 939 466 q 924 607 939 545 q 877 713 910 669 q 791 780 844 757 q 660 804 737 804 l 547 804 q 422 782 477 804 q 330 720 367 761 q 273 616 293 678 q 254 473 254 554 l 254 420 q 268 261 254 328 q 318 152 283 195 q 409 88 353 109 q 549 68 465 68 l 660 68 q 790 93 736 68 q 876 165 843 119 q 924 276 909 211 q 939 420 939 341 l 939 466 m 1104 420 q 1075 246 1104 324 q 996 114 1047 168 q 876 30 946 60 q 724 1 807 1 l 470 1 q 317 31 387 1 q 196 116 247 61 q 117 249 145 172 q 89 420 89 326 l 89 503 q 123 639 89 578 q 214 744 158 700 q 337 818 269 789 q 470 857 404 846 l 520 857 l 520 1107 l 271 1107 l 271 996 l 169 891 l 89 891 l 89 960 l 144 960 l 144 1177 l 1048 1177 l 1048 960 l 1104 960 l 1104 891 l 1040 891 l 921 996 l 921 1107 l 675 1107 l 675 857 l 724 857 q 811 834 766 850 q 898 793 855 818 q 978 735 940 768 q 1043 666 1015 703 q 1087 587 1070 629 q 1104 503 1104 546 l 1104 420 "},"▩":{"x_min":126,"x_max":1186,"ha":1312,"o":"m 203 729 l 236 696 l 321 780 l 285 816 l 203 816 l 203 729 m 203 449 l 236 415 l 322 500 l 236 586 l 203 553 l 203 449 m 430 780 l 515 695 l 601 780 l 565 816 l 466 816 l 430 780 m 291 641 l 376 555 l 460 640 l 375 725 l 291 641 m 203 168 l 236 135 l 322 221 l 236 306 l 203 272 l 203 168 m 710 780 l 796 695 l 881 780 l 845 816 l 746 816 l 710 780 m 570 640 l 656 555 l 741 640 l 656 725 l 570 640 m 431 500 l 516 415 l 601 500 l 515 585 l 431 500 m 291 361 l 376 275 l 462 361 l 376 446 l 291 361 m 990 780 l 1075 696 l 1109 729 l 1109 816 l 1026 816 l 990 780 m 851 640 l 935 555 l 1020 641 l 936 725 l 851 640 m 710 500 l 794 415 l 880 500 l 796 585 l 710 500 m 571 361 l 656 276 l 740 361 l 656 445 l 571 361 m 431 220 l 515 136 l 601 221 l 517 306 l 431 220 m 291 80 l 376 -3 l 460 81 l 376 166 l 291 80 m 203 -94 l 285 -94 l 321 -58 l 236 25 l 203 -7 l 203 -94 m 990 500 l 1075 415 l 1109 449 l 1109 553 l 1075 586 l 990 500 m 849 361 l 935 275 l 1020 361 l 935 446 l 849 361 m 710 221 l 796 136 l 880 220 l 794 306 l 710 221 m 570 81 l 656 -4 l 741 81 l 656 166 l 570 81 m 430 -58 l 466 -94 l 566 -94 l 601 -58 l 515 26 l 430 -58 m 990 221 l 1075 135 l 1109 168 l 1109 272 l 1075 306 l 990 221 m 850 81 l 935 -3 l 1020 80 l 935 166 l 850 81 m 710 -58 l 745 -94 l 845 -94 l 881 -58 l 796 26 l 710 -58 m 990 -58 l 1026 -94 l 1109 -94 l 1109 -7 l 1075 25 l 990 -58 m 126 -171 l 126 893 l 1186 893 l 1186 -171 l 126 -171 "},"Ɠ":{"x_min":78,"x_max":1267,"ha":1109,"o":"m 1084 1038 q 975 958 1000 1038 q 964 867 964 921 l 964 710 l 888 710 l 888 713 q 706 940 852 894 q 580 958 652 958 q 319 845 405 958 q 233 505 233 732 q 458 71 233 145 q 582 53 514 53 q 862 128 735 53 l 862 390 l 671 390 l 671 463 l 1000 463 l 1000 84 q 583 -20 819 -20 q 215 123 353 -20 q 78 505 78 267 q 216 888 78 745 q 588 1031 354 1031 q 900 973 731 1031 q 959 1065 917 1026 q 1087 1106 1002 1106 q 1267 1061 1182 1106 l 1267 912 l 1203 912 q 1128 1032 1203 1011 q 1084 1038 1109 1038 "},"Ć":{"x_min":78,"x_max":978.984375,"ha":1062,"o":"m 978 268 q 828 53 934 126 q 562 -20 723 -20 q 378 13 463 -20 q 227 113 293 47 q 114 286 151 189 q 78 505 78 383 q 214 886 78 741 q 573 1031 350 1031 q 749 1009 656 1031 q 951 943 843 987 l 951 710 l 874 710 q 773 897 849 837 q 561 958 698 958 q 316 843 399 958 q 233 505 233 728 q 316 167 233 282 q 561 53 399 53 q 748 106 675 53 q 854 268 821 160 l 978 268 m 599 1288 l 732 1288 l 555 1109 l 475 1109 l 599 1288 "},"𝔻":{"x_min":65,"x_max":1146,"ha":1204,"o":"m 456 82 l 550 82 q 782 183 708 82 q 856 507 856 285 q 782 829 856 728 q 550 931 709 931 l 456 931 l 456 82 m 65 0 l 65 82 l 195 82 l 195 931 l 65 931 l 65 1013 l 584 1013 q 1001 882 857 1013 q 1146 507 1146 752 q 1001 130 1146 261 q 584 0 856 0 l 65 0 m 374 82 l 374 931 l 277 931 l 277 82 l 374 82 m 842 886 l 849 877 q 938 507 938 754 q 849 135 938 259 l 841 126 q 946 191 902 151 q 1064 507 1064 297 q 946 821 1064 715 q 842 886 902 861 "},"ẓ":{"x_min":55.296875,"x_max":681,"ha":732,"o":"m 55 0 l 55 58 l 507 649 l 150 649 l 150 524 l 78 524 l 78 722 l 668 722 l 668 663 l 216 72 l 608 72 l 608 202 l 681 202 l 681 0 l 55 0 m 358 -107 q 414 -130 391 -107 q 438 -186 438 -153 q 415 -243 438 -221 q 358 -266 393 -266 q 301 -243 323 -266 q 279 -186 279 -221 q 302 -130 279 -153 q 358 -107 325 -107 "},"ⴇ":{"x_min":81.453125,"x_max":1252.859375,"ha":1334,"o":"m 548 132 l 652 622 l 345 571 l 242 92 l 548 132 m 960 0 l 1092 622 l 784 571 l 662 0 l 519 0 l 535 78 l 230 35 l 225 0 l 81 0 l 213 622 l 133 622 l 133 672 l 225 672 l 232 710 l 373 710 l 356 622 l 662 671 l 670 711 l 814 711 l 796 622 l 1104 672 l 1111 711 l 1252 711 l 1122 92 l 1202 92 l 1202 35 l 1111 35 l 1104 0 l 960 0 "},"⢍":{"x_min":193,"x_max":824,"ha":1017,"o":"m 600 -169 q 631 -89 600 -122 q 712 -57 663 -57 q 791 -89 758 -57 q 824 -169 824 -122 q 791 -249 824 -216 q 712 -282 758 -282 q 631 -249 663 -282 q 600 -169 600 -216 m 600 983 q 631 1063 600 1030 q 712 1096 663 1096 q 791 1063 758 1096 q 824 983 824 1030 q 791 903 824 936 q 712 871 758 871 q 631 903 663 871 q 600 983 600 936 m 193 215 q 224 295 193 262 q 304 328 256 328 q 384 295 351 328 q 417 215 417 262 q 384 135 417 168 q 304 103 351 103 q 224 135 256 103 q 193 215 193 168 m 193 983 q 224 1063 193 1030 q 304 1096 256 1096 q 384 1063 351 1096 q 417 983 417 1030 q 384 903 417 936 q 304 871 351 871 q 224 903 256 871 q 193 983 193 936 "},"↫":{"x_min":52,"x_max":1085,"ha":1164,"o":"m 827 217 l 717 217 l 717 394 l 211 394 l 342 165 l 334 165 l 52 445 l 52 452 l 334 732 l 342 732 l 211 504 l 717 504 l 717 578 q 770 708 717 654 q 900 762 824 762 q 1031 708 977 762 q 1085 578 1085 654 q 1031 447 1085 501 q 901 394 977 394 l 827 394 l 827 217 m 901 504 q 953 525 931 504 q 975 578 975 547 q 953 630 975 608 q 901 652 931 652 q 848 630 870 652 q 827 578 827 608 l 827 504 l 901 504 "},"Ͱ":{"x_min":77,"x_max":952,"ha":1029,"o":"m 869 507 l 344 507 l 344 72 l 472 72 l 472 0 l 77 0 l 77 72 l 206 72 l 206 940 l 77 940 l 77 1013 l 472 1013 l 472 940 l 344 940 l 344 590 l 869 590 l 869 717 l 952 717 l 952 380 l 869 380 l 869 507 "},"Ğ":{"x_min":78,"x_max":1000,"ha":1109,"o":"m 888 710 q 789 897 864 836 q 580 958 714 958 q 319 845 405 958 q 233 505 233 732 q 321 167 233 282 q 582 53 410 53 q 729 71 659 53 q 862 128 798 90 l 862 390 l 671 390 l 671 463 l 1000 463 l 1000 84 q 805 6 909 32 q 583 -20 701 -20 q 215 123 353 -20 q 78 505 78 267 q 216 888 78 745 q 588 1031 354 1031 q 767 1010 675 1031 q 964 949 860 990 l 964 710 l 888 710 m 344 1290 l 407 1290 q 456 1234 420 1252 q 554 1216 492 1216 q 653 1234 617 1216 q 701 1290 689 1252 l 765 1290 q 697 1168 752 1210 q 554 1126 643 1126 q 411 1168 465 1126 q 344 1290 357 1210 "},"Ї":{"x_min":64,"x_max":486,"ha":548,"o":"m 142 1278 q 198 1254 175 1278 q 222 1199 222 1230 q 199 1142 222 1165 q 142 1120 176 1120 q 86 1142 109 1120 q 64 1199 64 1165 q 87 1254 64 1230 q 142 1278 110 1278 m 407 1278 q 462 1254 439 1278 q 486 1199 486 1230 q 463 1142 486 1165 q 407 1120 440 1120 q 350 1142 373 1120 q 328 1199 328 1165 q 351 1254 328 1230 q 407 1278 374 1278 m 343 72 l 471 72 l 471 0 l 76 0 l 76 72 l 205 72 l 205 940 l 76 940 l 76 1013 l 471 1013 l 471 940 l 343 940 l 343 72 "},"Ź":{"x_min":62.34375,"x_max":911,"ha":965,"o":"m 564 1289 l 697 1289 l 519 1110 l 440 1110 l 564 1289 m 62 0 l 62 48 l 692 930 l 169 930 l 169 778 l 86 778 l 86 1013 l 885 1013 l 885 964 l 255 83 l 828 83 l 828 224 l 911 224 l 911 0 l 62 0 "},"Ꙑ":{"x_min":47,"x_max":1457,"ha":1534,"o":"m 510 72 l 689 72 q 841 124 785 72 q 898 293 898 177 q 842 460 898 407 q 689 513 786 513 l 510 513 l 510 72 m 638 1013 l 638 940 l 510 940 l 510 596 l 659 596 q 965 508 878 596 q 1053 295 1053 420 q 688 0 1053 0 l 243 0 l 243 72 l 372 72 l 372 929 l 130 929 l 130 787 l 47 787 l 47 1013 l 638 1013 m 1328 72 l 1457 72 l 1457 0 l 1062 0 l 1062 72 l 1190 72 l 1190 940 l 1062 940 l 1062 1013 l 1457 1013 l 1457 940 l 1328 940 l 1328 72 "},"ʻ":{"x_min":142,"x_max":373.015625,"ha":442,"o":"m 373 977 q 297 875 320 933 q 274 730 274 818 l 274 688 l 142 688 q 184 887 142 806 q 320 1031 227 969 l 373 977 "},"╒":{"x_min":363,"x_max":849.75,"ha":836,"o":"m 363 -419 l 363 570 l 849 570 l 849 453 l 472 453 l 472 337 l 849 337 l 849 220 l 472 220 l 472 -419 l 363 -419 "},"Ṁ":{"x_min":69,"x_max":1351,"ha":1422,"o":"m 710 1280 q 766 1256 742 1280 q 790 1201 790 1232 q 767 1144 790 1167 q 710 1122 744 1122 q 653 1144 676 1122 q 631 1201 631 1167 q 654 1256 631 1232 q 710 1280 678 1280 m 77 0 l 77 72 l 206 72 l 206 940 l 69 940 l 69 1013 l 364 1013 l 719 291 l 1074 1013 l 1351 1013 l 1351 940 l 1217 940 l 1217 72 l 1346 72 l 1346 0 l 950 0 l 950 72 l 1079 72 l 1079 854 l 731 148 l 635 148 l 289 854 l 289 72 l 418 72 l 418 0 l 77 0 "},"ɔ":{"x_min":68.859375,"x_max":713.8125,"ha":778,"o":"m 68 505 q 170 680 95 620 q 365 741 245 741 q 618 637 522 741 q 713 360 713 532 q 618 83 713 187 q 365 -20 522 -20 q 228 -3 296 -20 q 92 44 161 11 l 92 229 l 165 229 q 227 90 179 134 q 363 47 275 47 q 516 125 464 47 q 568 360 568 204 q 516 595 568 516 q 363 673 465 673 q 235 631 283 673 q 169 505 186 589 l 68 505 "},"ᵎ":{"x_min":32,"x_max":260.265625,"ha":243,"o":"m 191 360 q 206 330 206 347 q 191 299 206 312 q 157 287 177 287 q 123 299 137 287 q 109 330 109 312 q 123 360 109 347 q 157 373 137 373 q 191 360 177 373 m 106 819 l 32 819 l 32 860 l 260 860 l 260 819 l 185 819 l 185 496 l 260 496 l 260 455 l 106 455 l 106 819 "},"𝕒":{"x_min":57,"x_max":868.09375,"ha":900,"o":"m 765 443 l 765 82 l 868 82 l 868 0 l 525 0 l 525 91 q 419 7 477 34 q 286 -20 360 -20 q 116 39 175 -20 q 57 209 57 98 q 142 391 57 331 q 398 452 227 452 l 525 452 l 525 494 q 483 624 525 582 q 355 666 442 666 q 244 636 283 666 q 189 539 205 606 l 112 539 l 112 695 q 246 729 177 718 q 392 741 315 741 q 675 669 585 741 q 765 443 765 597 m 525 226 l 525 371 l 434 371 q 331 334 367 371 q 296 229 296 297 q 322 126 296 160 q 401 92 348 92 q 491 129 457 92 q 525 226 525 166 m 607 494 l 607 82 l 683 82 l 683 443 q 669 537 683 498 q 634 596 655 576 q 579 630 612 616 q 601 563 596 595 q 607 494 607 531 m 268 65 q 214 229 214 120 q 241 349 214 298 q 163 299 188 332 q 139 208 139 266 q 171 99 139 133 q 268 65 204 65 "},"Ⴋ":{"x_min":96,"x_max":1281.84375,"ha":1307,"o":"m 441 638 q 350 629 386 638 q 295 603 315 621 q 268 555 275 585 q 261 480 261 524 l 261 226 q 268 172 261 201 q 293 121 276 144 q 335 83 309 98 q 396 69 361 69 l 477 69 q 540 82 512 69 q 586 118 567 96 q 614 168 605 140 q 624 226 624 197 l 624 638 l 441 638 m 1030 501 q 1023 573 1030 546 q 999 615 1016 600 q 954 633 982 629 q 884 638 926 638 l 789 638 l 789 226 q 775 121 789 165 q 734 51 762 78 q 662 12 706 24 q 555 0 618 0 l 373 0 q 259 13 310 0 q 171 55 207 27 q 115 126 135 83 q 96 226 96 168 l 96 476 q 442 709 96 709 l 624 709 l 624 886 l 395 886 q 342 895 366 886 q 299 924 317 905 q 271 970 281 943 q 261 1031 261 997 l 261 1107 l 177 1107 l 177 1178 l 513 1178 l 513 1107 l 426 1107 l 426 1019 q 440 972 426 988 q 479 957 455 957 l 877 957 l 877 887 l 789 887 l 789 709 l 1013 709 q 1095 700 1061 709 q 1151 670 1130 691 q 1183 611 1173 648 q 1193 516 1193 573 l 1193 142 l 1281 142 l 1281 69 l 1030 69 l 1030 501 "},"┐":{"x_min":-13.0625,"x_max":473,"ha":837,"o":"m 364 -418 l 364 337 l -13 337 l -13 454 l 473 454 l 473 -418 l 364 -418 "},"ʚ":{"x_min":69,"x_max":789,"ha":852,"o":"m 365 48 q 433 60 373 48 q 509 90 460 65 q 672 361 672 175 q 509 631 672 537 q 433 661 498 641 q 365 670 407 670 q 252 635 292 670 q 214 535 214 600 q 261 428 214 464 q 403 393 309 393 l 429 393 l 429 325 l 403 325 q 261 289 309 325 q 214 182 214 253 q 252 82 214 117 q 365 48 292 48 m 557 690 q 789 358 789 589 q 557 26 789 149 q 449 -11 518 5 q 346 -24 396 -24 q 140 28 213 -24 q 69 176 69 80 q 119 294 69 246 q 262 359 171 342 q 119 424 171 376 q 69 541 69 472 q 140 688 69 637 q 346 741 212 741 q 449 728 373 741 q 557 690 486 724 "},"↶":{"x_min":61,"x_max":1068,"ha":1164,"o":"m 1068 361 l 958 361 q 935 470 958 418 q 876 559 913 522 q 787 618 839 596 q 678 641 735 641 q 569 618 621 641 q 480 559 517 596 q 421 470 443 522 q 399 361 399 418 l 628 492 l 628 484 l 347 202 l 340 202 l 61 484 l 61 492 l 289 361 q 319 512 289 440 q 403 636 350 584 q 527 720 455 689 q 678 751 599 751 q 829 720 757 751 q 954 636 901 689 q 1037 512 1006 584 q 1068 361 1068 440 "},"ῖ":{"x_min":18,"x_max":466.25,"ha":544,"o":"m 169 197 l 169 649 l 50 649 l 50 722 l 294 722 l 294 197 q 343 79 294 102 q 466 112 381 62 l 466 30 q 231 34 328 -48 q 169 197 169 88 m 238 930 l 200 967 q 171 988 182 983 q 146 994 159 994 q 100 967 117 994 q 84 889 84 940 l 18 889 q 52 1030 18 980 q 149 1080 87 1080 q 197 1070 175 1080 q 244 1038 218 1061 l 282 1001 q 309 980 298 985 q 335 975 321 975 q 381 1002 365 975 q 398 1080 398 1029 l 464 1080 q 429 938 464 988 q 332 889 394 889 q 285 898 307 889 q 238 930 263 907 "},".":{"x_min":131,"x_max":311,"ha":441,"o":"m 131 70 q 156 134 131 108 q 221 161 182 161 q 284 134 258 161 q 311 70 311 108 q 284 6 311 32 q 221 -20 258 -20 q 156 6 182 -20 q 131 70 131 32 "},"ǀ":{"x_min":150,"x_max":260,"ha":410,"o":"m 260 1013 l 260 0 l 150 0 l 150 1013 l 260 1013 "},"ꙇ":{"x_min":50.328125,"x_max":415,"ha":545,"o":"m 169 238 l 169 649 l 50 649 l 50 722 l 294 722 l 294 238 q 322 108 294 149 q 415 67 352 67 l 415 0 q 232 63 298 0 q 169 238 169 124 "},"║":{"x_min":255,"x_max":581,"ha":837,"o":"m 255 -419 l 255 1352 l 364 1352 l 364 -419 l 255 -419 m 472 -419 l 472 1352 l 581 1352 l 581 -419 l 472 -419 "},"ʂ":{"x_min":77,"x_max":641,"ha":712,"o":"m 202 -3 l 202 -70 q 231 -199 202 -159 q 323 -241 260 -241 q 408 -211 379 -241 q 438 -116 438 -180 l 505 -116 l 505 -264 q 418 -297 463 -286 q 325 -309 374 -309 q 143 -245 209 -309 q 77 -70 77 -181 l 77 87 l 78 87 l 78 208 l 151 208 q 200 87 151 127 l 200 87 l 202 87 l 202 85 q 340 47 249 47 q 468 78 424 47 q 513 170 513 110 q 481 247 513 218 q 345 309 449 276 l 255 340 q 120 415 162 370 q 79 529 79 459 q 151 684 79 628 q 352 741 223 741 q 471 726 408 741 q 602 682 534 711 l 602 525 l 529 525 q 482 634 529 595 q 356 673 436 673 q 237 645 277 673 q 197 562 197 618 q 227 489 197 516 q 349 433 257 461 l 448 402 q 595 323 550 370 q 641 199 641 275 q 562 38 641 97 q 346 -20 484 -20 q 210 -5 276 -20 l 202 -3 "},"ԝ":{"x_min":22,"x_max":1170,"ha":1188,"o":"m 666 722 l 850 158 l 1013 649 l 909 649 l 909 722 l 1170 722 l 1170 649 l 1090 649 l 875 0 l 771 0 l 594 539 l 415 0 l 316 0 l 102 649 l 22 649 l 22 722 l 348 722 l 348 649 l 231 649 l 392 158 l 578 722 l 666 722 "},"𝕠":{"x_min":57,"x_max":871,"ha":927,"o":"m 464 57 q 571 122 540 57 q 602 360 602 187 q 571 599 602 534 q 464 664 540 664 q 356 598 387 664 q 325 360 325 533 q 356 122 325 188 q 464 57 387 57 m 762 81 q 464 -20 654 -20 q 165 81 273 -20 q 57 360 57 182 q 165 640 57 539 q 464 741 273 741 q 763 640 655 741 q 871 360 871 539 q 762 81 871 182 m 652 102 q 707 141 682 118 q 789 360 789 218 q 707 579 789 503 q 652 619 682 602 q 684 360 684 537 q 652 102 684 184 m 275 618 q 221 579 245 602 q 139 360 139 503 q 221 141 139 218 q 275 103 245 118 q 243 360 243 185 q 275 618 243 536 "},"⠘":{"x_min":600,"x_max":824,"ha":1017,"o":"m 600 599 q 631 679 600 646 q 712 712 663 712 q 791 679 758 712 q 824 599 824 646 q 791 519 824 552 q 712 487 758 487 q 631 519 663 487 q 600 599 600 552 m 600 984 q 631 1064 600 1031 q 712 1097 663 1097 q 791 1064 758 1097 q 824 984 824 1031 q 791 904 824 937 q 712 872 758 872 q 631 904 663 872 q 600 984 600 937 "},"à":{"x_min":69,"x_max":789,"ha":828,"o":"m 552 226 l 552 379 l 391 379 q 253 339 298 379 q 208 216 208 299 q 254 97 208 141 q 378 53 300 53 q 504 101 456 53 q 552 226 552 149 m 677 450 l 677 72 l 789 72 l 789 0 l 553 0 l 553 78 q 456 3 510 27 q 329 -20 402 -20 q 139 43 209 -20 q 69 216 69 107 q 149 390 69 328 q 377 452 230 452 l 553 452 l 553 501 q 503 628 553 583 q 362 673 453 673 q 243 639 288 673 q 188 539 199 605 l 124 539 l 124 685 q 250 727 189 713 q 370 741 312 741 q 598 666 520 741 q 677 450 677 592 m 287 1110 l 463 855 l 384 855 l 153 1110 l 287 1110 "},"₀":{"x_min":35,"x_max":521,"ha":557,"o":"m 169 90 q 277 27 205 27 q 386 90 350 27 q 422 284 422 154 q 386 477 422 413 q 277 541 350 541 q 169 477 205 541 q 134 284 134 413 q 169 90 134 154 m 457 67 q 278 -10 392 -10 q 98 67 163 -10 q 35 284 35 144 q 98 500 35 423 q 278 578 163 578 q 457 500 392 578 q 521 284 521 423 q 457 67 521 144 "},"⡂":{"x_min":193,"x_max":417,"ha":1017,"o":"m 193 -169 q 224 -89 193 -122 q 304 -57 256 -57 q 384 -89 351 -57 q 417 -169 417 -122 q 384 -249 417 -216 q 304 -282 351 -282 q 224 -249 256 -282 q 193 -169 193 -216 m 193 599 q 224 679 193 646 q 304 712 256 712 q 384 679 351 712 q 417 599 417 646 q 384 519 417 552 q 304 487 351 487 q 224 519 256 487 q 193 599 193 552 "},"₴":{"x_min":56,"x_max":1036,"ha":1085,"o":"m 359 369 q 339 352 348 360 q 302 240 302 313 q 365 100 302 148 q 550 53 429 53 q 743 108 679 53 q 807 279 807 163 l 887 279 l 887 48 q 711 -2 797 14 q 541 -20 624 -20 q 260 54 354 -20 q 166 276 166 129 q 178 369 166 327 l 63 369 l 63 441 l 217 441 q 224 449 221 445 q 421 553 282 512 l 546 591 q 593 606 571 598 l 56 606 l 56 678 l 729 678 q 767 787 767 718 q 711 913 767 870 q 548 958 655 958 q 365 910 425 958 q 293 756 305 861 l 217 756 l 217 970 q 396 1015 312 1000 q 550 1031 480 1031 q 807 959 716 1031 q 899 759 899 888 q 890 678 899 715 l 1029 678 l 1029 606 l 860 606 q 840 578 851 591 q 635 469 779 512 l 540 441 l 1036 441 l 1036 369 l 359 369 "},"̛":{"x_min":-205.8125,"x_max":61,"ha":-1,"o":"m -205 573 l -205 637 l -204 637 q -89 578 -120 578 q -38 600 -57 578 q -20 661 -20 623 q -24 699 -20 679 q -37 738 -28 719 l 48 738 q 57 691 54 714 q 61 647 61 668 q 30 528 61 570 q -54 486 0 486 q -123 506 -87 486 q -205 573 -158 526 "},"╮":{"x_min":-13,"x_max":473,"ha":837,"o":"m 364 -419 l 364 167 q 332 294 364 252 q 241 337 302 337 l -13 337 l -13 454 l 242 454 q 418 363 356 454 q 473 167 473 281 l 473 -419 l 364 -419 "},"Ṕ":{"x_min":77,"x_max":885,"ha":935,"o":"m 546 1288 l 680 1288 l 502 1109 l 423 1109 l 546 1288 m 344 516 l 522 516 q 676 570 623 516 q 729 728 729 625 q 676 885 729 831 q 522 940 623 940 l 344 940 l 344 516 m 77 0 l 77 72 l 206 72 l 206 940 l 77 940 l 77 1013 l 555 1013 q 796 935 707 1013 q 885 728 885 858 q 796 520 885 597 q 555 443 707 443 l 344 443 l 344 72 l 500 72 l 500 0 l 77 0 "},"̳":{"x_min":-694,"x_max":0,"ha":0,"o":"m 0 -274 l 0 -328 l -694 -328 l -694 -274 l 0 -274 m 0 -111 l 0 -165 l -694 -165 l -694 -111 l 0 -111 "},"ꜞ":{"x_min":119,"x_max":232,"ha":351,"o":"m 119 980 q 135 1016 119 1001 q 175 1031 151 1031 q 215 1016 198 1031 q 232 980 232 1001 q 215 944 232 959 q 175 930 198 930 q 135 944 151 930 q 119 980 119 959 m 120 453 l 149 765 l 149 861 l 202 861 l 202 765 l 230 453 l 120 453 "},"⡫":{"x_min":193,"x_max":824,"ha":1017,"o":"m 193 -169 q 224 -89 193 -122 q 304 -57 256 -57 q 384 -89 351 -57 q 417 -169 417 -122 q 384 -249 417 -216 q 304 -282 351 -282 q 224 -249 256 -282 q 193 -169 193 -216 m 600 215 q 631 295 600 262 q 712 328 663 328 q 791 295 758 328 q 824 215 824 262 q 791 135 824 168 q 712 103 758 103 q 631 135 663 103 q 600 215 600 168 m 600 983 q 631 1063 600 1030 q 712 1096 663 1096 q 791 1063 758 1096 q 824 983 824 1030 q 791 903 824 936 q 712 871 758 871 q 631 903 663 871 q 600 983 600 936 m 193 599 q 224 679 193 646 q 304 712 256 712 q 384 679 351 712 q 417 599 417 646 q 384 519 417 552 q 304 487 351 487 q 224 519 256 487 q 193 599 193 552 m 193 983 q 224 1063 193 1030 q 304 1096 256 1096 q 384 1063 351 1096 q 417 983 417 1030 q 384 903 417 936 q 304 871 351 871 q 224 903 256 871 q 193 983 193 936 "},"e":{"x_min":69,"x_max":750,"ha":821,"o":"m 750 347 l 214 347 l 214 341 q 269 121 214 195 q 431 47 324 47 q 566 90 513 47 q 639 218 618 133 l 739 218 q 629 39 710 99 q 418 -20 549 -20 q 164 84 260 -20 q 69 360 69 188 q 163 636 69 531 q 411 741 257 741 q 662 640 574 741 q 750 347 750 539 m 603 419 q 553 609 603 545 q 411 673 504 673 q 275 609 325 673 q 214 419 225 544 l 603 419 "},"⊏":{"x_min":147,"x_max":1028.078125,"ha":1175,"o":"m 147 0 l 147 871 l 1028 871 l 1028 762 l 257 762 l 257 109 l 1028 109 l 1028 0 l 147 0 "},"Ѓ":{"x_min":77,"x_max":861,"ha":919,"o":"m 580 1288 l 713 1288 l 536 1109 l 457 1109 l 580 1288 m 344 72 l 506 72 l 506 0 l 77 0 l 77 72 l 206 72 l 206 940 l 77 940 l 77 1013 l 861 1013 l 861 786 l 778 786 l 778 929 l 344 929 l 344 72 "},"ò":{"x_min":69,"x_max":766,"ha":836,"o":"m 417 47 q 569 126 517 47 q 620 360 620 206 q 569 594 620 515 q 417 673 517 673 q 265 594 317 673 q 214 360 214 515 q 266 126 214 206 q 417 47 317 47 m 417 -20 q 164 84 260 -20 q 69 360 69 188 q 164 637 69 533 q 417 741 259 741 q 670 637 575 741 q 766 360 766 533 q 670 84 766 188 q 417 -20 575 -20 m 319 1109 l 495 855 l 416 855 l 185 1109 l 319 1109 "},"⥘":{"x_min":298.453125,"x_max":848,"ha":1163,"o":"m 637 896 l 637 0 l 527 0 l 527 779 l 298 649 l 298 656 l 535 896 l 315 896 l 315 1006 l 848 1006 l 848 896 l 637 896 "},"ℎ":{"x_min":67.4375,"x_max":767.421875,"ha":895,"o":"m 67 0 l 258 984 l 139 984 l 152 1056 l 397 1056 l 307 593 q 418 703 356 666 q 554 741 481 741 q 716 672 673 741 q 743 562 743 631 q 731 458 743 516 l 656 72 l 767 72 l 753 0 l 517 0 l 598 419 q 612 536 612 489 q 601 600 612 577 q 496 649 578 649 q 351 585 409 649 q 270 401 293 522 l 192 0 l 67 0 "},"к":{"x_min":47,"x_max":850,"ha":867,"o":"m 397 721 l 397 649 l 284 649 l 284 368 l 588 649 l 485 649 l 485 721 l 811 721 l 811 649 l 687 649 l 473 450 l 747 72 l 850 72 l 850 0 l 495 0 l 495 72 l 598 72 l 382 368 l 284 276 l 284 72 l 397 72 l 397 0 l 47 0 l 47 72 l 159 72 l 159 649 l 47 649 l 47 721 l 397 721 "},"￼":{"x_min":0,"x_max":0,"ha":0},"⠆":{"x_min":193,"x_max":417,"ha":1017,"o":"m 193 215 q 224 295 193 262 q 304 328 256 328 q 384 295 351 328 q 417 215 417 262 q 384 135 417 168 q 304 103 351 103 q 224 135 256 103 q 193 215 193 168 m 193 599 q 224 679 193 646 q 304 712 256 712 q 384 679 351 712 q 417 599 417 646 q 384 519 417 552 q 304 487 351 487 q 224 519 256 487 q 193 599 193 552 "},"┲":{"x_min":-13.8125,"x_max":849.484375,"ha":836,"o":"m 309 -419 l 309 336 l -13 336 l -13 453 l 309 453 l 309 511 l 849 511 l 849 278 l 526 278 l 526 -419 l 309 -419 "},"⁻":{"x_min":93,"x_max":640,"ha":733,"o":"m 93 728 l 640 728 l 640 666 l 93 666 l 93 728 "},"ṉ":{"x_min":50.640625,"x_max":857,"ha":896,"o":"m 58 0 l 58 72 l 170 72 l 170 648 l 50 648 l 50 721 l 295 721 l 295 592 q 384 703 329 666 q 513 741 440 741 q 688 672 632 741 q 745 458 745 603 l 745 72 l 857 72 l 857 0 l 512 0 l 512 72 l 620 72 l 620 419 q 587 600 620 551 q 472 650 554 650 q 340 586 385 650 q 295 401 295 523 l 295 72 l 404 72 l 404 0 l 58 0 m 254 -105 l 660 -105 l 660 -205 l 254 -205 l 254 -105 "},"ᵒ":{"x_min":43,"x_max":482,"ha":534,"o":"m 167 523 q 262 479 199 479 q 357 523 325 479 q 390 654 390 567 q 357 785 390 741 q 262 830 325 830 q 167 785 199 830 q 135 654 135 741 q 167 523 135 567 m 262 442 q 103 500 163 442 q 43 655 43 558 q 102 809 43 751 q 262 868 162 868 q 422 809 362 868 q 482 655 482 751 q 422 500 482 558 q 262 442 362 442 "},"ˆ":{"x_min":130.890625,"x_max":563.5625,"ha":694,"o":"m 290 1111 l 404 1111 l 563 856 l 484 856 l 347 1032 l 209 856 l 130 856 l 290 1111 "},"ū":{"x_min":37.421875,"x_max":843,"ha":895,"o":"m 226 1035 l 632 1035 l 632 935 l 226 935 l 226 1035 m 491 721 l 725 721 l 725 72 l 843 72 l 843 0 l 600 0 l 600 127 q 510 17 565 55 q 383 -20 455 -20 q 206 48 263 -20 q 150 262 150 116 l 150 648 l 37 648 l 37 721 l 275 721 l 275 301 q 307 120 275 169 q 422 72 339 72 q 554 135 509 72 q 600 320 600 199 l 600 648 l 491 648 l 491 721 "},"ꙗ":{"x_min":40,"x_max":1209,"ha":1248,"o":"m 1098 450 l 1098 72 l 1209 72 l 1209 0 l 973 0 l 973 78 q 877 3 931 27 q 750 -20 823 -20 q 560 43 630 -20 q 490 216 490 107 q 509 314 490 271 l 285 314 l 285 72 l 397 72 l 397 0 l 47 0 l 47 72 l 160 72 l 160 650 l 40 650 l 40 721 l 397 721 l 397 648 l 285 648 l 285 395 l 576 395 q 798 452 657 452 l 973 452 l 973 501 q 923 628 973 583 q 783 673 873 673 q 664 639 708 673 q 609 539 620 605 l 545 539 l 545 685 q 671 727 610 713 q 791 741 733 741 q 1019 666 941 741 q 1098 450 1098 592 m 973 226 l 973 379 l 812 379 q 674 339 719 379 q 629 216 629 299 q 675 97 629 141 q 799 53 721 53 q 925 101 877 53 q 973 226 973 149 "},"◸":{"x_min":4,"x_max":1063.671875,"ha":1068,"o":"m 81 22 l 870 816 l 81 816 l 81 22 m 4 -170 l 4 893 l 1063 893 l 4 -170 "},"℧":{"x_min":85,"x_max":1068,"ha":1151,"o":"m 393 920 l 166 920 l 166 827 l 87 827 l 87 1031 l 488 1031 l 488 907 q 302 754 365 860 q 240 492 240 649 q 332 187 240 302 q 576 73 425 73 q 820 187 727 73 q 913 492 913 302 q 850 755 913 650 q 667 907 788 860 l 667 1031 l 1067 1031 l 1067 827 l 988 827 l 988 920 l 761 920 q 985 741 902 860 q 1068 476 1068 622 q 1029 285 1068 374 q 915 126 990 196 q 761 32 848 65 q 576 0 674 0 q 392 32 478 0 q 238 126 306 64 q 124 285 163 196 q 85 476 85 375 q 168 741 85 621 q 393 920 251 860 "},"Ν":{"x_min":68,"x_max":1154,"ha":1215,"o":"m 68 0 l 68 72 l 205 72 l 205 940 l 68 940 l 68 1013 l 327 1013 l 935 213 l 935 940 l 799 940 l 799 1013 l 1154 1013 l 1154 940 l 1018 940 l 1018 -19 l 936 -19 l 288 833 l 288 72 l 424 72 l 424 0 l 68 0 "},"⟱":{"x_min":95.171875,"x_max":1068.8125,"ha":1164,"o":"m 1068 262 l 1068 254 l 585 -28 l 578 -28 l 95 254 l 95 262 l 222 218 l 222 1005 l 332 1005 l 332 180 l 425 148 l 425 1005 l 535 1005 l 535 110 l 582 94 l 629 110 l 629 1005 l 739 1005 l 739 148 l 832 180 l 832 1005 l 942 1005 l 942 218 l 1068 262 "},"ȝ":{"x_min":47.984375,"x_max":648,"ha":724,"o":"m 207 639 q 120 480 137 594 l 47 480 l 47 664 q 195 714 108 692 q 375 736 281 736 q 547 679 468 736 q 626 538 626 623 q 579 393 626 452 q 460 292 533 334 q 595 222 543 281 q 648 108 648 163 q 561 -85 648 -11 q 316 -215 475 -159 q 48 -294 158 -271 l 48 -226 q 265 -150 154 -197 q 451 -33 377 -103 q 508 90 508 20 q 466 198 508 159 q 292 216 400 258 l 153 161 l 153 229 l 292 287 q 429 390 371 320 q 482 525 482 454 q 433 633 482 596 q 325 670 385 670 q 207 639 254 670 "},"ℕ":{"x_min":61,"x_max":1214,"ha":1270,"o":"m 61 0 l 61 82 l 190 82 l 190 931 l 61 931 l 61 1013 l 377 1013 l 989 295 l 989 931 l 860 931 l 860 1013 l 1214 1013 l 1214 931 l 1085 931 l 1085 0 l 906 0 l 286 732 l 286 82 l 415 82 l 415 0 l 61 0 m 272 931 l 272 875 l 944 82 l 1002 82 l 1002 153 l 339 931 l 272 931 "},"œ":{"x_min":69,"x_max":1302,"ha":1373,"o":"m 417 47 q 569 126 517 47 q 620 360 620 206 q 569 594 620 515 q 417 673 517 673 q 265 594 317 673 q 214 360 214 515 q 266 126 214 206 q 417 47 317 47 m 1302 347 l 766 347 l 766 341 q 820 121 766 195 q 983 47 875 47 q 1117 90 1065 47 q 1191 218 1170 133 l 1291 218 q 1181 39 1262 99 q 970 -20 1101 -20 q 812 13 882 -20 q 692 112 742 46 q 575 13 645 47 q 417 -20 505 -20 q 164 84 260 -20 q 69 360 69 188 q 164 637 69 533 q 417 741 259 741 q 576 707 506 741 q 694 608 646 673 q 811 707 743 673 q 962 741 879 741 q 1214 640 1127 741 q 1302 347 1302 539 m 1155 419 q 1105 609 1155 545 q 963 673 1056 673 q 826 609 876 673 q 766 419 776 544 l 1155 419 "},"Ὲ":{"x_min":4.921875,"x_max":1154,"ha":1265,"o":"m 328 0 l 328 72 l 457 72 l 457 940 l 328 940 l 328 1013 l 1143 1013 l 1143 787 l 1060 787 l 1060 929 l 595 929 l 595 590 l 927 590 l 927 717 l 1010 717 l 1010 380 l 927 380 l 927 507 l 595 507 l 595 83 l 1071 83 l 1071 225 l 1154 225 l 1154 0 l 328 0 m 138 1110 l 314 855 l 235 855 l 4 1110 l 138 1110 "},"⇦":{"x_min":51.96875,"x_max":1085,"ha":1164,"o":"m 1017 561 l 308 561 l 308 607 l 148 449 l 308 290 l 308 337 l 1017 337 l 1017 561 m 1085 629 l 1085 269 l 376 269 l 376 165 l 334 165 l 51 445 l 51 452 l 334 732 l 376 732 l 376 629 l 1085 629 "},"Ɵ":{"x_min":78,"x_max":1061,"ha":1138,"o":"m 569 -20 q 380 13 466 -20 q 227 113 293 47 q 114 286 151 189 q 78 505 78 382 q 114 724 78 627 q 227 897 151 821 q 379 997 294 963 q 569 1031 465 1031 q 925 886 789 1031 q 1061 505 1061 741 q 1023 286 1061 383 q 910 113 986 189 q 758 13 843 47 q 569 -20 673 -20 m 569 53 q 822 166 737 53 q 901 470 901 272 l 237 470 q 315 166 237 272 q 569 53 401 53 m 900 553 q 823 843 900 742 q 569 958 738 958 q 315 843 401 958 q 239 553 239 742 l 900 553 "},"ᵛ":{"x_min":-3,"x_max":491,"ha":517,"o":"m 216 453 l 48 816 l -3 816 l -3 857 l 206 857 l 206 816 l 133 816 l 261 538 l 388 816 l 321 816 l 321 857 l 491 857 l 491 816 l 440 816 l 273 453 l 216 453 "},"ș":{"x_min":78,"x_max":642,"ha":713,"o":"m 78 39 l 78 208 l 151 208 q 199 87 151 127 q 341 47 247 47 q 469 78 425 47 q 514 170 514 110 q 481 247 514 218 q 345 309 449 276 l 255 340 q 120 415 162 370 q 79 529 79 459 q 151 684 79 628 q 352 741 224 741 q 472 726 409 741 q 603 682 535 711 l 603 525 l 530 525 q 483 634 530 595 q 357 673 437 673 q 237 645 278 673 q 197 562 197 618 q 227 489 197 516 q 349 433 258 461 l 448 402 q 596 323 551 370 q 642 199 642 275 q 563 38 642 97 q 347 -20 485 -20 q 211 -5 277 -20 q 78 39 144 9 m 210 -279 q 286 -213 262 -251 q 310 -120 310 -175 l 310 -106 l 414 -106 q 374 -225 414 -175 q 254 -312 334 -275 l 210 -279 "},"◺":{"x_min":4,"x_max":1063.671875,"ha":1068,"o":"m 81 -94 l 870 -94 l 81 699 l 81 -94 m 4 -171 l 4 892 l 1063 -171 l 4 -171 "},"ἱ":{"x_min":50.328125,"x_max":466.25,"ha":544,"o":"m 169 197 l 169 649 l 50 649 l 50 722 l 294 722 l 294 197 q 344 79 294 102 q 466 112 382 62 l 466 30 q 231 34 328 -48 q 169 197 169 88 m 229 1153 q 282 1136 259 1153 q 320 1061 320 1109 q 294 998 320 1023 q 237 973 271 973 q 298 863 244 915 l 248 843 q 243 847 246 844 q 136 1051 136 941 l 136 1061 q 156 1115 136 1091 q 229 1153 183 1153 "},"Ѵ":{"x_min":16,"x_max":1177,"ha":1193,"o":"m 16 941 l 16 1014 l 385 1014 l 385 941 l 272 941 l 571 163 l 870 941 q 1014 1032 904 1032 q 1089 1022 1057 1032 q 1177 987 1122 1012 l 1177 839 l 1113 839 q 1084 935 1113 908 q 1020 963 1056 963 q 948 924 964 963 l 593 1 l 476 1 l 117 941 l 16 941 "},"Ȫ":{"x_min":78,"x_max":1061,"ha":1138,"o":"m 367 1502 l 773 1502 l 773 1402 l 367 1402 l 367 1502 m 569 53 q 820 167 735 53 q 905 505 905 281 q 820 843 905 729 q 569 958 735 958 q 317 843 402 958 q 233 505 233 729 q 317 167 233 281 q 569 53 402 53 m 569 -20 q 380 13 466 -20 q 227 113 293 47 q 114 286 151 189 q 78 505 78 382 q 114 724 78 627 q 227 897 151 821 q 379 997 294 963 q 569 1031 465 1031 q 925 886 789 1031 q 1061 505 1061 741 q 1023 286 1061 383 q 910 113 986 188 q 758 13 844 47 q 569 -20 673 -20 m 437 1278 q 493 1254 470 1278 q 517 1199 517 1230 q 494 1142 517 1165 q 437 1120 471 1120 q 381 1142 404 1120 q 359 1199 359 1165 q 382 1254 359 1230 q 437 1278 405 1278 m 702 1278 q 757 1254 734 1278 q 781 1199 781 1230 q 758 1142 781 1165 q 702 1120 735 1120 q 645 1142 668 1120 q 623 1199 623 1165 q 646 1254 623 1230 q 702 1278 669 1278 "},"ˈ":{"x_min":144,"x_max":244,"ha":382,"o":"m 144 731 l 144 1055 l 244 1055 l 244 731 l 144 731 "},"ɘ":{"x_min":71,"x_max":753,"ha":822,"o":"m 71 347 q 158 640 71 539 q 410 741 246 741 q 658 636 563 741 q 753 360 753 531 q 656 83 753 188 q 403 -20 561 -20 q 191 39 272 -20 q 81 218 111 99 l 182 218 q 255 90 203 133 q 390 47 308 47 q 552 121 497 47 q 607 341 607 195 l 607 347 l 71 347 m 219 419 l 607 419 q 546 609 596 544 q 411 673 497 673 q 270 609 319 673 q 219 419 219 545 "},"₈":{"x_min":36,"x_max":520,"ha":557,"o":"m 382 61 q 420 155 420 94 q 382 250 420 216 q 277 284 345 284 q 173 250 210 284 q 136 155 136 216 q 173 61 136 94 q 277 27 210 27 q 382 61 345 27 m 401 431 q 368 511 401 483 q 278 541 336 541 q 187 511 219 541 q 155 431 155 483 q 187 351 155 379 q 278 322 219 322 q 368 351 336 322 q 401 431 401 379 m 350 303 q 475 254 429 294 q 520 155 520 215 q 456 32 520 75 q 277 -10 394 -10 q 99 32 161 -10 q 36 155 36 75 q 80 254 36 214 q 206 303 126 294 q 97 347 135 313 q 59 431 59 380 q 117 538 59 499 q 278 578 175 578 q 438 538 379 578 q 497 431 497 499 q 458 347 497 380 q 350 303 420 313 "},"ạ":{"x_min":69,"x_max":789,"ha":828,"o":"m 552 226 l 552 379 l 391 379 q 253 339 298 379 q 208 216 208 299 q 254 97 208 141 q 378 53 300 53 q 504 101 456 53 q 552 226 552 149 m 677 450 l 677 72 l 789 72 l 789 0 l 553 0 l 553 78 q 456 3 510 27 q 329 -20 402 -20 q 139 43 209 -20 q 69 216 69 107 q 149 390 69 328 q 377 452 230 452 l 553 452 l 553 501 q 503 628 553 583 q 362 673 453 673 q 243 639 288 673 q 188 539 199 605 l 124 539 l 124 685 q 250 727 189 713 q 370 741 312 741 q 598 666 520 741 q 677 450 677 592 m 385 -107 q 441 -130 418 -107 q 465 -186 465 -153 q 442 -243 465 -221 q 385 -266 420 -266 q 328 -243 350 -266 q 306 -186 306 -221 q 329 -130 306 -153 q 385 -107 352 -107 "},"⇖":{"x_min":205,"x_max":1059.5,"ha":1164,"o":"m 211 418 l 205 423 l 205 821 l 209 825 l 607 825 l 611 819 l 491 784 l 1059 216 l 982 138 l 371 749 l 301 728 l 281 658 l 891 48 l 814 -29 l 246 538 l 211 418 "},"д":{"x_min":50,"x_max":798,"ha":855,"o":"m 301 638 l 301 520 q 282 259 301 360 q 248 92 264 158 q 250 85 247 87 q 270 83 253 83 l 561 83 l 561 638 l 301 638 m 218 649 l 106 649 l 106 721 l 798 721 l 798 649 l 686 649 l 686 71 l 798 71 l 798 -192 l 727 -192 l 716 -96 q 637 0 705 0 l 210 0 q 131 -96 142 0 l 120 -192 l 50 -192 l 50 72 l 88 72 q 170 153 138 72 q 209 320 201 234 q 218 521 218 406 l 218 649 "},"ӥ":{"x_min":47,"x_max":852,"ha":925,"o":"m 330 1065 q 386 1041 363 1065 q 410 985 410 1018 q 387 928 410 950 q 330 906 365 906 q 274 928 296 906 q 252 985 252 950 q 275 1041 252 1018 q 330 1065 298 1065 m 595 1065 q 650 1041 627 1065 q 674 985 674 1018 q 651 928 674 950 q 595 906 629 906 q 538 928 560 906 q 516 985 516 950 q 539 1041 516 1018 q 595 1065 562 1065 m 47 0 l 47 72 l 159 72 l 159 649 l 47 649 l 47 721 l 397 721 l 397 649 l 284 649 l 284 235 l 615 584 l 615 649 l 502 649 l 502 721 l 852 721 l 852 649 l 740 649 l 740 72 l 852 72 l 852 0 l 502 0 l 502 72 l 615 72 l 615 474 l 284 125 l 284 72 l 397 72 l 397 0 l 47 0 "},"ʛ":{"x_min":69,"x_max":991.46875,"ha":908,"o":"m 690 492 l 617 492 q 555 630 597 598 q 419 674 500 674 q 269 591 330 674 q 209 347 209 511 q 271 104 209 187 q 485 37 324 37 q 575 57 527 37 q 619 77 610 72 l 619 272 l 484 272 l 484 324 l 715 324 l 715 51 q 578 -5 651 13 q 423 -25 506 -25 q 165 78 262 -25 q 69 355 69 182 q 165 631 69 528 q 426 735 262 735 q 551 720 487 735 l 564 717 l 564 818 q 629 992 564 929 q 812 1056 695 1056 q 905 1045 861 1056 q 991 1011 949 1033 l 991 863 l 927 863 q 893 958 922 927 q 809 988 865 988 q 718 947 747 988 q 689 817 689 907 l 689 677 l 690 676 l 690 492 "},"┆":{"x_min":363,"x_max":472,"ha":836,"o":"m 363 -419 l 363 110 l 472 110 l 472 -419 l 363 -419 m 363 233 l 363 701 l 472 701 l 472 233 l 363 233 m 363 823 l 363 1352 l 472 1352 l 472 823 l 363 823 "},"Ḙ":{"x_min":76.40625,"x_max":902,"ha":1013,"o":"m 450 -79 l 564 -79 l 723 -333 l 645 -333 l 507 -157 l 369 -333 l 290 -333 l 450 -79 m 76 0 l 76 72 l 205 72 l 205 940 l 76 940 l 76 1013 l 891 1013 l 891 787 l 808 787 l 808 929 l 343 929 l 343 590 l 675 590 l 675 717 l 758 717 l 758 380 l 675 380 l 675 507 l 343 507 l 343 83 l 819 83 l 819 225 l 902 225 l 902 0 l 76 0 "},"⠴":{"x_min":193,"x_max":824,"ha":1017,"o":"m 600 215 q 631 295 600 262 q 712 328 663 328 q 791 295 758 328 q 824 215 824 262 q 791 135 824 168 q 712 103 758 103 q 631 135 663 103 q 600 215 600 168 m 600 599 q 631 679 600 646 q 712 712 663 712 q 791 679 758 712 q 824 599 824 646 q 791 519 824 552 q 712 487 758 487 q 631 519 663 487 q 600 599 600 552 m 193 215 q 224 295 193 262 q 304 328 256 328 q 384 295 351 328 q 417 215 417 262 q 384 135 417 168 q 304 103 351 103 q 224 135 256 103 q 193 215 193 168 "},"ʐ":{"x_min":55.1875,"x_max":982,"ha":828,"o":"m 55 0 l 55 58 l 506 648 l 149 648 l 149 523 l 77 523 l 77 721 l 667 721 l 667 662 l 215 72 l 680 72 l 680 -70 q 708 -199 680 -159 q 800 -241 738 -241 q 885 -211 856 -241 q 915 -116 915 -180 l 982 -116 l 982 -264 q 895 -297 940 -286 q 802 -309 851 -309 q 620 -245 688 -309 q 555 -70 555 -183 l 555 0 l 55 0 "},"ὂ":{"x_min":69,"x_max":766,"ha":836,"o":"m 417 47 q 569 126 517 47 q 620 360 620 206 q 569 594 620 515 q 417 673 517 673 q 265 594 317 673 q 214 360 214 515 q 266 126 214 206 q 417 47 317 47 m 417 -20 q 164 84 260 -20 q 69 360 69 188 q 164 637 69 533 q 417 741 259 741 q 670 637 575 741 q 766 360 766 533 q 670 84 766 188 q 417 -20 575 -20 m 239 1152 q 311 1114 285 1152 q 332 1061 332 1091 l 332 1050 q 224 846 332 940 q 220 842 221 844 l 170 863 q 230 972 223 914 q 174 997 197 972 q 149 1061 149 1023 q 185 1135 149 1108 q 239 1152 208 1152 m 490 1110 l 666 855 l 586 855 l 356 1110 l 490 1110 "},"↟":{"x_min":298.453125,"x_max":866,"ha":1164,"o":"m 637 0 l 527 0 l 527 704 l 298 573 l 298 580 l 527 811 l 527 873 l 299 742 l 299 750 l 578 1033 l 585 1033 l 866 750 l 866 742 l 637 873 l 637 811 l 866 580 l 866 573 l 637 704 l 637 0 "},"î":{"x_min":5.921875,"x_max":438.453125,"ha":444,"o":"m 294 72 l 412 72 l 412 0 l 50 0 l 50 72 l 169 72 l 169 649 l 50 649 l 50 722 l 294 722 l 294 72 m 164 1111 l 279 1111 l 438 856 l 359 856 l 221 1032 l 84 856 l 5 856 l 164 1111 "},"ύ":{"x_min":50.328125,"x_max":776,"ha":845,"o":"m 500 721 l 575 721 q 731 588 690 667 q 776 345 776 500 q 747 205 776 270 q 663 88 717 137 q 550 20 614 43 q 414 -3 487 -3 q 232 62 303 -3 q 169 237 169 119 l 169 648 l 50 648 l 50 721 l 294 721 l 294 237 q 322 108 294 148 q 414 66 351 66 q 575 155 499 66 q 637 356 637 227 q 611 579 637 539 q 500 680 566 648 l 500 721 m 451 1111 l 586 1111 l 355 856 l 276 856 l 451 1111 "},"ϰ":{"x_min":62.734375,"x_max":800.265625,"ha":866,"o":"m 524 485 q 588 597 541 535 q 795 715 749 806 q 792 656 806 692 q 683 516 765 587 l 622 455 q 561 171 551 276 q 602 89 567 115 q 641 68 631 68 q 701 87 682 68 q 725 154 721 107 l 789 154 l 789 16 q 721 0 755 5 q 656 -5 687 -5 q 567 26 615 -5 q 492 141 518 58 q 479 354 464 226 q 439 328 465 340 q 338 263 372 295 q 271 139 298 175 q 64 20 110 -70 q 67 80 59 32 q 179 234 81 158 l 240 291 q 298 565 307 468 q 257 647 292 621 q 218 669 228 669 q 158 649 177 669 q 134 583 138 629 l 71 583 l 71 720 q 138 736 104 731 q 203 742 172 742 q 292 710 244 742 q 367 595 343 677 q 377 392 392 513 q 412 416 399 409 q 524 485 461 440 "},"ɓ":{"x_min":40,"x_max":819,"ha":889,"o":"m 285 655 l 285 608 q 378 708 321 676 q 518 741 434 741 q 734 635 650 741 q 819 360 819 530 q 734 85 819 191 q 518 -20 650 -20 q 378 11 434 -20 q 285 112 321 44 l 285 0 l 40 0 l 40 72 l 160 72 l 160 660 l 160 817 q 226 991 160 928 q 408 1055 292 1055 q 502 1044 457 1055 q 588 1010 546 1032 l 588 862 l 521 862 q 491 957 521 927 q 406 988 462 988 q 314 946 344 988 q 285 817 285 906 l 285 655 m 285 324 q 335 125 285 194 q 479 58 384 58 q 623 134 574 58 q 673 360 673 211 q 623 586 673 510 q 479 663 574 663 q 335 594 384 663 q 285 396 285 525 l 285 324 "},"ǫ":{"x_min":69,"x_max":766,"ha":836,"o":"m 385 -11 l 449 -11 l 449 -12 q 390 -127 390 -95 q 412 -178 390 -159 q 473 -197 435 -197 q 511 -192 491 -197 q 550 -179 531 -188 l 550 -265 q 503 -274 526 -271 q 459 -278 480 -278 q 340 -247 382 -278 q 298 -162 298 -217 q 318 -93 298 -129 q 385 -11 338 -57 m 417 47 q 569 126 517 47 q 620 360 620 205 q 569 594 620 515 q 417 673 517 673 q 265 594 317 673 q 214 360 214 515 q 266 126 214 205 q 417 47 317 47 m 417 -20 q 164 84 260 -20 q 69 360 69 188 q 164 636 69 532 q 417 740 259 740 q 670 636 575 740 q 766 360 766 532 q 670 84 766 188 q 417 -20 575 -20 "},"⢧":{"x_min":193,"x_max":824,"ha":1017,"o":"m 600 -169 q 631 -89 600 -122 q 712 -57 663 -57 q 791 -89 758 -57 q 824 -169 824 -122 q 791 -249 824 -216 q 712 -282 758 -282 q 631 -249 663 -282 q 600 -169 600 -216 m 600 215 q 631 295 600 262 q 712 328 663 328 q 791 295 758 328 q 824 215 824 262 q 791 135 824 168 q 712 103 758 103 q 631 135 663 103 q 600 215 600 168 m 193 215 q 224 295 193 262 q 304 328 256 328 q 384 295 351 328 q 417 215 417 262 q 384 135 417 168 q 304 103 351 103 q 224 135 256 103 q 193 215 193 168 m 193 599 q 224 679 193 646 q 304 712 256 712 q 384 679 351 712 q 417 599 417 646 q 384 519 417 552 q 304 487 351 487 q 224 519 256 487 q 193 599 193 552 m 193 983 q 224 1063 193 1030 q 304 1096 256 1096 q 384 1063 351 1096 q 417 983 417 1030 q 384 903 417 936 q 304 871 351 871 q 224 903 256 871 q 193 983 193 936 "},"⠗":{"x_min":193,"x_max":824,"ha":1017,"o":"m 600 599 q 631 679 600 646 q 712 712 663 712 q 791 679 758 712 q 824 599 824 646 q 791 519 824 552 q 712 487 758 487 q 631 519 663 487 q 600 599 600 552 m 193 215 q 224 295 193 262 q 304 328 256 328 q 384 295 351 328 q 417 215 417 262 q 384 135 417 168 q 304 103 351 103 q 224 135 256 103 q 193 215 193 168 m 193 599 q 224 679 193 646 q 304 712 256 712 q 384 679 351 712 q 417 599 417 646 q 384 519 417 552 q 304 487 351 487 q 224 519 256 487 q 193 599 193 552 m 193 984 q 224 1064 193 1031 q 304 1097 256 1097 q 384 1064 351 1097 q 417 984 417 1031 q 384 904 417 937 q 304 872 351 872 q 224 904 256 872 q 193 984 193 937 "},"":{"x_min":83,"x_max":1025,"ha":1108,"o":"m 651 1013 q 648 1048 651 1033 q 637 1071 645 1063 q 615 1084 630 1080 q 577 1089 601 1089 q 543 1085 557 1089 q 522 1074 530 1082 q 511 1051 514 1065 q 508 1013 508 1036 q 511 977 508 991 q 521 953 514 963 q 542 935 529 943 q 576 918 556 927 q 612 938 598 928 q 635 958 627 947 q 647 982 644 969 q 651 1013 651 995 m 587 448 q 496 471 534 452 q 433 518 458 490 q 396 582 408 547 q 384 654 384 617 q 391 714 384 684 q 415 773 399 744 q 452 826 430 801 q 503 871 474 852 q 455 894 475 881 q 423 924 435 907 q 405 962 411 941 q 400 1013 400 984 q 413 1092 400 1060 q 449 1142 426 1123 q 506 1169 473 1161 q 577 1177 538 1177 q 651 1169 618 1177 q 707 1142 684 1161 q 742 1091 730 1123 q 755 1013 755 1060 q 735 940 755 974 q 664 883 715 906 q 827 819 759 858 q 939 726 896 780 q 1004 604 983 672 q 1025 453 1025 536 q 1011 331 1025 391 q 970 218 997 272 q 905 119 944 164 q 817 42 866 74 q 708 -8 768 9 q 580 -27 649 -27 q 422 -8 493 -27 q 296 42 352 9 q 201 122 241 76 q 134 224 160 168 q 95 344 108 280 q 83 475 83 407 q 92 616 83 554 q 121 730 101 678 q 174 828 142 782 q 253 923 207 874 q 216 913 233 916 q 183 911 199 911 q 139 917 160 911 q 99 940 118 924 l 99 1088 q 175 1025 133 1046 q 257 1004 216 1004 q 274 1006 264 1004 q 291 1015 283 1009 l 317 1015 l 317 940 q 296 899 306 927 q 279 834 285 871 q 268 755 272 797 q 265 671 265 713 q 265 590 265 629 q 265 523 265 551 q 284 322 265 406 q 343 184 304 238 q 440 103 381 129 q 577 78 498 78 q 705 103 653 78 q 788 180 756 128 q 832 312 819 232 q 846 500 846 391 q 830 597 846 547 q 781 693 814 647 q 698 777 748 739 q 580 837 648 815 q 504 766 530 806 q 478 689 478 727 q 504 623 478 654 q 587 578 531 593 l 587 448 "},"⥼":{"x_min":235,"x_max":947,"ha":1164,"o":"m 472 29 q 304 98 373 29 q 235 266 235 168 q 304 434 235 364 q 320 449 312 442 q 304 463 312 455 q 235 631 235 533 q 304 799 235 729 q 472 869 373 869 l 472 759 q 382 721 419 759 q 345 631 345 684 q 382 541 345 578 q 472 504 419 504 l 947 504 l 947 394 l 472 394 q 382 356 419 394 q 345 266 345 319 q 382 176 345 213 q 472 139 419 139 l 472 29 "},"‸":{"x_min":7.453125,"x_max":463.1875,"ha":471,"o":"m 463 -328 l 362 -328 l 236 -159 l 108 -328 l 7 -328 l 236 -41 l 463 -328 "},"↨":{"x_min":298.453125,"x_max":865.546875,"ha":1164,"o":"m 848 0 l 315 0 l 315 110 l 535 110 l 298 349 l 298 357 l 527 226 l 527 874 l 298 743 l 298 750 l 578 1033 l 585 1033 l 865 750 l 865 743 l 637 874 l 637 226 l 865 357 l 865 349 l 628 110 l 848 110 l 848 0 "},"Ξ":{"x_min":77,"x_max":892,"ha":977,"o":"m 809 128 l 809 225 l 892 225 l 892 0 l 77 0 l 77 225 l 160 225 l 160 128 l 809 128 m 809 885 l 160 885 l 160 787 l 77 787 l 77 1013 l 892 1013 l 892 787 l 809 787 l 809 885 m 325 507 l 325 380 l 242 380 l 242 717 l 325 717 l 325 590 l 644 590 l 644 717 l 727 717 l 727 380 l 644 380 l 644 507 l 325 507 "},"⥏":{"x_min":527,"x_max":865.546875,"ha":1164,"o":"m 535 -32 l 527 -32 l 527 1037 l 535 1037 l 865 702 l 865 695 l 637 826 l 637 178 l 865 309 l 865 302 l 535 -32 "},"𝕗":{"x_min":42.84375,"x_max":672.109375,"ha":598,"o":"m 672 875 l 596 875 q 565 954 590 928 q 493 980 539 980 q 414 940 438 980 q 390 814 390 901 l 390 721 l 571 721 l 571 639 l 390 639 l 390 82 l 530 82 l 530 0 l 48 0 l 48 82 l 150 82 l 150 639 l 42 639 l 42 721 l 150 721 l 150 811 q 226 993 150 931 q 451 1056 303 1056 q 564 1049 509 1056 q 672 1030 619 1043 l 672 875 m 331 957 q 253 902 275 939 q 232 811 232 865 l 232 82 l 308 82 l 308 813 q 331 957 308 902 "},"⡉":{"x_min":193,"x_max":824,"ha":1017,"o":"m 193 -169 q 224 -89 193 -122 q 304 -57 256 -57 q 384 -89 351 -57 q 417 -169 417 -122 q 384 -249 417 -216 q 304 -282 351 -282 q 224 -249 256 -282 q 193 -169 193 -216 m 600 983 q 631 1063 600 1030 q 712 1096 663 1096 q 791 1063 758 1096 q 824 983 824 1030 q 791 903 824 936 q 712 871 758 871 q 631 903 663 871 q 600 983 600 936 m 193 983 q 224 1063 193 1030 q 304 1096 256 1096 q 384 1063 351 1096 q 417 983 417 1030 q 384 903 417 936 q 304 871 351 871 q 224 903 256 871 q 193 983 193 936 "},"ŵ":{"x_min":22,"x_max":1170,"ha":1188,"o":"m 539 1112 l 653 1112 l 812 857 l 733 857 l 596 1033 l 458 857 l 379 857 l 539 1112 m 666 722 l 850 158 l 1013 649 l 909 649 l 909 722 l 1170 722 l 1170 649 l 1090 649 l 875 0 l 771 0 l 594 539 l 415 0 l 316 0 l 102 649 l 22 649 l 22 722 l 348 722 l 348 649 l 231 649 l 392 158 l 578 722 l 666 722 "},"⣑":{"x_min":193,"x_max":824,"ha":1017,"o":"m 600 -169 q 631 -89 600 -122 q 712 -57 663 -57 q 791 -89 758 -57 q 824 -169 824 -122 q 791 -249 824 -216 q 712 -282 758 -282 q 631 -249 663 -282 q 600 -169 600 -216 m 193 -169 q 224 -89 193 -122 q 304 -57 256 -57 q 384 -89 351 -57 q 417 -169 417 -122 q 384 -249 417 -216 q 304 -282 351 -282 q 224 -249 256 -282 q 193 -169 193 -216 m 600 599 q 631 679 600 646 q 712 712 663 712 q 791 679 758 712 q 824 599 824 646 q 791 519 824 552 q 712 487 758 487 q 631 519 663 487 q 600 599 600 552 m 193 983 q 224 1063 193 1030 q 304 1096 256 1096 q 384 1063 351 1096 q 417 983 417 1030 q 384 903 417 936 q 304 871 351 871 q 224 903 256 871 q 193 983 193 936 "},"ᾚ":{"x_min":7,"x_max":1607,"ha":1684,"o":"m 1197 -277 l 1148 -288 q 1027 -171 1027 -315 l 1027 -83 l 1128 -83 l 1128 -180 q 1162 -234 1128 -243 l 1197 -225 l 1197 -277 m 549 0 l 549 72 l 678 72 l 678 940 l 549 940 l 549 1013 l 944 1013 l 944 940 l 816 940 l 816 590 l 1340 590 l 1340 940 l 1212 940 l 1212 1013 l 1607 1013 l 1607 940 l 1478 940 l 1478 72 l 1607 72 l 1607 0 l 1212 0 l 1212 72 l 1340 72 l 1340 507 l 816 507 l 816 72 l 944 72 l 944 0 l 549 0 m 97 1152 q 169 1114 143 1152 q 190 1061 190 1091 l 190 1050 q 82 846 190 940 q 78 842 79 844 l 28 863 q 88 972 81 914 q 32 997 55 972 q 7 1061 7 1023 q 43 1135 7 1108 q 97 1152 66 1152 m 348 1110 l 524 855 l 445 855 l 214 1110 l 348 1110 "},"╠":{"x_min":255,"x_max":850.234375,"ha":837,"o":"m 472 453 l 472 1351 l 581 1351 l 581 570 l 850 570 l 850 453 l 472 453 m 255 -419 l 255 1352 l 364 1352 l 364 -419 l 255 -419 m 472 -419 l 472 337 l 850 337 l 850 220 l 581 220 l 581 -419 l 472 -419 "},"№":{"x_min":52,"x_max":1245,"ha":1315,"o":"m 1196 580 q 1245 421 1245 515 q 1196 263 1245 328 q 1077 198 1147 198 q 957 263 1006 198 q 909 421 909 328 q 957 580 909 515 q 1077 645 1006 645 q 1196 580 1147 645 m 1076 298 q 1143 333 1116 298 q 1170 421 1170 369 q 1143 509 1170 473 q 1076 545 1116 545 q 1010 509 1036 545 q 984 421 984 474 q 1010 333 984 368 q 1076 298 1036 298 m 909 70 l 1244 70 l 1244 -1 l 909 -1 l 909 70 m 701 812 q 745 959 701 906 q 933 1013 789 1013 l 933 919 q 807 899 830 919 q 784 825 784 880 l 784 -20 l 702 -20 l 284 834 l 284 180 q 239 33 284 86 q 52 -20 195 -20 l 52 74 q 177 93 154 74 q 201 167 201 112 l 201 940 l 72 940 l 72 1013 l 324 1013 l 701 213 l 701 812 "},"╹":{"x_min":309,"x_max":526,"ha":836,"o":"m 309 395 l 309 1352 l 526 1352 l 526 395 l 309 395 "},"ẏ":{"x_min":-4,"x_max":781,"ha":785,"o":"m 300 -132 l 347 -12 l 78 648 l -4 648 l -4 721 l 328 721 l 328 648 l 212 648 l 415 152 l 618 648 l 510 648 l 510 721 l 781 721 l 781 648 l 700 648 l 369 -162 q 294 -277 336 -246 q 178 -309 253 -309 q 112 -303 146 -309 q 45 -287 78 -298 l 45 -150 l 108 -150 q 131 -216 112 -196 q 192 -236 151 -236 q 252 -215 229 -236 q 300 -132 274 -194 m 387 1065 q 443 1041 420 1065 q 467 985 467 1018 q 444 928 467 950 q 387 906 422 906 q 330 928 352 906 q 308 985 308 950 q 331 1041 308 1018 q 387 1065 354 1065 "},"┍":{"x_min":363,"x_max":849.75,"ha":836,"o":"m 363 -419 l 363 511 l 849 511 l 849 278 l 472 278 l 472 -419 l 363 -419 "},"ƫ":{"x_min":40,"x_max":547,"ha":558,"o":"m 150 648 l 40 648 l 40 721 l 150 721 l 150 944 l 275 944 l 275 721 l 510 721 l 510 648 l 275 648 l 275 190 q 292 72 275 98 q 358 47 310 47 q 429 75 407 47 q 452 169 452 104 l 547 169 l 547 -71 q 481 -245 547 -182 q 299 -309 415 -309 q 206 -297 250 -309 q 120 -264 161 -286 l 120 -116 l 186 -116 q 215 -211 186 -180 q 300 -241 244 -241 q 392 -199 362 -241 q 421 -70 421 -159 l 421 -11 q 346 -20 388 -20 q 194 27 239 -20 q 150 190 150 75 l 150 648 "},"ί":{"x_min":50.328125,"x_max":466.25,"ha":544,"o":"m 169 197 l 169 649 l 50 649 l 50 722 l 294 722 l 294 197 q 344 79 294 102 q 466 112 382 62 l 466 30 q 231 34 328 -48 q 169 197 169 88 m 316 1112 l 451 1112 l 221 857 l 141 857 l 316 1112 "},"":{"x_min":81,"x_max":897,"ha":980,"o":"m 456 977 q 434 1050 456 1027 q 360 1074 413 1074 q 308 1058 328 1074 q 278 1012 288 1042 q 263 938 267 982 q 260 840 260 895 l 260 776 q 358 811 320 794 q 418 849 396 827 q 448 901 440 870 q 456 977 456 931 m 897 824 q 868 724 897 765 q 796 657 839 682 q 835 632 817 647 q 867 600 854 618 q 889 561 881 582 q 897 514 897 539 q 888 470 897 489 q 866 436 880 451 q 833 409 852 421 q 794 387 815 398 q 834 358 815 374 q 866 318 853 341 q 888 264 880 294 q 897 196 897 234 q 868 97 897 139 q 786 27 839 55 q 659 -13 733 0 q 495 -27 585 -27 q 390 -18 441 -27 q 293 7 339 -10 q 208 57 247 26 q 141 133 169 88 q 96 240 112 179 q 81 382 81 302 l 81 672 q 98 908 81 811 q 151 1064 116 1004 q 238 1150 186 1124 q 357 1177 289 1177 q 511 1119 462 1177 q 560 948 560 1062 q 545 852 560 892 q 494 782 530 812 q 402 727 459 751 q 260 677 345 703 l 260 395 q 278 229 260 292 q 330 133 297 166 q 405 88 362 99 q 495 78 447 78 q 591 90 549 78 q 662 121 633 102 q 705 162 690 140 q 720 204 720 184 q 717 262 720 236 q 701 305 714 287 q 659 333 687 323 q 582 343 631 343 q 550 320 568 333 q 518 296 531 306 l 518 476 l 582 430 q 658 436 630 430 q 699 453 685 442 q 717 479 713 464 q 721 514 721 494 q 718 552 721 533 q 701 585 715 571 q 660 608 688 599 q 583 618 632 618 q 550 595 569 608 q 518 573 531 583 l 518 742 l 581 701 q 660 712 632 701 q 702 741 689 723 q 718 782 715 759 q 721 827 721 804 q 714 940 721 893 q 693 1023 707 987 q 655 1086 678 1058 q 600 1139 632 1113 l 643 1177 q 732 1121 687 1157 q 814 1037 777 1084 q 873 935 850 990 q 897 824 897 880 "},"⤳":{"x_min":51.34375,"x_max":1112,"ha":1164,"o":"m 724 504 l 952 504 l 821 732 l 829 732 l 1112 452 l 1112 445 l 829 165 l 821 165 l 952 394 l 724 394 q 602 418 660 394 q 503 485 545 443 q 359 545 443 545 q 216 485 275 545 l 129 398 l 51 476 l 138 562 q 237 629 180 604 q 359 655 295 655 q 480 629 422 655 q 580 562 538 604 q 724 504 639 504 "},"5":{"x_min":118,"x_max":776,"ha":883,"o":"m 698 1013 l 698 902 l 235 902 l 235 611 q 317 647 270 635 q 422 660 364 660 q 681 569 586 660 q 776 320 776 478 q 680 69 776 159 q 410 -20 584 -20 q 267 -3 340 -20 q 118 48 194 13 l 118 245 l 197 245 q 252 97 197 148 q 408 47 308 47 q 574 117 516 47 q 633 320 633 188 q 575 522 633 452 q 410 592 518 592 q 303 571 350 592 q 221 504 257 549 l 163 504 l 163 1013 l 698 1013 "},"̆":{"x_min":-556,"x_max":-138,"ha":0,"o":"m -556 1091 l -494 1091 q -450 1013 -485 1037 q -347 989 -414 989 q -243 1013 -279 989 q -199 1091 -208 1037 l -138 1091 q -192 944 -138 993 q -347 896 -246 896 q -501 944 -447 896 q -556 1091 -556 993 "},"▓":{"x_min":-13,"x_max":1082,"ha":1069,"o":"m -13 -347 l -13 -99 l 123 -99 l 123 78 l -13 78 l -13 397 l 123 397 l 123 574 l -13 574 l -13 893 l 123 893 l 123 1070 l 534 1070 l 534 893 l 671 893 l 671 1070 l 1082 1070 l 1082 -347 l 945 -347 l 945 -170 l 808 -170 l 808 -347 l 397 -347 l 397 -170 l 260 -170 l 260 -347 l -13 -347 m 260 645 l 397 645 l 397 822 l 260 822 l 260 645 m 808 645 l 945 645 l 945 822 l 808 822 l 808 645 m 534 397 l 671 397 l 671 574 l 534 574 l 534 397 m 260 149 l 397 149 l 397 326 l 260 326 l 260 149 m 808 149 l 945 149 l 945 326 l 808 326 l 808 149 m 534 -99 l 671 -99 l 671 78 l 534 78 l 534 -99 "},"□":{"x_min":126,"x_max":1186,"ha":1312,"o":"m 203 -94 l 1109 -94 l 1109 816 l 203 816 l 203 -94 m 126 -171 l 126 893 l 1186 893 l 1186 -171 l 126 -171 "},"ῳ":{"x_min":61,"x_max":1065,"ha":1133,"o":"m 683 -277 l 634 -288 q 513 -171 513 -315 l 513 -83 l 614 -83 l 614 -180 q 648 -234 614 -243 l 683 -225 l 683 -277 m 562 131 q 370 -3 477 -3 q 248 20 307 -3 q 152 88 204 38 q 77 205 108 131 q 61 345 61 245 q 105 589 61 500 q 261 720 146 667 l 337 720 l 337 680 q 225 579 270 648 q 200 357 200 541 q 237 156 200 228 q 370 66 283 66 q 447 108 416 66 q 500 253 500 177 l 500 498 l 625 498 l 625 253 q 677 108 625 177 q 754 66 708 66 q 888 156 842 66 q 926 357 926 228 q 900 579 926 541 q 789 680 855 648 l 789 720 l 864 720 q 1020 589 979 667 q 1065 345 1065 500 q 1048 205 1065 245 q 973 88 1017 131 q 877 20 921 38 q 754 -3 817 -3 q 562 131 648 -3 "},"⢶":{"x_min":193,"x_max":824,"ha":1017,"o":"m 600 -169 q 631 -89 600 -122 q 712 -57 663 -57 q 791 -89 758 -57 q 824 -169 824 -122 q 791 -249 824 -216 q 712 -282 758 -282 q 631 -249 663 -282 q 600 -169 600 -216 m 600 215 q 631 295 600 262 q 712 328 663 328 q 791 295 758 328 q 824 215 824 262 q 791 135 824 168 q 712 103 758 103 q 631 135 663 103 q 600 215 600 168 m 600 599 q 631 679 600 646 q 712 712 663 712 q 791 679 758 712 q 824 599 824 646 q 791 519 824 552 q 712 487 758 487 q 631 519 663 487 q 600 599 600 552 m 193 215 q 224 295 193 262 q 304 328 256 328 q 384 295 351 328 q 417 215 417 262 q 384 135 417 168 q 304 103 351 103 q 224 135 256 103 q 193 215 193 168 m 193 599 q 224 679 193 646 q 304 712 256 712 q 384 679 351 712 q 417 599 417 646 q 384 519 417 552 q 304 487 351 487 q 224 519 256 487 q 193 599 193 552 "},"ⴌ":{"x_min":81.4375,"x_max":815.609375,"ha":897,"o":"m 586 981 l 371 938 l 371 711 l 355 622 l 663 672 l 671 710 l 815 710 l 683 92 l 760 92 l 760 35 l 670 35 l 663 0 l 520 0 l 651 622 l 345 571 l 242 92 l 319 92 l 319 35 l 230 35 l 223 0 l 81 0 l 232 711 l 232 1056 l 371 1056 l 371 990 l 584 1023 l 584 1057 l 730 1057 l 730 885 l 586 885 l 586 981 "},"╇":{"x_min":-13,"x_max":850,"ha":837,"o":"m 364 -420 l 364 278 l -13 278 l -13 511 l 310 511 l 310 1351 l 527 1351 l 527 511 l 850 511 l 850 278 l 473 278 l 473 -420 l 364 -420 "},"Ϲ":{"x_min":78,"x_max":978.984375,"ha":1062,"o":"m 978 268 q 828 53 934 126 q 562 -20 723 -20 q 378 13 463 -20 q 227 113 293 47 q 114 286 151 189 q 78 505 78 383 q 214 886 78 741 q 573 1031 350 1031 q 749 1009 656 1031 q 951 943 843 987 l 951 710 l 874 710 q 773 897 849 837 q 561 958 698 958 q 316 843 399 958 q 233 505 233 728 q 316 167 233 282 q 561 53 399 53 q 748 106 675 53 q 854 268 821 160 l 978 268 "},"⤚":{"x_min":74.1875,"x_max":1084,"ha":1163,"o":"m 382 504 l 1084 504 l 1084 394 l 382 394 l 151 165 l 74 243 l 279 445 l 279 452 l 74 654 l 151 732 l 382 504 "}}}
